<?xml version="1.0" encoding="utf-8"?>
<!-- Generator: Adobe Illustrator 16.0.0, SVG Export Plug-In . SVG Version: 6.00 Build 0)  -->
<!DOCTYPE svg PUBLIC "-//W3C//DTD SVG 1.1//EN" "http://www.w3.org/Graphics/SVG/1.1/DTD/svg11.dtd">
<svg version="1.1" id="Layer_1" xmlns="http://www.w3.org/2000/svg" xmlns:xlink="http://www.w3.org/1999/xlink" x="0px" y="0px"
	 width="50.314px" height="50.328px" viewBox="0 0 50.314 50.328" enable-background="new 0 0 50.314 50.328" xml:space="preserve">
<g id="Background">
</g>
<g id="Layer_1_1_">
	<g>
		<path fill="#FFFFFF" d="M50.307,5.895c-0.042-1.84-0.794-3.347-2.194-4.522C46.94,0.389,45.562-0.001,44.048,0
			c-6.29,0.005-12.58,0.002-18.868,0.002c-3.322,0-6.646,0-9.968,0c-2.996,0-5.99,0.001-8.986,0C4.368,0.001,2.781,0.626,1.53,2.022
			C0.478,3.196-0.001,4.58,0,6.151C0.005,18.83,0.003,31.508,0.003,44.188c0,0.142-0.002,0.283,0.009,0.426
			c0.159,2.3,1.272,3.984,3.299,5.064c0.921,0.492,1.92,0.65,2.959,0.65c12.594-0.004,25.188-0.003,37.779-0.003
			c0.143,0,0.284,0.001,0.427-0.005c1.191-0.041,2.296-0.375,3.265-1.076c1.702-1.232,2.57-7.129,2.57-5.016
			c0.001,5.529,0-8.762,0-36.248C50.31,7.285,50.323,6.59,50.307,5.895z M39.787,38.965c-0.001,0.526,0.065,0.477-0.478,0.479
			c-0.539,0.002-1.078-0.002-1.617,0c-0.353,0.002-0.355,0.005-0.357,0.342c-0.002,0.609,0.004,1.221-0.001,1.831
			c-0.009,0.92-0.441,1.571-1.249,1.894c-0.825,0.328-1.835,0.141-2.42-0.441c-0.396-0.396-0.55-0.887-0.558-1.428
			c-0.009-0.597-0.003-1.192-0.002-1.789c0.001-0.47,0.001-0.406-0.419-0.406c-4.729,0-9.454,0-14.183,0
			c-0.354,0-0.709,0.009-1.063-0.004c-0.203-0.008-0.273,0.062-0.271,0.268c0.011,0.625-0.012,1.25,0.008,1.874
			c0.028,0.942-0.483,1.638-1.252,1.933c-0.864,0.33-1.894,0.125-2.478-0.512c-0.333-0.361-0.482-0.795-0.485-1.281
			c-0.002-0.597,0-1.191-0.002-1.789c-0.002-0.533,0.057-0.486-0.469-0.488c-0.582-0.002-1.164-0.006-1.746,0.003
			c-0.176,0.003-0.268-0.043-0.247-0.235c0.011-0.099,0.001-0.197,0.001-0.298c0-4.33,0.006-8.659-0.004-12.988
			c-0.002-0.729,0.13-1.439,0.228-2.155c0.262-1.938,0.54-3.876,0.811-5.813c0.123-0.885,0.228-1.773,0.369-2.655
			c0.18-1.114,0.772-1.967,1.735-2.555c1.023-0.626,2.14-1.042,3.296-1.343c1.481-0.387,2.981-0.689,4.505-0.875
			c0.034-0.004,0.067-0.017,0.134-0.037c0.383-0.057,0.57-0.049,0.673-0.061c1.95-0.234,3.901-0.239,5.852,0.015
			c0.245,0.032,0.7,0.058,1.616,0.203c0.303,0.048,0.604,0.099,0.905,0.155c1.604,0.303,3.2,0.623,4.71,1.273
			c0.455,0.196,0.902,0.409,1.325,0.672c1.108,0.689,1.633,1.707,1.798,2.982c0.339,2.629,0.719,5.254,1.091,7.879
			c0.157,1.111,0.26,2.221,0.253,3.347C39.775,30.959,39.788,34.962,39.787,38.965z"/>
		<path fill="#FFFFFF" d="M36.171,26.461c0.499-0.042,0.904-0.361,1.051-0.807c0.079-0.244,0.005-0.477-0.03-0.714
			c-0.375-2.597-0.746-5.194-1.12-7.791c-0.08-0.557-0.497-0.945-1.058-0.987c-0.143-0.01-0.284-0.007-0.427-0.007
			c-6.29,0-12.58,0-18.87,0c-0.142,0-0.283-0.003-0.425,0.008c-0.545,0.042-0.955,0.416-1.039,0.953
			c-0.067,0.435-0.125,0.87-0.188,1.306c-0.329,2.245-0.66,4.49-0.986,6.735c-0.09,0.616,0.227,1.079,0.822,1.258
			c0.196,0.06,0.394,0.051,0.591,0.051c3.55,0.001,7.099,0.001,10.649,0.001c3.534,0,7.069,0,10.604,0
			C35.888,26.467,36.03,26.473,36.171,26.461z"/>
		<path fill="#FFFFFF" d="M18.716,14.803c0.042-0.002,0.085,0,0.127,0c4.2,0,8.4,0,12.601,0c0.143,0,0.285,0.005,0.426-0.009
			c0.269-0.026,0.488-0.149,0.637-0.375c0.287-0.438,0.321-0.896,0.098-1.372c-0.214-0.455-0.596-0.551-1.056-0.549
			c-2.143,0.009-4.284,0.004-6.428,0.004c-1.93,0-3.858,0-5.789,0c-0.284,0-0.566,0-0.852,0.004
			c-0.271,0.004-0.505,0.109-0.664,0.325c-0.321,0.437-0.356,0.915-0.143,1.408C17.872,14.695,18.251,14.832,18.716,14.803z"/>
		<path fill="#FFFFFF" d="M35.194,31.079c-0.191-0.017-0.417,0.024-0.633,0.093c-0.819,0.26-1.391,0.781-1.541,1.646
			c-0.146,0.83,0.173,1.51,0.856,1.992c0.785,0.554,1.847,0.559,2.643,0.021c0.562-0.379,0.888-0.911,0.915-1.598
			C37.479,32.051,36.487,31.084,35.194,31.079z"/>
		<path fill="#FFFFFF" d="M15.083,31.078c-0.246-0.018-0.485,0.025-0.713,0.104c-0.812,0.279-1.365,0.81-1.503,1.683
			c-0.124,0.786,0.179,1.423,0.794,1.899c0.801,0.621,2.01,0.608,2.818-0.004c0.963-0.728,1.087-2.072,0.271-2.959
			C16.302,31.314,15.731,31.104,15.083,31.078z"/>
	</g>
</g>
<g id="Guides" display="none">
</g>
</svg>
