<?xml version="1.0" encoding="utf-8"?>
<!-- Generator: Adobe Illustrator 16.0.0, SVG Export Plug-In . SVG Version: 6.00 Build 0)  -->
<!DOCTYPE svg PUBLIC "-//W3C//DTD SVG 1.1//EN" "http://www.w3.org/Graphics/SVG/1.1/DTD/svg11.dtd">
<svg version="1.1" xmlns="http://www.w3.org/2000/svg" xmlns:xlink="http://www.w3.org/1999/xlink" x="0px" y="0px"
	 width="50.314px" height="50.328px" viewBox="0 0 50.314 50.328" enable-background="new 0 0 50.314 50.328" xml:space="preserve">
<g id="Background">
</g>
<g id="Layer_1">
	<g>
		<path fill-rule="evenodd" clip-rule="evenodd" fill="#04A8BD" d="M50.307,5.895c-0.042-1.84-0.794-3.347-2.194-4.522
			C46.94,0.389,45.562-0.001,44.048,0c-6.29,0.005-12.58,0.002-18.869,0.002c-3.322,0-6.645,0-9.967,0c-2.996,0-5.991,0.001-8.987,0
			C4.368,0.001,2.781,0.626,1.53,2.022C0.478,3.196-0.001,4.58,0,6.151C0.005,18.83,0.003,31.508,0.003,44.187
			c0,0.142-0.002,0.284,0.008,0.426c0.16,2.3,1.273,3.984,3.299,5.065c0.921,0.492,1.92,0.65,2.959,0.65
			c12.594-0.004,25.188-0.003,37.78-0.003c0.142,0,0.284,0.001,0.426-0.004c1.192-0.042,2.296-0.376,3.265-1.077
			c1.702-1.232,2.57-7.129,2.57-5.016c0.001,5.53,0-8.761,0-36.247C50.31,7.285,50.323,6.59,50.307,5.895z M39.787,38.965
			c-0.001,0.526,0.065,0.476-0.478,0.478c-0.539,0.002-1.078-0.001-1.617,0.001c-0.352,0.002-0.355,0.004-0.357,0.341
			c-0.002,0.61,0.004,1.221-0.001,1.831c-0.009,0.92-0.442,1.572-1.249,1.894c-0.825,0.328-1.835,0.14-2.42-0.442
			c-0.396-0.396-0.55-0.886-0.558-1.428c-0.009-0.596-0.003-1.192-0.002-1.789c0.001-0.469,0.001-0.406-0.419-0.406
			c-4.728,0-9.454,0-14.182,0c-0.354,0-0.709,0.009-1.064-0.004c-0.203-0.007-0.273,0.062-0.27,0.268
			c0.01,0.625-0.012,1.25,0.007,1.874c0.029,0.943-0.483,1.638-1.251,1.932c-0.865,0.331-1.894,0.126-2.478-0.511
			c-0.333-0.362-0.482-0.795-0.485-1.281c-0.002-0.597,0-1.192-0.002-1.789c-0.002-0.533,0.056-0.487-0.469-0.488
			c-0.582-0.002-1.164-0.006-1.746,0.002c-0.176,0.003-0.268-0.043-0.247-0.235c0.011-0.099,0.001-0.198,0.001-0.298
			c0-4.33,0.006-8.659-0.004-12.988c-0.002-0.729,0.13-1.439,0.227-2.155c0.262-1.938,0.54-3.876,0.811-5.813
			c0.123-0.885,0.227-1.773,0.369-2.655c0.18-1.114,0.773-1.967,1.735-2.555c1.024-0.626,2.14-1.042,3.296-1.343
			c1.482-0.387,2.982-0.689,4.505-0.875c0.034-0.004,0.068-0.017,0.134-0.037c0.383-0.057,0.57-0.049,0.673-0.061
			c1.95-0.234,3.901-0.239,5.851,0.015c0.246,0.032,0.701,0.058,1.617,0.203c0.302,0.048,0.604,0.099,0.905,0.155
			c1.603,0.303,3.2,0.623,4.71,1.273c0.455,0.196,0.902,0.409,1.325,0.672c1.108,0.689,1.633,1.707,1.798,2.982
			c0.339,2.629,0.719,5.254,1.091,7.879c0.157,1.111,0.259,2.221,0.253,3.347C39.775,30.959,39.788,34.962,39.787,38.965z"/>
		<path fill-rule="evenodd" clip-rule="evenodd" fill="#04A8BD" d="M36.171,26.461c0.499-0.042,0.904-0.361,1.05-0.807
			c0.08-0.244,0.005-0.477-0.03-0.714c-0.375-2.597-0.746-5.194-1.12-7.791c-0.08-0.557-0.497-0.945-1.058-0.987
			c-0.142-0.01-0.284-0.007-0.426-0.007c-6.29,0-12.58,0-18.87,0c-0.142,0-0.284-0.003-0.425,0.008
			c-0.545,0.042-0.955,0.416-1.039,0.953c-0.068,0.435-0.125,0.87-0.189,1.306c-0.329,2.245-0.66,4.49-0.986,6.735
			c-0.09,0.616,0.226,1.079,0.822,1.258c0.196,0.06,0.394,0.051,0.591,0.051c3.55,0.001,7.099,0.001,10.649,0.001
			c3.535,0,7.07,0,10.605,0C35.888,26.467,36.03,26.473,36.171,26.461z"/>
		<path fill-rule="evenodd" clip-rule="evenodd" fill="#04A8BD" d="M18.716,14.803c0.042-0.002,0.085,0,0.127,0c4.2,0,8.4,0,12.6,0
			c0.143,0,0.285,0.005,0.426-0.009c0.268-0.026,0.488-0.149,0.637-0.375c0.287-0.438,0.321-0.896,0.097-1.372
			c-0.214-0.455-0.595-0.551-1.055-0.549c-2.143,0.009-4.285,0.004-6.428,0.004c-1.93,0-3.859,0-5.789,0
			c-0.284,0-0.567,0-0.852,0.004c-0.271,0.004-0.505,0.109-0.664,0.325c-0.321,0.437-0.356,0.915-0.142,1.408
			C17.872,14.695,18.251,14.832,18.716,14.803z"/>
		<path fill-rule="evenodd" clip-rule="evenodd" fill="#04A8BD" d="M35.194,31.079c-0.191-0.016-0.417,0.024-0.633,0.093
			c-0.819,0.26-1.39,0.781-1.541,1.646c-0.146,0.831,0.173,1.51,0.857,1.992c0.785,0.554,1.846,0.559,2.642,0.022
			c0.562-0.379,0.888-0.911,0.915-1.598C37.479,32.051,36.487,31.084,35.194,31.079z"/>
		<path fill-rule="evenodd" clip-rule="evenodd" fill="#04A8BD" d="M15.083,31.078c-0.246-0.017-0.486,0.026-0.713,0.104
			c-0.812,0.279-1.365,0.809-1.503,1.682c-0.124,0.786,0.179,1.423,0.794,1.9c0.801,0.621,2.01,0.608,2.818-0.004
			c0.963-0.728,1.087-2.073,0.271-2.959C16.302,31.314,15.731,31.103,15.083,31.078z"/>
	</g>
</g>
<g id="Guides" display="none">
</g>
</svg>
