<?xml version="1.0" encoding="utf-8"?>
<!-- Generator: Adobe Illustrator 16.0.0, SVG Export Plug-In . SVG Version: 6.00 Build 0)  -->
<!DOCTYPE svg PUBLIC "-//W3C//DTD SVG 1.1//EN" "http://www.w3.org/Graphics/SVG/1.1/DTD/svg11.dtd">
<svg version="1.1" id="Layer_1" xmlns="http://www.w3.org/2000/svg" xmlns:xlink="http://www.w3.org/1999/xlink" x="0px" y="0px"
	 width="50.314px" height="50.328px" viewBox="0 0 50.314 50.328" enable-background="new 0 0 50.314 50.328" xml:space="preserve">
<g id="Background">
</g>
<g id="Layer_1_1_">
	<g>
		<path fill="#FFFFFF" d="M42.502,0H7.811C3.515,0,0,3.516,0,7.812v34.706c0,4.295,3.516,7.812,7.812,7.812h34.69
			c4.297,0,7.812-3.517,7.812-7.812V7.812C50.314,3.516,46.799,0,42.502,0z M17.631,6.341c0.266-1.53,1.753-2.132,3.623-2.37
			c0.034-0.007,0.068-0.011,0.104-0.013c1.189-0.142,2.527-0.143,3.8-0.143c1.273,0,2.61,0.001,3.801,0.143
			c0.034,0.002,0.068,0.006,0.104,0.013c1.87,0.238,3.357,0.84,3.624,2.37c0.063,0.37-0.185,0.723-0.556,0.787
			c-0.039,0.007-0.077,0.01-0.116,0.01c-0.324,0-0.612-0.233-0.671-0.564c-0.111-0.647-0.91-0.994-1.984-1.181l-1.241,3.118
			c-0.104,0.267-0.362,0.429-0.633,0.429c-0.084,0-0.169-0.016-0.252-0.048c-0.351-0.14-0.521-0.535-0.38-0.884l1.103-2.771
			c-0.928-0.06-1.919-0.06-2.797-0.06c-0.877,0-1.867,0-2.796,0.06l1.103,2.771c0.14,0.349-0.03,0.744-0.381,0.884
			C23,8.924,22.915,8.939,22.831,8.939c-0.271,0-0.525-0.162-0.632-0.429l-1.242-3.118c-1.074,0.187-1.873,0.533-1.984,1.181
			c-0.059,0.331-0.346,0.564-0.672,0.564c-0.037,0-0.076-0.003-0.115-0.01C17.814,7.063,17.565,6.711,17.631,6.341z M12.777,18.501
			c0-4.255,3.231-8.849,6.188-9.189s9.425-0.341,12.381,0c2.957,0.341,6.189,4.935,6.189,9.189s0,17.868,0,17.868h-12.38H12.777
			C12.777,36.369,12.777,22.756,12.777,18.501z M33.598,46.482c-0.064,0.021-0.132,0.029-0.195,0.029
			c-0.293,0-0.563-0.189-0.652-0.484l-0.875-2.92h-6.719h-6.718l-0.876,2.92c-0.088,0.295-0.358,0.484-0.65,0.484
			c-0.064,0-0.131-0.01-0.197-0.029c-0.358-0.106-0.563-0.486-0.454-0.848l1.165-3.889h7.73h7.731l1.167,3.889
			C34.162,45.996,33.959,46.376,33.598,46.482z M34.814,40.794c-2.894-0.17-9.658,0-9.658,0s-6.764-0.17-9.657,0
			c-2.893,0.17-2.722-3.21-2.722-3.21h12.379h12.381C37.537,37.584,37.707,40.964,34.814,40.794z"/>
		<circle fill="#FFFFFF" cx="34.1" cy="33.635" r="1.645"/>
		<circle fill="#FFFFFF" cx="16.214" cy="33.635" r="1.646"/>
		<path fill="#FFFFFF" d="M32.795,13.156c-0.227-2.271-5.786-1.815-7.639-1.815c-1.852,0-7.411-0.454-7.638,1.815
			c-0.228,2.269,0,12.934,0,12.934s4.044,0.682,7.638,0.682s7.639-0.682,7.639-0.682S33.021,15.426,32.795,13.156z"/>
	</g>
</g>
<g id="Guides" display="none">
</g>
</svg>
