<?xml version="1.0" encoding="utf-8"?>
<!-- Generator: Adobe Illustrator 16.0.0, SVG Export Plug-In . SVG Version: 6.00 Build 0)  -->
<!DOCTYPE svg PUBLIC "-//W3C//DTD SVG 1.1//EN" "http://www.w3.org/Graphics/SVG/1.1/DTD/svg11.dtd">
<svg version="1.1" xmlns="http://www.w3.org/2000/svg" xmlns:xlink="http://www.w3.org/1999/xlink" x="0px" y="0px"
	 width="50.314px" height="50.328px" viewBox="0 0 50.314 50.328" enable-background="new 0 0 50.314 50.328" xml:space="preserve">
<g id="Background">
</g>
<g id="Layer_1">
	<g>
		<path fill="#04A8BD" d="M42.502,0H7.811C3.515,0,0,3.516,0,7.812v34.705c0,4.296,3.515,7.812,7.811,7.812h34.691
			c4.297,0,7.812-3.516,7.812-7.812V7.812C50.314,3.516,46.799,0,42.502,0z M17.631,6.341c0.265-1.53,1.753-2.132,3.623-2.37
			c0.034-0.007,0.068-0.011,0.103-0.013c1.19-0.142,2.528-0.143,3.8-0.143c1.273,0,2.61,0.001,3.801,0.143
			c0.034,0.002,0.068,0.006,0.103,0.013c1.87,0.238,3.358,0.84,3.624,2.37c0.064,0.37-0.184,0.723-0.555,0.787
			c-0.039,0.007-0.078,0.01-0.117,0.01c-0.324,0-0.612-0.233-0.67-0.564c-0.112-0.647-0.911-0.994-1.985-1.181l-1.241,3.118
			c-0.105,0.267-0.362,0.429-0.633,0.429c-0.084,0-0.169-0.016-0.252-0.048c-0.35-0.14-0.52-0.535-0.38-0.884l1.103-2.771
			c-0.928-0.06-1.919-0.06-2.797-0.06c-0.877,0-1.867,0-2.796,0.06l1.103,2.771c0.139,0.349-0.031,0.744-0.381,0.884
			C23,8.924,22.915,8.939,22.831,8.939c-0.271,0-0.526-0.162-0.632-0.429l-1.242-3.118c-1.074,0.187-1.873,0.533-1.985,1.181
			c-0.058,0.331-0.345,0.564-0.671,0.564c-0.038,0-0.077-0.003-0.116-0.01C17.814,7.063,17.565,6.711,17.631,6.341z M12.777,18.501
			c0-4.255,3.232-8.849,6.189-9.189s9.424-0.341,12.38,0c2.957,0.341,6.19,4.935,6.19,9.189s0,17.868,0,17.868H25.156H12.777
			C12.777,36.369,12.777,22.756,12.777,18.501z M33.598,46.483c-0.064,0.02-0.131,0.029-0.195,0.029
			c-0.293,0-0.563-0.19-0.652-0.485l-0.875-2.919h-6.719h-6.718l-0.876,2.919c-0.088,0.295-0.358,0.485-0.65,0.485
			c-0.065,0-0.131-0.01-0.197-0.029c-0.359-0.107-0.564-0.487-0.455-0.848l1.166-3.889h7.73h7.731l1.167,3.889
			C34.162,45.996,33.959,46.376,33.598,46.483z M34.814,40.794c-2.893-0.17-9.658,0-9.658,0s-6.764-0.17-9.657,0
			c-2.893,0.17-2.722-3.21-2.722-3.21h12.379h12.381C37.537,37.584,37.707,40.964,34.814,40.794z"/>
		<circle fill-rule="evenodd" clip-rule="evenodd" fill="#04A8BD" cx="34.1" cy="33.635" r="1.645"/>
		<circle fill-rule="evenodd" clip-rule="evenodd" fill="#04A8BD" cx="16.214" cy="33.635" r="1.646"/>
		<path fill-rule="evenodd" clip-rule="evenodd" fill="#04A8BD" d="M32.795,13.156c-0.227-2.27-5.786-1.815-7.639-1.815
			c-1.852,0-7.411-0.454-7.638,1.815s0,12.934,0,12.934s4.044,0.682,7.638,0.682s7.639-0.682,7.639-0.682
			S33.021,15.426,32.795,13.156z"/>
	</g>
</g>
<g id="Guides" display="none">
</g>
</svg>
