<?xml version="1.0" encoding="utf-8"?>
<!-- Generator: Adobe Illustrator 16.0.0, SVG Export Plug-In . SVG Version: 6.00 Build 0)  -->
<!DOCTYPE svg PUBLIC "-//W3C//DTD SVG 1.1//EN" "http://www.w3.org/Graphics/SVG/1.1/DTD/svg11.dtd">
<svg version="1.1" id="Layer_1" xmlns="http://www.w3.org/2000/svg" xmlns:xlink="http://www.w3.org/1999/xlink" x="0px" y="0px"
	 width="50.314px" height="50.328px" viewBox="0 0 50.314 50.328" enable-background="new 0 0 50.314 50.328" xml:space="preserve">
<g id="Background">
</g>
<path fill="none" d="M39.542,23.609c-0.371-2.625-0.751-5.25-1.09-7.879c-0.165-1.275-0.689-2.293-1.798-2.982
	c-0.423-0.263-0.87-0.476-1.325-0.672c-1.51-0.65-3.106-0.971-4.71-1.273c-0.521-0.098-1.043-0.176-1.562-0.258l-0.249,0.64
	c-0.077,0.197-0.267,0.318-0.467,0.318c-0.061,0-0.121-0.011-0.182-0.034c-0.257-0.101-0.385-0.39-0.284-0.646l0.149-0.384
	c-1.877-0.238-3.755-0.235-5.634-0.021l0.157,0.405c0.102,0.258-0.026,0.547-0.283,0.646c-0.061,0.023-0.121,0.034-0.183,0.034
	c-0.2,0-0.389-0.121-0.466-0.318l-0.252-0.646c-1.497,0.186-2.974,0.482-4.433,0.863c-1.156,0.301-2.271,0.717-3.296,1.343
	c-0.963,0.588-1.557,1.44-1.735,2.555c-0.144,0.882-0.246,1.771-0.369,2.655c-0.271,1.938-0.549,3.875-0.811,5.813
	c-0.098,0.716-0.229,1.426-0.228,2.155c0.01,4.329,0.004,8.658,0.004,12.988c0,0.1,0.01,0.198-0.001,0.298
	c-0.021,0.191,0.071,0.238,0.247,0.234c0.582-0.008,1.164-0.004,1.746-0.002c0.524,0.002,0.467-0.045,0.469,0.488
	c0.002,0.598,0,1.192,0.002,1.789c0.003,0.486,0.152,0.92,0.485,1.281c0.584,0.637,1.612,0.842,2.478,0.511
	c0.769-0.294,1.28-0.987,1.251-1.932c-0.02-0.624,0.004-1.249-0.007-1.874c-0.004-0.205,0.066-0.273,0.271-0.268
	c0.354,0.013,0.71,0.004,1.063,0.004c4.728,0,9.454,0,14.182,0c0.421,0,0.421-0.062,0.42,0.406
	c-0.001,0.596-0.007,1.192,0.001,1.788c0.008,0.542,0.162,1.031,0.559,1.429c0.585,0.582,1.595,0.771,2.419,0.441
	c0.809-0.32,1.241-0.974,1.249-1.895c0.006-0.609,0-1.221,0.002-1.83c0.002-0.338,0.006-0.34,0.357-0.342
	c0.539-0.002,1.078,0.002,1.617,0c0.542-0.002,0.477,0.049,0.477-0.479c0.002-4.003-0.012-8.006,0.01-12.009
	C39.802,25.83,39.7,24.721,39.542,23.609z M17.813,12.831c0.16-0.216,0.395-0.321,0.666-0.325c0.283-0.004,0.565-0.004,0.851-0.004
	c1.93,0,3.859,0,5.789,0c2.144,0,4.285,0.005,6.427-0.004c0.461-0.002,0.843,0.094,1.057,0.549c0.225,0.477,0.189,0.935-0.098,1.372
	c-0.147,0.226-0.368,0.349-0.637,0.375c-0.141,0.014-0.283,0.009-0.426,0.009c-4.199,0-8.399,0-12.601,0
	c-0.043,0-0.085-0.002-0.127,0c-0.465,0.029-0.844-0.107-1.043-0.562C17.458,13.746,17.493,13.268,17.813,12.831z M16.479,34.76
	c-0.81,0.612-2.019,0.625-2.818,0.004c-0.615-0.478-0.918-1.113-0.794-1.899c0.138-0.873,0.69-1.402,1.503-1.683
	c0.228-0.076,0.467-0.119,0.713-0.104c0.648,0.023,1.22,0.236,1.667,0.723C17.566,32.688,17.442,34.032,16.479,34.76z
	 M25.139,26.467c-3.551,0-7.1,0-10.648-0.001c-0.198,0-0.395,0.009-0.591-0.051c-0.599-0.179-0.912-0.642-0.822-1.258
	c0.326-2.245,0.657-4.49,0.986-6.735c0.063-0.436,0.121-0.871,0.188-1.306c0.084-0.537,0.494-0.911,1.039-0.953
	c0.142-0.011,0.283-0.008,0.425-0.008c6.29,0,12.579,0,18.87,0c0.142,0,0.283-0.003,0.427,0.007
	c0.561,0.042,0.978,0.431,1.058,0.987c0.374,2.597,0.745,5.194,1.12,7.791c0.035,0.237,0.108,0.47,0.03,0.714
	c-0.146,0.446-0.552,0.765-1.051,0.807c-0.141,0.012-0.283,0.006-0.426,0.006C32.21,26.467,28.675,26.467,25.139,26.467z
	 M36.52,34.832c-0.796,0.536-1.856,0.531-2.643-0.021c-0.685-0.482-1.004-1.162-0.856-1.992c0.15-0.864,0.721-1.387,1.541-1.646
	c0.216-0.068,0.44-0.107,0.632-0.093c1.294,0.005,2.286,0.972,2.241,2.155C37.407,33.921,37.081,34.453,36.52,34.832z"/>
<g>
	<path fill="#FFFFFF" d="M28.027,10.437l1.107-2.844h-3.921v0.001h-3.921l1.101,2.822C24.272,10.202,26.15,10.199,28.027,10.437z"/>
	<path fill="#FFFFFF" d="M50.307,5.895c-0.042-1.84-0.794-3.347-2.194-4.522C46.94,0.389,45.562-0.001,44.048,0
		c-6.29,0.005-12.58,0.002-18.868,0.002c-3.322,0-6.646,0-9.968,0c-2.996,0-5.99,0.001-8.986,0C4.368,0.001,2.781,0.626,1.53,2.022
		C0.478,3.196-0.001,4.58,0,6.151C0.005,18.83,0.003,31.508,0.003,44.188c0,0.142-0.002,0.283,0.009,0.426
		c0.159,2.3,1.272,3.984,3.299,5.064c0.921,0.492,1.92,0.65,2.959,0.65c12.594-0.004,25.187-0.003,37.779-0.003
		c0.143,0,0.284,0.001,0.427-0.005c1.191-0.041,2.296-0.375,3.265-1.076c1.702-1.232,2.57-2.903,2.57-5.016
		c0-12.084,0-24.166,0-36.248C50.31,7.285,50.322,6.59,50.307,5.895z M39.31,39.441c-0.539,0.002-1.078,0-1.617,0.002
		c-0.353,0.002-0.355,0.004-0.357,0.341c-0.002,0.61,0.004,1.221-0.002,1.831c-0.008,0.92-0.44,1.572-1.249,1.894
		c-0.823,0.328-1.834,0.14-2.419-0.442c-0.396-0.396-0.551-0.885-0.559-1.428c-0.008-0.596-0.002-1.191-0.001-1.789
		c0.001-0.469,0.001-0.406-0.42-0.406c-4.728,0-9.454,0-14.182,0c-0.354,0-0.709,0.01-1.063-0.004
		c-0.203-0.006-0.273,0.062-0.271,0.269c0.011,0.625-0.013,1.25,0.008,1.874c0.028,0.943-0.483,1.638-1.251,1.932
		c-0.865,0.331-1.895,0.127-2.479-0.511c-0.333-0.362-0.482-0.795-0.485-1.28c-0.002-0.598,0-1.192-0.002-1.789
		c-0.002-0.533,0.057-0.488-0.469-0.488c-0.582-0.002-1.164-0.006-1.746,0.002c-0.176,0.003-0.268-0.043-0.247-0.235
		c0.012-0.099,0.001-0.198,0.001-0.298c0-4.33,0.006-8.659-0.004-12.988c-0.002-0.729,0.13-1.439,0.228-2.155
		c0.262-1.938,0.54-3.876,0.811-5.813c0.123-0.885,0.228-1.773,0.369-2.655c0.18-1.114,0.773-1.967,1.735-2.555
		c1.023-0.626,2.14-1.042,3.296-1.343c1.459-0.381,2.936-0.678,4.433-0.863L20.22,7.594H17.29c-0.275,0-0.5-0.224-0.5-0.5
		c0-0.276,0.225-0.5,0.5-0.5h7.924h4.636c0.003,0,0.005,0,0.008,0h3.281c0.275,0,0.5,0.224,0.5,0.5c0,0.276-0.225,0.5-0.5,0.5
		h-2.931l-1.149,2.951c0.519,0.082,1.041,0.16,1.562,0.258c1.604,0.303,3.2,0.623,4.71,1.273c0.455,0.196,0.902,0.409,1.325,0.672
		c1.107,0.689,1.633,1.707,1.798,2.982c0.339,2.629,0.719,5.254,1.09,7.879c0.158,1.111,0.261,2.221,0.254,3.347
		c-0.021,4.003-0.008,8.006-0.01,12.009C39.786,39.491,39.852,39.439,39.31,39.441z"/>
	<path fill="#FFFFFF" d="M36.171,26.461c0.499-0.042,0.904-0.361,1.051-0.807c0.078-0.244,0.005-0.477-0.03-0.714
		c-0.375-2.597-0.746-5.194-1.12-7.791c-0.08-0.557-0.497-0.945-1.058-0.987c-0.144-0.01-0.285-0.007-0.427-0.007
		c-6.291,0-12.58,0-18.87,0c-0.142,0-0.283-0.003-0.425,0.008c-0.545,0.042-0.955,0.416-1.039,0.953
		c-0.067,0.435-0.125,0.87-0.188,1.306c-0.329,2.245-0.66,4.49-0.986,6.735c-0.09,0.616,0.226,1.079,0.822,1.258
		c0.196,0.06,0.393,0.051,0.591,0.051c3.55,0.001,7.099,0.001,10.648,0.001c3.535,0,7.07,0,10.605,0
		C35.887,26.467,36.03,26.473,36.171,26.461z"/>
	<path fill="#FFFFFF" d="M18.716,14.803c0.042-0.002,0.084,0,0.127,0c4.2,0,8.4,0,12.601,0c0.143,0,0.285,0.005,0.426-0.009
		c0.269-0.026,0.488-0.149,0.637-0.375c0.287-0.438,0.321-0.896,0.098-1.372c-0.214-0.455-0.596-0.551-1.057-0.549
		c-2.142,0.009-4.283,0.004-6.427,0.004c-1.93,0-3.858,0-5.789,0c-0.284,0-0.566,0-0.851,0.004
		c-0.271,0.004-0.506,0.109-0.666,0.325c-0.32,0.437-0.355,0.915-0.142,1.408C17.872,14.695,18.251,14.832,18.716,14.803z"/>
	<path fill="#FFFFFF" d="M35.193,31.079c-0.19-0.017-0.416,0.024-0.632,0.093c-0.82,0.26-1.391,0.781-1.541,1.646
		c-0.146,0.83,0.173,1.51,0.856,1.992c0.785,0.554,1.847,0.559,2.643,0.021c0.562-0.379,0.888-0.911,0.915-1.598
		C37.479,32.051,36.487,31.084,35.193,31.079z"/>
	<path fill="#FFFFFF" d="M15.083,31.078c-0.246-0.018-0.485,0.025-0.713,0.104c-0.812,0.279-1.365,0.81-1.503,1.683
		c-0.124,0.786,0.179,1.423,0.794,1.899c0.801,0.621,2.01,0.608,2.818-0.004c0.963-0.728,1.087-2.072,0.271-2.959
		C16.302,31.314,15.731,31.104,15.083,31.078z"/>
</g>
<g id="Guides" display="none">
</g>
</svg>
