<?xml version="1.0" encoding="utf-8"?>
<!-- Generator: Adobe Illustrator 16.0.0, SVG Export Plug-In . SVG Version: 6.00 Build 0)  -->
<!DOCTYPE svg PUBLIC "-//W3C//DTD SVG 1.1//EN" "http://www.w3.org/Graphics/SVG/1.1/DTD/svg11.dtd">
<svg version="1.1" id="Layer_1" xmlns="http://www.w3.org/2000/svg" xmlns:xlink="http://www.w3.org/1999/xlink" x="0px" y="0px"
	 width="60px" height="60px" viewBox="0 0 60 60" enable-background="new 0 0 60 60" xml:space="preserve">
<path fill-rule="evenodd" clip-rule="evenodd" fill="#F0E2E2" d="M18.532,11.889c0.704,0.058,1.312,0.357,1.815,0.933
	c1.783,2.04,3.578,4.066,5.351,6.118c1.068,1.237,1.086,3.111,0.029,4.439c-0.693,0.872-1.446,1.683-2.172,2.521
	c-0.078,0.091-0.153,0.187-0.232,0.276c-0.406,0.461-0.401,0.457-0.12,1.032c0.568,1.159,1.153,2.308,1.802,3.41
	c1.005,1.707,2.176,3.257,3.479,4.678c1.683,1.832,3.594,3.291,5.614,4.579c0.259,0.166,0.523,0.323,0.776,0.502
	c0.134,0.095,0.212,0.08,0.326-0.052c0.864-0.998,1.726-2,2.61-2.974c0.946-1.04,2.152-1.24,3.321-0.575
	c0.467,0.265,0.799,0.724,1.16,1.136c1.593,1.82,3.182,3.646,4.776,5.466c0.399,0.456,0.671,0.986,0.801,1.614
	c0.012,0.055-0.006,0.134,0.069,0.154c0,0.405,0,0.811,0,1.215c-0.229,1.241-1.051,1.991-1.785,2.811
	c-0.507,0.566-1.081,1.03-1.705,1.421c-1.079,0.677-2.608,1.269-3.555,1.269c-1.355,0-2.41-0.116-3.077-0.265
	c-1.606-0.357-3.153-0.924-4.653-1.667c-1.766-0.875-3.429-1.956-5.012-3.203c-1.336-1.051-2.609-2.19-3.823-3.421
	c-1.641-1.661-3.158-3.459-4.626-5.313c-1.302-1.643-2.518-3.366-3.584-5.219c-1.027-1.786-1.904-3.662-2.489-5.699
	c-0.321-1.124-0.534-2.271-0.64-3.458c-0.107-1.194-0.038-3.731,0.143-4.882c0.209-1.336,0.729-2.536,1.38-3.668
	c0.538-0.935,1.273-1.656,1.961-2.427c0.475-0.533,1.074-0.784,1.748-0.776C18.325,11.875,18.431,11.838,18.532,11.889z"/>
</svg>
