<?xml version="1.0" encoding="utf-8"?>
<!-- Generator: Adobe Illustrator 16.0.0, SVG Export Plug-In . SVG Version: 6.00 Build 0)  -->
<!DOCTYPE svg PUBLIC "-//W3C//DTD SVG 1.1//EN" "http://www.w3.org/Graphics/SVG/1.1/DTD/svg11.dtd">
<svg version="1.1" id="Layer_1" xmlns="http://www.w3.org/2000/svg" xmlns:xlink="http://www.w3.org/1999/xlink" x="0px" y="0px"
	 width="75.705px" height="92.792px" viewBox="0 0 75.705 92.792" enable-background="new 0 0 75.705 92.792" xml:space="preserve">
<g>
	<g>
		<path fill="#F0E7E2" d="M0,55.055c0,0,0.039-0.907,0.112-2.609c0.029-0.424,0.014-0.902,0.086-1.421
			c0.075-0.519,0.157-1.084,0.246-1.695c0.099-0.61,0.162-1.274,0.309-1.967c0.171-0.688,0.353-1.418,0.545-2.19
			c0.846-3.053,2.173-6.741,4.59-10.484c2.38-3.746,5.774-7.571,10.266-10.768c4.506-3.15,10.158-5.562,16.475-6.47
			c0.785-0.143,1.59-0.144,2.394-0.222l1.213-0.09l0.61-0.045c0.285-0.004,0.423,0.008,0.643,0.012
			c1.608,0.062,3.201,0.006,4.908,0.294c3.408,0.331,6.706,1.316,9.979,2.604c0.801,0.363,1.605,0.727,2.412,1.093
			c0.803,0.376,1.55,0.866,2.333,1.298l1.166,0.673l1.104,0.776c0.727,0.532,1.491,1.025,2.195,1.6
			c2.833,2.288,5.313,5.053,7.475,8.083c2.11,3.075,3.731,6.503,4.9,10.096c1.111,3.619,1.632,7.401,1.745,11.194l-0.139,2.806
			c-0.009,0.886-0.167,1.854-0.316,2.814l-0.22,1.435l-0.112,0.717l-0.174,0.688l-0.71,2.747c-1.15,3.599-2.739,7.041-4.833,10.13
			c-2.141,3.046-4.609,5.821-7.422,8.134c-0.701,0.578-1.462,1.076-2.186,1.613l-1.099,0.783l-1.162,0.68
			c-0.78,0.438-1.524,0.933-2.326,1.313c-0.805,0.371-1.607,0.74-2.406,1.108c-3.254,1.307-6.584,2.317-9.938,2.662
			c-1.659,0.297-3.33,0.258-4.964,0.33c-0.223,0.004-0.368,0.02-0.654,0.013l-0.597-0.041l-1.188-0.081
			c-0.793-0.073-1.565-0.066-2.361-0.204c-6.39-0.874-12.009-3.249-16.55-6.373c-4.513-3.168-7.928-6.976-10.332-10.706
			c-2.44-3.728-3.79-7.408-4.655-10.456c-0.197-0.771-0.384-1.5-0.56-2.187c-0.151-0.691-0.218-1.355-0.32-1.964
			c-0.093-0.61-0.178-1.176-0.256-1.693c-0.075-0.519-0.063-0.997-0.095-1.422C0.044,55.962,0,55.055,0,55.055z M0,55.055
			c0,0,0.053,0.907,0.151,2.607c0.036,0.424,0.027,0.901,0.107,1.419c0.083,0.517,0.173,1.08,0.271,1.689
			c0.108,0.607,0.18,1.269,0.337,1.957c0.181,0.684,0.374,1.41,0.578,2.178c0.885,3.032,2.257,6.702,4.798,10.33
			c2.485,3.629,5.936,7.354,10.515,10.238c4.551,2.869,10.202,4.932,16.235,5.501c0.748,0.102,1.558,0.062,2.341,0.102l1.19,0.031
			l0.598,0.016l0.544-0.041c1.561-0.139,3.148-0.162,4.714-0.516c3.166-0.46,6.268-1.558,9.266-2.909
			c0.733-0.376,1.47-0.754,2.209-1.133c0.734-0.387,1.41-0.885,2.12-1.321l1.056-0.677l0.992-0.775
			c0.651-0.53,1.339-1.019,1.966-1.583c2.538-2.232,4.761-4.847,6.66-7.701c1.835-2.902,3.244-6.073,4.285-9.371l0.627-2.52
			l0.156-0.631l0.089-0.629l0.182-1.256c0.126-0.835,0.271-1.659,0.274-2.595l0.119-2.639c-0.081-3.472-0.522-6.937-1.509-10.261
			c-0.245-0.828-0.58-1.628-0.863-2.443c-0.154-0.402-0.28-0.817-0.456-1.211l-0.56-1.166c-0.39-0.767-0.679-1.588-1.146-2.311
			l-1.315-2.216c-1.916-2.845-4.16-5.439-6.707-7.663c-0.63-0.562-1.322-1.045-1.977-1.571l-0.997-0.77l-1.061-0.67
			c-0.713-0.433-1.392-0.926-2.128-1.308c-0.742-0.375-1.481-0.748-2.217-1.119c-2.996-1.331-6.145-2.414-9.261-2.847
			c-1.521-0.341-3.186-0.362-4.775-0.49l-0.556-0.034l-0.584,0.019l-1.164,0.038c-0.772,0.043-1.549,0.008-2.306,0.113
			c-6.097,0.614-11.688,2.709-16.236,5.609c-4.562,2.914-7.986,6.663-10.449,10.308c-2.519,3.643-3.866,7.323-4.732,10.36
			c-0.199,0.769-0.387,1.496-0.563,2.181c-0.152,0.69-0.221,1.352-0.325,1.959c-0.094,0.61-0.181,1.175-0.26,1.691
			c-0.076,0.518-0.065,0.996-0.098,1.42C0.047,54.147,0,55.055,0,55.055z"/>
	</g>
	
		<line fill="none" stroke="#B55231" stroke-width="6.0242" stroke-linecap="square" stroke-miterlimit="10" x1="31.426" y1="68.835" x2="58.464" y2="68.749"/>
	
		<line fill="none" stroke="#D6562A" stroke-width="6.0242" stroke-linecap="square" stroke-miterlimit="10" x1="31.401" y1="60.831" x2="61.723" y2="60.735"/>
	
		<line fill="none" stroke="#EF9A35" stroke-width="6.0242" stroke-linecap="square" stroke-miterlimit="10" x1="31.376" y1="52.827" x2="58.414" y2="52.742"/>
	
		<line fill="none" stroke="#F0E7E2" stroke-width="7.2291" stroke-linecap="square" stroke-miterlimit="10" x1="25.669" y1="3.769" x2="22.298" y2="80.983"/>
	<g>
		
			<rect x="28.331" y="41.775" transform="matrix(1 -0.0031 0.0031 1 -0.1328 0.134)" fill="#F2BA37" width="28.648" height="1.282"/>
		<rect x="28.339" y="44.263" transform="matrix(1 -0.0031 0.0031 1 -0.1405 0.134)" fill="#F2BA37" width="28.648" height="1.18"/>
		<rect x="28.347" y="46.647" fill="#F2BA37" width="28.648" height="1.152"/>
	</g>
	<g>
		
			<rect x="28.432" y="73.791" transform="matrix(1 -0.0031 0.0031 1 -0.2331 0.1345)" fill="#824837" width="28.648" height="1.216"/>
		<rect x="28.447" y="78.597" fill="#824837" width="28.648" height="1.219"/>
		<rect x="28.44" y="76.211" transform="matrix(1 -0.0032 0.0032 1 -0.2433 0.136)" fill="#824837" width="28.648" height="1.18"/>
	</g>
</g>
</svg>
