<?xml version="1.0" encoding="utf-8"?>
<!-- Generator: Adobe Illustrator 16.0.0, SVG Export Plug-In . SVG Version: 6.00 Build 0)  -->
<!DOCTYPE svg PUBLIC "-//W3C//DTD SVG 1.1//EN" "http://www.w3.org/Graphics/SVG/1.1/DTD/svg11.dtd">
<svg version="1.1" id="Layer_1" xmlns="http://www.w3.org/2000/svg" xmlns:xlink="http://www.w3.org/1999/xlink" x="0px" y="0px"
	 width="220px" height="220px" viewBox="0 0 220 220" enable-background="new 0 0 220 220" xml:space="preserve">
<g id="Background">
</g>
<g>
	<path fill="#254D46" d="M220,193.171C220,207.927,207.928,220,193.171,220H26.829C12.073,220,0,207.927,0,193.171V26.829
		C0,12.073,12.073,0,26.829,0h166.342C207.928,0,220,12.073,220,26.829V193.171z"/>
</g>
<g>
	<circle fill="#C3848E" cx="75.251" cy="56.964" r="44.311"/>
	<g>
		<path fill="#8A5F65" d="M39.252,41.382c0,0-0.14,0.45-0.402,1.293c-0.131,0.422-0.293,0.942-0.482,1.553
			c-0.092,0.307-0.205,0.633-0.299,0.987c-0.076,0.356-0.156,0.736-0.241,1.136c-0.169,0.795-0.355,1.676-0.559,2.635
			c-0.11,0.975-0.23,2.029-0.358,3.156c-0.029,0.281-0.073,0.565-0.092,0.855c-0.004,0.292-0.007,0.588-0.01,0.889
			c-0.008,0.6-0.015,1.216-0.022,1.85c-0.005,0.315-0.009,0.635-0.014,0.959l-0.006,0.243l0.017,0.211l0.041,0.502
			c0.055,0.673,0.111,1.362,0.168,2.065c0.029,0.352,0.058,0.707,0.087,1.066c0.036,0.356,0.122,0.693,0.181,1.046
			c0.13,0.697,0.263,1.407,0.396,2.129c0.102,0.723,0.349,1.445,0.547,2.183c0.209,0.735,0.422,1.481,0.637,2.238
			c0.287,0.732,0.579,1.474,0.873,2.225c0.146,0.375,0.295,0.752,0.443,1.131c0.184,0.364,0.369,0.729,0.555,1.097
			c0.371,0.734,0.746,1.477,1.124,2.226c0.445,0.711,0.896,1.429,1.349,2.153c0.232,0.358,0.441,0.733,0.693,1.082l0.791,1.026
			c0.543,0.675,1.028,1.404,1.625,2.047c0.598,0.641,1.2,1.285,1.806,1.933c0.583,0.668,1.301,1.208,1.948,1.823l0.996,0.899
			c0.337,0.296,0.716,0.542,1.072,0.815c0.729,0.527,1.436,1.09,2.185,1.593c1.552,0.926,3.075,1.915,4.749,2.627
			c1.598,0.867,3.346,1.384,5.029,2.033c1.754,0.429,3.471,1.002,5.252,1.196l1.321,0.209c0.438,0.078,0.878,0.141,1.322,0.147
			c0.885,0.057,1.765,0.114,2.64,0.17l0.61,0.042l0.677-0.015l1.349-0.029c0.918,0.009,1.718-0.123,2.565-0.186
			c3.365-0.367,6.625-1.143,9.564-2.241c2.938-1.114,5.621-2.468,7.923-4c2.285-1.55,4.285-3.14,5.902-4.724
			c0.829-0.771,1.513-1.584,2.206-2.283c0.629-0.757,1.207-1.453,1.729-2.081c0.485-0.66,0.918-1.25,1.295-1.763
			c0.382-0.512,0.648-0.985,0.895-1.351c0.478-0.743,0.732-1.139,0.732-1.139s-0.207,0.423-0.597,1.216
			c-0.366,0.809-0.997,1.944-1.858,3.365c-0.469,0.687-0.986,1.448-1.551,2.275c-0.627,0.78-1.276,1.658-2.059,2.518
			c-1.526,1.758-3.456,3.565-5.749,5.312c-4.587,3.471-10.893,6.444-18.161,7.402c-0.908,0.095-1.869,0.257-2.745,0.271
			l-1.347,0.065l-0.678,0.033l-0.747-0.023c-0.938-0.035-1.882-0.071-2.83-0.106c-0.476-0.005-0.948-0.067-1.419-0.146l-1.42-0.209
			c-1.913-0.199-3.765-0.786-5.652-1.238c-1.818-0.674-3.702-1.221-5.43-2.139c-1.791-0.786-3.425-1.857-5.079-2.872
			c-0.8-0.547-1.556-1.156-2.332-1.729c-0.38-0.298-0.782-0.567-1.141-0.887l-1.062-0.973c-2.898-2.518-5.224-5.544-7.146-8.623
			c-0.461-0.784-0.918-1.562-1.372-2.332c-0.373-0.812-0.743-1.615-1.109-2.41c-0.179-0.398-0.357-0.794-0.534-1.188
			c-0.141-0.409-0.28-0.815-0.419-1.219c-0.275-0.807-0.548-1.604-0.815-2.391c-0.193-0.808-0.383-1.604-0.569-2.39
			c-0.175-0.788-0.4-1.545-0.461-2.34c-0.095-0.782-0.188-1.55-0.28-2.304c-0.039-0.375-0.104-0.752-0.119-1.113
			c-0.007-0.36-0.014-0.717-0.021-1.069c-0.015-0.706-0.028-1.397-0.041-2.072l-0.01-0.503l-0.004-0.287l0.021-0.252
			c0.029-0.335,0.059-0.666,0.087-0.992c0.059-0.651,0.116-1.286,0.172-1.903c0.028-0.308,0.056-0.611,0.083-0.91
			c0.042-0.297,0.11-0.586,0.162-0.873c0.227-1.139,0.438-2.205,0.633-3.19c0.301-0.96,0.577-1.843,0.826-2.639
			c0.125-0.396,0.242-0.77,0.354-1.122c0.131-0.343,0.282-0.653,0.408-0.947c0.258-0.586,0.479-1.084,0.656-1.488
			C39.062,41.813,39.252,41.382,39.252,41.382z"/>
	</g>
	<ellipse fill="#F6B8C0" cx="79.239" cy="49.541" rx="35.226" ry="33.566"/>
	<path fill="#FFFFFF" d="M103.388,39.9c0-10.035-8.538-18.171-19.072-18.171c-10.528,0-19.066,8.136-19.066,18.171
		c0,10.033,8.538,18.17,19.066,18.17C94.85,58.07,103.388,49.934,103.388,39.9z"/>
	<path fill="#D4D1CE" d="M99.79,98.782c0,0,66.469,82.202,68.462,84.862c1.996,2.657,7.061,5.065,9.973,2.215
		c1.996-1.953,2.437-4.873,0-7.977c-2.438-3.103-68.996-86.411-68.996-86.411s-2.756,2.419-3.931,3.422
		C104.203,95.83,99.79,98.782,99.79,98.782z"/>
	<path fill="#B5B3B1" d="M106.239,96.348c0,0,49.443,61.361,65.337,81.536c2.128,2.698,0,7.089-3.324,3.324
		c-16.802-19.044-65.581-82.426-65.581-82.426s1.376-0.809,1.801-1.099C104.939,97.364,106.239,96.348,106.239,96.348z"/>
</g>
<g id="Guides" display="none">
</g>
</svg>
