<?xml version="1.0" encoding="utf-8"?>
<!-- Generator: Adobe Illustrator 16.0.0, SVG Export Plug-In . SVG Version: 6.00 Build 0)  -->
<!DOCTYPE svg PUBLIC "-//W3C//DTD SVG 1.1//EN" "http://www.w3.org/Graphics/SVG/1.1/DTD/svg11.dtd">
<svg version="1.1" xmlns="http://www.w3.org/2000/svg" xmlns:xlink="http://www.w3.org/1999/xlink" x="0px" y="0px" width="220px"
	 height="220px" viewBox="0 0 220 220" enable-background="new 0 0 220 220" xml:space="preserve">
<g id="Background">
</g>
<g id="Layer_1">
	<g>
		<g>
			<path fill-rule="evenodd" clip-rule="evenodd" fill="#04A8BD" d="M220,193.171C220,207.927,207.927,220,193.171,220H26.829
				C12.073,220,0,207.927,0,193.171V26.829C0,12.073,12.073,0,26.829,0h166.342C207.927,0,220,12.073,220,26.829V193.171z"/>
		</g>
		<linearGradient id="SVGID_2_" gradientUnits="userSpaceOnUse" x1="199.459" y1="108.5049" x2="16.6406" y2="108.5049">
			<stop  offset="0" style="stop-color:#F6B8C0"/>
			<stop  offset="1" style="stop-color:#C3848E"/>
		</linearGradient>
		<polygon fill="url(#SVGID_2_)" points="184.281,79.464 107.06,82.272 27.201,77.925 16.641,83.425 30.948,104.077 90.121,139.085 
			138.299,139.085 191.979,94.231 199.459,81.626 		"/>
		<g>
			<g>
				<g>
					<path fill="#D7D6D4" d="M109.493,124.079c0.022-2.516-1.397-2.314-2.637-2.816c-1.241-0.504-6.265-0.268-8.209-0.535
						c-1.943-0.27-4.926,0.736-5.027,1.307c-0.1,0.57,0.234,4.656,0.234,4.656s-0.334-2.244-0.501-3.215
						c-0.168-0.973-1.106-2.949-2.146-3.486c-1.038-0.535-7.203-1.273-9.748-1.752c-2.548-0.477-2.046,0.781-2.078,1.551
						c-0.035,0.771,0.235,3.348,0.235,3.348s-0.271-1.336-0.437-2.377c-0.167-1.037-0.872-3.416-1.51-4.053
						c-0.634-0.635-8.542-2.98-9.11-2.85c-0.571,0.135-1.644,1.475-1.71,1.846c-0.067,0.369,0.465,4.02,0.465,4.02
						s-0.331-0.469-0.5-1.484c-0.166-1.014-0.703-3.039-1.373-3.541s-2.013-1.396-3.52-1.865c-1.51-0.471-6.131-0.104-6.934,0.357
						l-0.805,3.484l10.274,7.951l38.143,5.217l6.96-0.736C109.561,129.104,109.467,126.591,109.493,124.079z"/>
				</g>
				<g>
					<path fill="#D7D6D4" d="M164.063,113.188c-0.803-0.461-5.425-0.828-6.934-0.357c-1.507,0.469-2.85,1.363-3.521,1.865
						c-0.67,0.502-1.206,2.527-1.375,3.541c-0.166,1.016-0.498,1.484-0.498,1.484s0.533-3.65,0.466-4.02
						c-0.065-0.371-1.138-1.711-1.708-1.846c-0.571-0.131-8.478,2.215-9.115,2.85c-0.636,0.637-1.34,3.016-1.507,4.053
						c-0.169,1.041-0.435,2.377-0.435,2.377s0.266-2.576,0.233-3.348c-0.034-0.77,0.469-2.027-2.076-1.551
						c-2.549,0.479-8.714,1.217-9.752,1.752c-1.038,0.537-1.977,2.514-2.146,3.486c-0.167,0.971-0.502,3.215-0.502,3.215
						s0.335-4.086,0.235-4.656c-0.101-0.57-3.083-1.576-5.025-1.307c-1.944,0.268-6.97,0.031-8.21,0.535
						c-1.241,0.502-2.659,0.301-2.635,2.816c0.021,2.512,0,5.025,0,5.025l6.89,0.736l38.142-5.217l10.275-7.951L164.063,113.188z"/>
				</g>
			</g>
		</g>
		<path fill="#F2F1EF" d="M86.79,120.56c-0.823-3.016-1.208-11.393-0.562-16.217c0.643-4.826,1.263-11.043,4.503-12.045
			c3.239-1.002,10.809-0.342,12.188,1.832c1.378,2.17,2.992,6.281,3.477,10.57c0.483,4.289,0.645,16.084,0,16.977
			c-0.646,0.895-5.81,1.609-9.198,1.43C93.81,122.929,87.023,121.409,86.79,120.56z"/>
		<path fill="#F2F1EF" d="M67.318,98.177c0.057,3.496,0.086,12.637,0.224,13.916c0.179,1.654,0.38,2.102,1.318,2.57
			s5.36,2.01,8.108,2.277c2.747,0.268,6.432,0.068,7.506-0.467c1.071-0.537,1.105-5.096,1.138-7.307
			c0.035-2.211-0.066-8.912-1.541-12.598c-1.474-3.686-3.216-6.301-7.103-7.307C73.08,88.259,67.16,88.388,67.318,98.177z"/>
		<path fill="#F2F1EF" d="M61.922,87.858c1.885,3.098,3.788,6.432,4.391,9.381c0.604,2.949,0.872,9.381,0.671,10.789
			c-0.201,1.406-1.578,3.283-2.499,4.355c-0.918,1.07-3.197,2.344-5.275,2.615c-2.076,0.266-4.422-3.486-4.759-4.625
			c-0.335-1.141-2.275-8.242-2.612-12.6c-0.336-4.355-1.273-10.186,1.139-12.598S61.1,86.507,61.922,87.858z"/>
		<path fill="#F2F1EF" d="M40.178,85.444c-1.425,0.143-0.671,7.104-0.335,9.248c0.335,2.145,3.081,10.186,4.021,11.527
			c0.937,1.338,1.836,2.895,4.2,1.982c2.365-0.91,4.237-1.996,4.509-3.123c0.274-1.125-0.533-7.438-1.54-9.516
			c-1.004-2.076-1.339-4.557-3.686-7.104C45.004,85.913,40.848,85.378,40.178,85.444z"/>
		<path fill="#F2F1EF" d="M31.13,84.386c-0.132,1.326-0.335,5.48,0,6.955c0.337,1.475,0.807,4.088,1.275,5.16
			c0.47,1.072,7.576,7.744,8.51,7.572c0.933-0.172,1.743-1.094,1.943-1.117c0.201-0.021-2.183-6.01-2.767-7.137
			c-0.585-1.127-0.853-3.271-1.456-4.746s-1.473-3.553-2.48-4.221c-1.003-0.67-1.875-1.945-3.148-2.145
			C31.733,84.507,31.13,84.386,31.13,84.386z"/>
		<path fill="#F2F1EF" d="M151.802,98.177c-0.057,3.496-0.086,12.637-0.226,13.916c-0.179,1.654-0.378,2.102-1.316,2.57
			s-5.36,2.01-8.108,2.277c-2.747,0.268-6.434,0.068-7.506-0.467c-1.073-0.537-1.105-5.096-1.14-7.307
			c-0.033-2.211,0.066-8.912,1.541-12.598c1.476-3.686,3.218-6.301,7.104-7.307C146.039,88.259,151.96,88.388,151.802,98.177z"/>
		<path fill="#F2F1EF" d="M157.198,87.858c-1.887,3.098-3.789,6.432-4.391,9.381c-0.604,2.949-0.872,9.381-0.671,10.789
			c0.199,1.406,1.58,3.283,2.498,4.355c0.921,1.07,3.198,2.344,5.274,2.615c2.076,0.266,4.424-3.486,4.759-4.625
			c0.336-1.141,2.277-8.242,2.613-12.6c0.336-4.355,1.273-10.186-1.139-12.598C163.729,82.765,158.021,86.507,157.198,87.858z"/>
		<path fill="#F2F1EF" d="M178.94,85.444c1.425,0.143,0.673,7.104,0.336,9.248c-0.336,2.145-3.082,10.186-4.021,11.527
			c-0.938,1.338-1.836,2.895-4.201,1.982c-2.366-0.91-4.238-1.996-4.51-3.123c-0.273-1.125,0.533-7.438,1.542-9.516
			c1.004-2.076,1.339-4.557,3.684-7.104C174.114,85.913,178.272,85.378,178.94,85.444z"/>
		<path fill="#F2F1EF" d="M187.99,84.386c0.132,1.326,0.333,5.48,0,6.955c-0.337,1.475-0.807,4.088-1.275,5.16
			c-0.47,1.072-7.578,7.744-8.512,7.572c-0.932-0.172-1.74-1.094-1.943-1.117c-0.201-0.021,2.185-6.01,2.769-7.137
			c0.585-1.127,0.851-3.271,1.456-4.746c0.6-1.475,1.473-3.553,2.477-4.221c1.007-0.67,1.877-1.945,3.15-2.145
			C187.385,84.507,187.99,84.386,187.99,84.386z"/>
		<g>
			<path fill="#CF6267" d="M202.636,81.647c-2.68-0.178-4.647,0.715-4.647,0.715c-2.68,4.824-10.188,13.58-18.762,20.371
				c-8.579,6.793-20.016,12.867-30.202,16.799c-10.186,3.932-30.87,8.936-39.092,8.758c-8.221,0.178-28.771-4.826-38.957-8.758
				c-10.187-3.932-21.623-10.006-30.202-16.799c-8.576-6.791-16.082-15.547-18.763-20.371c0,0-1.967-0.893-4.646-0.715
				c-2.681,0.18-4.111,0,0,8.4c4.11,8.396,33.597,39.49,46.642,50.393c13.044,10.9,38.599,13.58,45.927,13.76
				c7.327-0.18,33.016-2.859,46.062-13.76c13.044-10.902,42.531-41.996,46.641-50.393C206.745,81.647,205.316,81.827,202.636,81.647
				z"/>
			<path fill="#B25857" d="M202.636,81.647l-1.184,0.026l-0.593,0.013c-0.196,0.011-0.389,0.062-0.584,0.091l-0.582,0.102
				c-0.194,0.036-0.391,0.059-0.578,0.125c-0.376,0.118-0.761,0.21-1.122,0.369l0.005-0.005c-2.17,3.693-4.934,6.993-7.797,10.163
				c-2.876,3.169-5.982,6.126-9.262,8.874c-1.614,1.409-3.355,2.659-5.058,3.949c-1.771,1.203-3.514,2.452-5.349,3.555
				c-3.615,2.292-7.376,4.35-11.215,6.241c-3.832,1.909-7.763,3.617-11.78,5.11c-1.008,0.357-2.006,0.739-3.021,1.078l-3.065,0.969
				c-2.037,0.678-4.113,1.193-6.17,1.794c-2.063,0.571-4.148,1.059-6.223,1.593c-2.09,0.469-4.179,0.946-6.277,1.376l-3.163,0.582
				l-1.583,0.287l-1.598,0.214c-1.068,0.13-2.126,0.313-3.202,0.398l-3.246,0.167l-3.212-0.119
				c-1.068-0.052-2.146-0.238-3.219-0.351c-2.166-0.213-4.251-0.666-6.375-1.005c-2.108-0.398-4.203-0.859-6.302-1.299
				c-2.083-0.51-4.177-0.977-6.25-1.522c-2.065-0.578-4.154-1.07-6.201-1.726l-3.082-0.934c-1.023-0.328-2.036-0.701-3.055-1.049
				l-1.526-0.531l-1.501-0.597c-0.992-0.405-1.989-0.772-2.977-1.208c-1.979-0.858-3.954-1.724-5.88-2.675
				c-3.874-1.867-7.671-3.902-11.33-6.177c-1.857-1.093-3.614-2.348-5.405-3.549c-1.711-1.282-3.517-2.57-5.124-3.96
				c-3.302-2.737-6.482-5.735-9.386-8.905c-2.909-3.193-5.704-6.481-7.972-10.297l0.431,0.397c-0.5-0.185-1.142-0.387-1.747-0.463
				c-0.308-0.039-0.611-0.133-0.923-0.132l-0.934-0.014c-0.58-0.034-1.366,0.025-1.866,0.106c-0.256,0.045-0.366,0.128-0.366,0.128
				c-0.002-0.04-0.03,0.105-0.04,0.311c0.073,1,0.601,2.331,1.117,3.523c0.267,0.609,0.543,1.22,0.834,1.826l0.438,0.91l0.085,0.177
				l0.129,0.221l0.256,0.441c0.655,1.227,1.446,2.229,2.182,3.315c0.823,1.065,1.621,2.148,2.474,3.198
				c1.699,2.104,3.434,4.188,5.203,6.246c3.542,4.114,7.215,8.126,10.926,12.098c3.713,3.972,7.498,7.878,11.346,11.718
				c3.852,3.833,7.752,7.627,11.809,11.214c3.981,3.647,8.575,6.397,13.561,8.452c4.98,2.047,10.203,3.533,15.492,4.68
				c5.292,1.142,10.676,1.929,16.071,2.335c0.675,0.058,1.347,0.081,2.02,0.114c0.602,0.017,1.342-0.03,2-0.054
				c1.343-0.07,2.692-0.18,4.044-0.297c2.698-0.265,5.39-0.61,8.069-1.036c5.356-0.864,10.664-2.073,15.82-3.75
				c5.138-1.689,10.195-3.832,14.569-7.025l1.626-1.209l1.552-1.322c1.047-0.874,2.048-1.791,3.062-2.697
				c2.019-1.82,4.011-3.679,5.972-5.566c3.927-3.772,7.768-7.635,11.544-11.559c3.774-3.926,7.507-7.893,11.143-11.948
				c3.624-4.063,7.207-8.173,10.493-12.515c0.427-0.532,0.796-1.104,1.189-1.659c0.383-0.562,0.799-1.104,1.119-1.705
				c0.715-1.157,1.293-2.394,1.851-3.635c0.545-1.244,1.096-2.501,1.383-3.832c0.056-0.335,0.092-0.675,0.053-1.013
				c-0.061-0.333-0.235-0.648-0.541-0.814C204.014,81.69,203.308,81.705,202.636,81.647z M202.636,81.647
				c0.673,0.055,1.378,0.036,2.005,0.326c0.309,0.165,0.489,0.485,0.551,0.82c0.041,0.341,0.007,0.683-0.048,1.019
				c-0.28,1.338-0.826,2.598-1.366,3.846c-0.552,1.246-1.123,2.482-1.835,3.649c-0.319,0.604-0.731,1.148-1.112,1.714
				c-0.392,0.558-0.759,1.133-1.183,1.667c-3.268,4.362-6.832,8.491-10.438,12.574c-3.617,4.075-7.332,8.062-11.089,12.009
				c-3.753,3.95-7.595,7.815-11.482,11.635c-1.939,1.915-3.907,3.799-5.91,5.652c-1.006,0.922-2.002,1.857-3.035,2.742l-1.541,1.348
				l-1.637,1.249c-4.405,3.302-9.49,5.528-14.653,7.301c-5.184,1.757-10.516,3.042-15.901,3.981
				c-2.694,0.464-5.403,0.846-8.123,1.147c-1.36,0.136-2.724,0.265-4.102,0.353c-0.701,0.033-1.322,0.088-2.081,0.08
				c-0.688-0.024-1.377-0.041-2.061-0.09c-5.473-0.343-10.905-1.067-16.276-2.154c-5.367-1.093-10.685-2.53-15.812-4.562
				c-1.266-0.547-2.541-1.076-3.785-1.676l-1.847-0.951l-0.921-0.481l-0.899-0.552l-1.793-1.112
				c-0.576-0.387-1.098-0.812-1.65-1.215l-0.816-0.612l-0.204-0.154l-0.135-0.102l-0.098-0.084l-0.391-0.336l-1.561-1.341
				c-4.124-3.61-8.056-7.398-11.944-11.23c-3.884-3.836-7.7-7.736-11.447-11.705c-3.746-3.97-7.452-7.978-11.039-12.103
				c-1.786-2.069-3.568-4.146-5.271-6.297c-0.859-1.068-1.673-2.183-2.51-3.276c-0.79-1.169-1.663-2.333-2.287-3.519l-0.255-0.442
				l-0.127-0.222l-0.139-0.282l-0.443-0.933c-0.295-0.623-0.577-1.255-0.854-1.895c-0.274-0.64-0.532-1.295-0.768-1.974
				c-0.213-0.701-0.449-1.381-0.485-2.28c0.023-0.459,0.035-1.052,0.524-1.604c0.472-0.504,1.034-0.649,1.441-0.731
				c0.845-0.125,1.425-0.154,2.205-0.129l1.109,0.026c0.37,0.005,0.729,0.107,1.095,0.159c0.743,0.112,1.415,0.309,2.184,0.609
				l0.257,0.101l0.175,0.297c2.089,3.557,4.836,6.853,7.667,9.982c2.86,3.15,5.904,6.05,9.17,8.787
				c1.623,1.416,3.302,2.615,5.004,3.907c1.753,1.192,3.48,2.422,5.295,3.525c3.577,2.287,7.304,4.346,11.11,6.239
				c1.897,0.967,3.828,1.842,5.763,2.71c0.963,0.44,1.969,0.826,2.951,1.241l1.472,0.607l1.496,0.541
				c1.001,0.356,1.991,0.735,3,1.072l3.044,0.965c2.02,0.674,4.092,1.19,6.137,1.79c2.054,0.569,4.13,1.059,6.195,1.592
				c2.08,0.463,4.157,0.948,6.246,1.37c2.093,0.361,4.189,0.842,6.281,1.072c1.051,0.123,2.085,0.321,3.15,0.386l3.196,0.159
				l3.162-0.123c1.056-0.07,2.111-0.24,3.167-0.355l1.584-0.191l1.576-0.266l3.152-0.539c2.095-0.401,4.183-0.852,6.271-1.292
				c2.074-0.506,4.16-0.966,6.225-1.511c2.056-0.572,4.141-1.062,6.171-1.71l3.063-0.926c1.017-0.325,2.021-0.694,3.033-1.039
				c4.021-1.423,7.956-3.111,11.787-5c3.84-1.869,7.604-3.905,11.224-6.174c1.838-1.094,3.579-2.329,5.353-3.52
				c1.711-1.284,3.453-2.521,5.07-3.919c3.287-2.728,6.405-5.667,9.293-8.818c2.877-3.152,5.655-6.437,7.842-10.116l0.002-0.003
				l0.003-0.002c0.364-0.158,0.75-0.248,1.128-0.364c0.188-0.065,0.385-0.087,0.579-0.122l0.584-0.1
				c0.195-0.028,0.389-0.078,0.585-0.088l0.592-0.01L202.636,81.647z"/>
		</g>
		<path fill="#F2F1EF" d="M132.409,120.56c0.751-3.016,1.1-11.393,0.514-16.217c-0.588-4.826-1.151-11.043-4.101-12.045
			s-9.84-0.342-11.095,1.832c-1.255,2.17-2.723,6.281-3.162,10.57c-0.442,4.289-0.588,16.084,0,16.977
			c0.586,0.895,5.285,1.609,8.37,1.43C126.021,122.929,132.197,121.409,132.409,120.56z"/>
		<g>
			<path fill="#CF6267" d="M205.592,80.218c-0.538-1.072,0.328-1.611-1.612-1.965c-3.238-0.596-18.76-2.682-23.586-3.754
				c-4.825-1.072-27.52-4.645-36.276-4.645c-8.755,0-16.978,0-22.16,1.963c-5.182,1.967-10.006,2.605-12.33,2.697
				c-2.322-0.092-7.282-0.73-12.466-2.697c-5.184-1.963-13.403-1.963-22.158-1.963c-8.757,0-31.451,3.572-36.276,4.645
				c-4.826,1.072-20.348,3.158-23.59,3.754c-1.937,0.354-1.072,0.893-1.608,1.965c-0.534,1.072,0.92,3.713,1.608,4.469
				c0.688,0.754,7.182-1.074,7.182-1.074s-1.325-2.756-0.212-1.988c5.54,3.814,14.831,4.49,18.94,4.49
				c4.113,0,19.123,2.861,26.629,3.396c7.506,0.537,32.792,5.182,41.951,5.182c8.398,0,34.312-4.645,41.817-5.182
				c7.506-0.535,22.516-3.396,26.625-3.396c4.111,0,13.403-0.676,18.944-4.49c1.113-0.768-0.212,1.988-0.212,1.988
				s6.492,1.828,7.178,1.074C204.671,83.931,206.126,81.29,205.592,80.218z"/>
			<path fill="#B25857" d="M205.498,80.253c-0.101-0.229-0.187-0.48-0.218-0.759c-0.027-0.261-0.047-0.508-0.166-0.682
				c-0.315-0.312-0.868-0.387-1.352-0.476l-3.042-0.445L194.637,77c-4.059-0.586-8.098-1.312-12.161-1.9
				c-2.038-0.269-4.035-0.703-6.062-1.004c-2.015-0.329-4.041-0.621-6.069-0.908c-4.054-0.578-8.119-1.072-12.185-1.535
				c-2.035-0.195-4.069-0.421-6.104-0.586c-2.033-0.134-4.073-0.335-6.089-0.366c-2.006-0.104-4.078-0.036-6.116-0.021
				c-2.043,0.027-4.084,0.071-6.114,0.176c-1.014,0.06-2.031,0.098-3.034,0.206c-1.01,0.082-2.014,0.183-3.003,0.344
				c-1.002,0.119-1.972,0.323-2.943,0.526c-0.495,0.079-0.952,0.247-1.421,0.387l-1.455,0.452l-2.926,0.945
				c-0.972,0.319-2.041,0.504-3.057,0.76c-2.059,0.467-4.118,0.739-6.238,0.877l-0.038,0.003l-0.028-0.003
				c-1.184-0.104-2.375-0.178-3.527-0.397l-1.741-0.285l-1.712-0.417l-1.71-0.418c-0.563-0.164-1.115-0.368-1.673-0.551
				l-3.285-1.095c-1.105-0.409-2.176-0.57-3.261-0.826c-1.123-0.155-2.238-0.375-3.379-0.462c-2.27-0.245-4.565-0.356-6.864-0.432
				c-2.298-0.078-4.604-0.104-6.91-0.134c-2.274,0.025-4.611,0.084-6.883,0.293c-2.285,0.161-4.578,0.445-6.868,0.689
				c-2.289,0.266-4.576,0.567-6.862,0.866c-2.282,0.328-4.569,0.628-6.846,0.991c-2.281,0.341-4.551,0.75-6.818,1.154
				c-2.24,0.478-4.547,0.844-6.812,1.229l-6.825,1.156l-6.833,1.106l-3.417,0.55l-1.708,0.275l-0.428,0.069l-0.393,0.097
				c-0.159,0.029-0.258,0.075-0.335,0.115c-0.111,0.032-0.146,0.084-0.188,0.11c-0.04,0.022-0.07,0.219-0.1,0.558
				c-0.035,0.171-0.043,0.344-0.116,0.513l-0.095,0.253l-0.025,0.062c-0.024,0.06,0.021-0.044,0.013-0.024l-0.009,0.025
				l-0.035,0.103c-0.084,0.284,0.026,0.873,0.21,1.352c0.183,0.502,0.424,1.001,0.703,1.472c0.137,0.237,0.287,0.464,0.441,0.679
				c0.078,0.105,0.157,0.203,0.233,0.289c-0.207-0.176-0.044-0.041-0.084-0.077l0.023,0.014l0.047,0.026l0.095,0.054
				c0.036-0.003,0.041-0.029,0.056-0.028c0.006-0.002,0.012-0.001,0.018,0.003h0.09l0.183,0.003
				c0.119,0.005,0.262-0.017,0.392-0.022c0.266-0.021,0.543-0.06,0.817-0.103c0.552-0.084,1.108-0.203,1.663-0.322
				c1.108-0.25,2.223-0.539,3.313-0.852l-0.392,0.868c-0.22-0.458-0.415-0.896-0.584-1.402c-0.041-0.126-0.08-0.262-0.112-0.41
				c-0.019-0.166-0.09-0.297,0.009-0.69c0.059-0.137,0.11-0.255,0.245-0.361c0.135-0.115,0.406-0.188,0.501-0.173
				c0.174,0.009,0.403,0.084,0.447,0.122l0.35,0.196l1.246,0.699c0.416,0.228,0.827,0.496,1.253,0.632
				c1.651,0.705,3.436,1.27,5.263,1.666c3.666,0.821,7.377,1.122,11.207,1.16l1.426,0.077l1.453,0.153
				c0.976,0.102,1.938,0.216,2.878,0.348l5.672,0.788c3.769,0.544,7.534,1.106,11.294,1.537l5.671,0.552
				c1.891,0.164,3.806,0.477,5.709,0.709l11.323,1.614c3.771,0.521,7.535,1.073,11.301,1.548c3.765,0.488,7.538,0.88,11.252,1.008
				c1.807-0.099,3.801-0.133,5.63-0.367c1.864-0.188,3.729-0.374,5.62-0.634c3.768-0.462,7.535-1.009,11.305-1.543l11.333-1.533
				c3.779-0.514,7.629-0.868,11.402-1.183c3.743-0.385,7.533-0.903,11.305-1.402l5.675-0.735c0.945-0.125,1.896-0.23,2.851-0.322
				l1.431-0.142l1.457-0.069c3.81-0.009,7.576-0.281,11.288-1.087c1.853-0.39,3.658-0.973,5.389-1.727
				c0.451-0.152,0.845-0.415,1.257-0.642l1.229-0.698l0.324-0.185c0.03-0.027,0.156-0.066,0.254-0.079
				c0.051-0.007,0.145,0.03,0.203,0.068c0.058,0.04,0.074,0.1,0.103,0.155c0.068,0.369-0.044,0.564-0.105,0.812
				c-0.153,0.468-0.345,0.905-0.553,1.344l-0.107-0.239c0.979,0.276,1.968,0.531,2.96,0.756c0.993,0.218,1.995,0.438,2.997,0.513
				c0.249,0.021,0.503,0.024,0.736-0.005c0.257-0.014,0.366-0.12,0.537-0.348c0.299-0.393,0.562-0.833,0.793-1.279
				c0.23-0.449,0.434-0.914,0.575-1.395c0.139-0.473,0.236-0.998,0.055-1.427L205.498,80.253z M205.682,80.173
				c0.227,0.532,0.108,1.081-0.024,1.576c-0.143,0.501-0.345,0.979-0.575,1.441c-0.233,0.462-0.489,0.907-0.805,1.331
				c-0.093,0.11-0.13,0.201-0.276,0.3c-0.145,0.108-0.283,0.125-0.419,0.148c-0.271,0.037-0.533,0.034-0.793,0.017
				c-1.037-0.065-2.042-0.275-3.046-0.482c-1.003-0.216-1.996-0.46-2.987-0.727l-0.194-0.053l0.086-0.187
				c0.195-0.425,0.381-0.864,0.519-1.303c0.066-0.202,0.128-0.483,0.102-0.584c-0.01-0.01,0.029,0.034,0.049,0.025
				c-0.018,0.02-0.015-0.012-0.082,0.035l-0.295,0.171l-1.247,0.729c-0.419,0.237-0.821,0.511-1.276,0.671
				c-1.753,0.792-3.583,1.388-5.443,1.851c-3.713,0.924-7.582,1.314-11.385,1.432c-3.729,0.295-7.505,1.003-11.256,1.604
				c-3.766,0.62-7.509,1.257-11.332,1.771c-3.811,0.422-7.545,0.814-11.307,1.404l-11.29,1.745
				c-3.773,0.547-7.546,1.106-11.339,1.584c-1.883,0.265-3.81,0.464-5.735,0.663c-1.953,0.246-3.775,0.28-5.771,0.389
				c-3.904-0.119-7.717-0.51-11.51-0.988c-3.798-0.457-7.572-1.009-11.343-1.577l-11.294-1.702
				c-1.877-0.244-3.723-0.564-5.627-0.746l-5.7-0.601c-3.808-0.469-7.575-1.062-11.343-1.637l-5.639-0.859
				c-0.945-0.146-1.872-0.269-2.79-0.378l-1.386-0.169l-1.426-0.098c-3.782-0.09-7.706-0.451-11.467-1.36
				c-1.885-0.455-3.736-1.069-5.569-1.911c-0.479-0.177-0.864-0.443-1.278-0.681l-1.23-0.727l-0.269-0.16
				c-0.055-0.035,0.052,0.031,0.111,0.008c0.037,0.008,0.255-0.021,0.334-0.121c0.083-0.08,0.128-0.125,0.155-0.214
				c0.037-0.164,0.008-0.052,0.031,0.015c0.016,0.084,0.039,0.179,0.07,0.279c0.123,0.402,0.305,0.841,0.488,1.245l0.311,0.683
				l-0.702,0.186c-1.134,0.3-2.261,0.566-3.409,0.8c-0.575,0.111-1.15,0.221-1.742,0.299c-0.296,0.039-0.592,0.075-0.901,0.093
				c-0.158,0.005-0.303,0.024-0.472,0.016l-0.25-0.009l-0.127-0.006l-0.194-0.037c-0.126-0.029-0.267-0.071-0.367-0.114
				l-0.093-0.055l-0.047-0.028l-0.023-0.014c-0.055-0.045,0.091,0.083-0.13-0.105c-0.113-0.131-0.213-0.261-0.304-0.389
				c-0.179-0.257-0.342-0.515-0.488-0.78c-0.299-0.527-0.554-1.076-0.755-1.662c-0.176-0.598-0.402-1.189-0.176-2.031l0.149-0.392
				c0.053-0.095,0.053-0.218,0.083-0.327c0.046-0.221,0-0.654,0.353-1.074c0.173-0.17,0.362-0.299,0.534-0.35
				c0.186-0.082,0.356-0.138,0.483-0.157l0.449-0.101l0.429-0.061l1.714-0.244l3.429-0.487c2.283-0.335,4.574-0.624,6.852-1.003
				l6.834-1.109c2.288-0.375,4.542-0.715,6.821-1.184c2.277-0.397,4.558-0.769,6.839-1.127c2.277-0.385,4.564-0.705,6.847-1.055
				c2.288-0.32,4.575-0.644,6.867-0.932c2.297-0.266,4.584-0.57,6.901-0.757c2.321-0.264,4.6-0.374,6.938-0.454
				c2.309-0.023,4.619-0.051,6.935-0.025c2.314,0.022,4.636,0.079,6.961,0.279c1.162,0.062,2.323,0.262,3.487,0.398
				c1.168,0.241,2.39,0.423,3.463,0.796l3.307,1.021c0.543,0.164,1.078,0.35,1.625,0.496l1.662,0.366l1.66,0.366l1.679,0.247
				c1.119,0.206,2.234,0.264,3.351,0.357h-0.066c1.967-0.145,3.983-0.424,5.917-0.878c0.968-0.254,1.929-0.413,2.902-0.739
				l2.918-0.966l1.478-0.472c0.512-0.156,1.021-0.342,1.539-0.43c1.033-0.222,2.066-0.459,3.104-0.56
				c1.038-0.153,2.074-0.243,3.109-0.314c1.036-0.097,2.068-0.123,3.101-0.169c2.065-0.079,4.124-0.095,6.18-0.096
				c2.06,0.013,4.088-0.028,6.177,0.104c2.085,0.048,4.122,0.318,6.174,0.516c2.045,0.228,4.079,0.515,6.117,0.771
				c4.065,0.584,8.122,1.205,12.167,1.896c2.021,0.347,4.044,0.696,6.064,1.086c2.021,0.359,4.02,0.854,6.039,1.179
				c2.013,0.37,4.029,0.721,6.049,1.062s4.033,0.706,6.061,1.011l6.074,0.953l3.037,0.476c0.498,0.109,1.05,0.146,1.482,0.57
				c0.176,0.261,0.176,0.546,0.203,0.791c0.02,0.121,0.037,0.233,0.063,0.353l0.136,0.36L205.682,80.173z"/>
		</g>
		<path fill="none" stroke="#F2F2F2" stroke-linecap="round" stroke-miterlimit="10" stroke-dasharray="0,2" d="M86.887,120.56
			c-0.913-3.016-1.341-11.393-0.624-16.217c0.713-4.826,1.4-11.043,4.987-12.045c3.589-1.002,11.973-0.342,13.498,1.832
			c1.527,2.17,3.314,6.281,3.852,10.57c0.536,4.289,0.715,16.084,0,16.977c-0.715,0.895-6.436,1.609-10.188,1.43
			C94.66,122.929,87.143,121.409,86.887,120.56z"/>
		<path fill="none" stroke="#F2F2F2" stroke-linecap="round" stroke-miterlimit="10" stroke-dasharray="0,2" d="M132.233,120.56
			c0.915-3.016,1.339-11.393,0.626-16.217c-0.715-4.826-1.402-11.043-4.989-12.045c-3.589-1.002-11.975-0.342-13.499,1.832
			c-1.526,2.17-3.314,6.281-3.851,10.57s-0.717,16.084,0,16.977c0.716,0.895,6.436,1.609,10.186,1.43
			C124.46,122.929,131.976,121.409,132.233,120.56z"/>
	</g>
</g>
<g id="Guides" display="none">
</g>
</svg>
