<?xml version="1.0" encoding="utf-8"?>
<!-- Generator: Adobe Illustrator 16.0.0, SVG Export Plug-In . SVG Version: 6.00 Build 0)  -->
<!DOCTYPE svg PUBLIC "-//W3C//DTD SVG 1.1//EN" "http://www.w3.org/Graphics/SVG/1.1/DTD/svg11.dtd">
<svg version="1.1" id="Layer_1" xmlns="http://www.w3.org/2000/svg" xmlns:xlink="http://www.w3.org/1999/xlink" x="0px" y="0px"
	 width="220px" height="220px" viewBox="0 0 220 220" enable-background="new 0 0 220 220" xml:space="preserve">
<g id="Background">
</g>
<g>
	<path fill="#254D46" d="M220,193.169c0,14.756-12.072,26.83-26.829,26.83H26.829C12.073,220,0,207.925,0,193.169V26.829
		C0,12.073,12.073,0,26.829,0h166.342C207.928,0,220,12.073,220,26.829V193.169z"/>
</g>
<g>
	<path fill="#FFFFFF" d="M153.996,61.119c1.188-5.558,5.835-13.374,5.883-21.176c0.046-7.802-8.777-22.152-24.939-22.152
		c-15.693,0-19.086,5.293-25.65,7.383c-6.674-1.252-10.295-7.383-17.958-7.383c-8.638,0-11.763,3.632-16.845,2.939
		c-11.996-1.637-14.41,4.724-14.363,12.525c0.046,7.803,3.269,22.306,4.458,27.864c1.579,7.388,4.52,14.473,4.54,21.181
		c0.006,1.927-0.046,3.895-0.149,5.866c0,0.002,0,0.004,0,0.005c0.922,7.45,23.673,7.954,41.029,9.253
		c18.903,1.414,39.485,4.649,39.772,1.414c0.002-0.039,0.15-9.362,0.16-9.404c-0.301-2.394-0.484-4.795-0.479-7.14
		C149.477,75.589,152.419,68.505,153.996,61.119z"/>
	<path fill="#FFFFFF" d="M137.525,116.255c5.586-0.026,3.955-1.233,3.955-1.971c0-2.967-0.328-5.868,11.682-7.528
		c4.223-0.583,3.996-1.662,0.484-2.512c-4.642-1.128-9.139-2.239-15.64-2.702c-17.804-1.267-35.628-2.544-53.081-4.116
		c-9.498-0.856-14.896,0.449-18.818,2.133c-4.23,1.813,3.358,2.542,7.286,3.317c5.291,1.042,6.069,2.44,5.537,3.883
		c-1.272,3.458,4.754,5.031,16.785,5.811c11.76,0.765,23.052,2.038,34.562,3.081C132.659,115.867,135.084,116.052,137.525,116.255z"
		/>
	<path fill="#FFFFFF" d="M134.262,132.13c6.059,0.224,5.944-0.967,5.936-1.953c-0.031-2.641-0.084-5.178,10.186-6.747
		c4.197-0.642,3.459-1.679-0.123-2.513c-4.105-0.959-8.039-1.916-13.553-2.371c-16.449-1.346-32.959-2.668-49.047-4.289
		c-8.934-0.898-14.006,0.354-18.186,1.857c-5.027,1.801,2.14,2.622,6.122,3.393c7.311,1.416,5.564,3.438,5.452,5.263
		c-0.125,1.903,2.357,2.854,9.115,3.407C104.999,129.4,119.621,130.807,134.262,132.13z"/>
	<path fill="#FFFFFF" d="M84.865,130.171c-6.581-0.034-10.217,0.959-12.843,2.1c-2.773,1.2,1.408,1.896,4.353,2.434
		c5.144,0.943,7.126,2.183,6.313,3.771c-1.293,2.572,2.929,3.893,12.063,4.611c11.665,0.918,23.011,2.127,34.375,3.291
		c6.704,0.687,10.267,0.483,9.622-1.766c-0.598-2.059-0.184-4.039,7.762-5.309c4.035-0.641,3.727-1.684,0.317-2.559
		c-1.815-0.467-3.554-1.022-5.749-1.312C122.896,133.056,102.955,132.041,84.865,130.171z"/>
	<path fill="#FFFFFF" d="M110.117,187.146c8.426-5.686,12.105-10.732,15.451-15.787c1.113-1.67,2.865-3.02,8.416-3.947
		c7.611-1.271,6.947-2.609,0.058-3.945c-13.06-2.532-28.409-3.838-42.6-5.764c-4.539-0.615-7.828,0.282-10.354,1.184
		c-3.326,1.188-0.996,2.097,2.795,2.753c5.62,0.97,6.766,2.401,7.615,4.062C95.054,172.701,99.303,179.673,110.117,187.146z"/>
	<path fill="#FFFFFF" d="M74.272,146.125c0.347,1.176,3.278,1.643,5.72,2.154c3.4,0.721,5.329,1.551,5.742,2.764
		c0.522,1.529-1.238,3.465,4.873,4.354c11.97,1.744,24.347,3.308,36.819,4.783c3.717,0.44,4.207-0.663,4.254-1.356
		c0.198-2.293,1.781-4.304,9.951-5.648c5.453-0.9,3.635-2.079-0.681-2.957c-16.267-3.299-35.853-4.709-54.414-6.619
		C80.861,143.015,76.09,144.619,74.272,146.125z"/>
</g>
<g id="Guides" display="none">
</g>
</svg>
