<?xml version="1.0" encoding="utf-8"?>
<!-- Generator: Adobe Illustrator 16.0.0, SVG Export Plug-In . SVG Version: 6.00 Build 0)  -->
<!DOCTYPE svg PUBLIC "-//W3C//DTD SVG 1.1//EN" "http://www.w3.org/Graphics/SVG/1.1/DTD/svg11.dtd">
<svg version="1.1" id="Layer_1" xmlns="http://www.w3.org/2000/svg" xmlns:xlink="http://www.w3.org/1999/xlink" x="0px" y="0px"
	 width="220px" height="220px" viewBox="0 0 220 220" enable-background="new 0 0 220 220" xml:space="preserve">
<g id="Background">
</g>
<g>
	<path fill="#254D46" d="M220,193.172c0,14.756-12.072,26.829-26.829,26.829H26.829C12.073,220.001,0,207.928,0,193.172V26.829
		C0,12.073,12.073,0,26.829,0h166.342C207.928,0,220,12.073,220,26.829V193.172z"/>
</g>
<g>
	<path fill="#F2F2F2" d="M161.355,29.53c-3.615-5.255-11.146-8.162-16.242-7.146c-4.492,0.897-7.773,0.996-14.168-2.302
		c-9.275-4.783-20.242-2.644-26.826,0.64c-12.689,6.33-19.705,2.863-26.75,1.132c-5.842-1.433-10.307-1.548-16.562,3.282
		c-3.152,2.531-6.24,9-5.754,21.305c0.311,7.863,2.693,15.188,5.354,22.435c2.182,5.945,6.453,24.062,7.832,35.827
		c1.068,9.107,2.207,35.049,3.229,40.898c1.436,8.287,7.174,25.6,12.604,33.26c2.623,3.703,7.988,8.826,14.15,8.826
		c2.959,0,5.414-1.733,6.541-7.268c0.922-8.708-0.451-18.729-0.508-21.354c-0.174-8.088,1.387-23.971,2.727-29.26
		c1.008-3.986,3.254-14.697,4.229-14.531c1.441,0.248,2.828,19.226,2.971,20.633c0.725,7.273-0.002,18.676-0.156,20.367
		c-0.912,10.006-0.912,15.531-0.801,18.414c0.213,5.629,3.832,10.442,8.217,9.812c6.906-0.988,13.683-10.434,16.213-16.02
		c2.464-5.437,5.832-13.674,8.767-28.516c1.838-9.303,4.638-36.981,5.201-41.201c2.521-18.841,6.412-23.862,9.25-32.387
		C167.049,47.809,165.51,35.57,161.355,29.53z"/>
	<path fill="#FFFFFF" d="M96.633,31.985c8.328,0.865,15.471,5.19,29.678,4.917c14.203-0.273,22.041-8.191,25.951-8.196
		c14.75-0.015-0.928,33.322-3.553,45.485c-3.004,13.932-6.455,55.061-7.922,64.334c-3.447,21.818-9.412,45.152-19.348,45.979
		c-6.799,0.566,4.254-19.42,8.104-47.814c1.127-8.304,1.056-18.385-2.271-27.248c-1.354-3.606-13.531-4.52-17.273,8.33
		c-0.869,2.987-2.143,6.646-3.02,12.037c-1.391,8.551-2.959,25.871-2.727,29.26c0.359,5.182,1.105,15.971,0.508,21.354
		c-0.639,5.774-2.701,6.004-4.68,6.995c-3.822,1.918-14.477-15.564-16.936-26.766c-2.459-11.2-0.197-28.957,1.268-42.069
		c1.465-13.112,0.447-45.075,0-52.724c-0.447-7.648-3.924-24.86,0-28.683C88.338,33.351,90.91,31.39,96.633,31.985z"/>
	<path fill="#D1D2D3" fill-opacity="0.5" d="M69.594,28.706c1.865,2.492,8.951,1.777,12.756,0.821
		c3.803-0.957,11.725-2.733,16.098-2.87c4.369-0.136,16.633,2.983,20.76,3.32c5.978,0.488,9.287-2.301,5.465-4.208
		c-3.823-1.908-27.32,0.752-31.553,0.752c-4.234,0-9.254,0.145-14.582,0.658C74.678,27.551,68.062,26.659,69.594,28.706z"/>
	<g>
		<polygon fill="#D1D2D3" fill-opacity="0.5" points="109.721,118.718 109.721,118.719 109.721,118.716 		"/>
		<path fill="#D1D2D3" fill-opacity="0.5" d="M111.209,115.277c1.441,0.248,2.828,19.226,2.971,20.633
			c0.725,7.273-0.002,18.676-0.156,20.367c-0.912,10.006-0.912,15.531-0.801,18.414c0.062,1.677,0.432,3.279,1.029,4.69
			c5.137-2.284,8.152-9.825,9.326-13.813c1.365-4.646,5.463-23.221,6.281-28.139c0.82-4.918,0.82-20.488-1.639-26.227
			c-2.457-5.735-6.828-4.916-10.927-3.549c-3.235,1.077-4.771,3.868-6.313,7.751C111.062,115.312,111.139,115.266,111.209,115.277z"
			/>
	</g>
</g>
<path fill="#F2F2F2" d="M219.354,23.195c-31.201,0-31.201,0.173-31.201,31.201c0-31.027,0-31.201-31.202-31.201
	c31.18,0,31.202,0,31.202-31.203C188.15,23.195,188.15,23.195,219.354,23.195z"/>
<path fill="#F2F2F2" d="M80.678,191c-45.094,0-45.094,0.254-45.094,45.095c0-44.841,0-45.095-45.094-45.095
	c45.061,0,45.094,0,45.094-45.096C35.584,191,35.584,191,80.678,191z"/>
<g id="Guides" display="none">
</g>
</svg>
