<?xml version="1.0" encoding="utf-8"?>
<!-- Generator: Adobe Illustrator 16.0.0, SVG Export Plug-In . SVG Version: 6.00 Build 0)  -->
<!DOCTYPE svg PUBLIC "-//W3C//DTD SVG 1.1//EN" "http://www.w3.org/Graphics/SVG/1.1/DTD/svg11.dtd">
<svg version="1.1" xmlns="http://www.w3.org/2000/svg" xmlns:xlink="http://www.w3.org/1999/xlink" x="0px" y="0px" width="220px"
	 height="220px" viewBox="0 0 220 220" enable-background="new 0 0 220 220" xml:space="preserve">
<pattern  x="-2049.404" y="-171.72" width="72" height="72" patternUnits="userSpaceOnUse" id="_x31_0_lpi_10_x25_" viewBox="72.25 -72 72 72" overflow="visible">
	<g>
		<polygon fill="none" points="72.25,-72 144.25,-72 144.25,0 72.25,0 		"/>
		<g>
			<line fill="none" stroke="#04A8BD" stroke-width="0.72" x1="144" y1="-3.601" x2="216.5" y2="-3.601"/>
			<line fill="none" stroke="#04A8BD" stroke-width="0.72" x1="144" y1="-18" x2="216.5" y2="-18"/>
			<line fill="none" stroke="#04A8BD" stroke-width="0.72" x1="144" y1="-32.399" x2="216.5" y2="-32.399"/>
			<line fill="none" stroke="#04A8BD" stroke-width="0.72" x1="144" y1="-46.8" x2="216.5" y2="-46.8"/>
			<line fill="none" stroke="#04A8BD" stroke-width="0.72" x1="144" y1="-61.2" x2="216.5" y2="-61.2"/>
			<line fill="none" stroke="#04A8BD" stroke-width="0.72" x1="144" y1="-10.8" x2="216.5" y2="-10.8"/>
			<line fill="none" stroke="#04A8BD" stroke-width="0.72" x1="144" y1="-25.2" x2="216.5" y2="-25.2"/>
			<line fill="none" stroke="#04A8BD" stroke-width="0.72" x1="144" y1="-39.6" x2="216.5" y2="-39.6"/>
			<line fill="none" stroke="#04A8BD" stroke-width="0.72" x1="144" y1="-54" x2="216.5" y2="-54"/>
			<line fill="none" stroke="#04A8BD" stroke-width="0.72" x1="144" y1="-68.399" x2="216.5" y2="-68.399"/>
		</g>
		<g>
			<line fill="none" stroke="#04A8BD" stroke-width="0.72" x1="72" y1="-3.601" x2="144.5" y2="-3.601"/>
			<line fill="none" stroke="#04A8BD" stroke-width="0.72" x1="72" y1="-18" x2="144.5" y2="-18"/>
			<line fill="none" stroke="#04A8BD" stroke-width="0.72" x1="72" y1="-32.399" x2="144.5" y2="-32.399"/>
			<line fill="none" stroke="#04A8BD" stroke-width="0.72" x1="72" y1="-46.8" x2="144.5" y2="-46.8"/>
			<line fill="none" stroke="#04A8BD" stroke-width="0.72" x1="72" y1="-61.2" x2="144.5" y2="-61.2"/>
			<line fill="none" stroke="#04A8BD" stroke-width="0.72" x1="72" y1="-10.8" x2="144.5" y2="-10.8"/>
			<line fill="none" stroke="#04A8BD" stroke-width="0.72" x1="72" y1="-25.2" x2="144.5" y2="-25.2"/>
			<line fill="none" stroke="#04A8BD" stroke-width="0.72" x1="72" y1="-39.6" x2="144.5" y2="-39.6"/>
			<line fill="none" stroke="#04A8BD" stroke-width="0.72" x1="72" y1="-54" x2="144.5" y2="-54"/>
			<line fill="none" stroke="#04A8BD" stroke-width="0.72" x1="72" y1="-68.399" x2="144.5" y2="-68.399"/>
		</g>
		<g>
			<line fill="none" stroke="#04A8BD" stroke-width="0.72" x1="0" y1="-3.601" x2="72.5" y2="-3.601"/>
			<line fill="none" stroke="#04A8BD" stroke-width="0.72" x1="0" y1="-18" x2="72.5" y2="-18"/>
			<line fill="none" stroke="#04A8BD" stroke-width="0.72" x1="0" y1="-32.399" x2="72.5" y2="-32.399"/>
			<line fill="none" stroke="#04A8BD" stroke-width="0.72" x1="0" y1="-46.8" x2="72.5" y2="-46.8"/>
			<line fill="none" stroke="#04A8BD" stroke-width="0.72" x1="0" y1="-61.2" x2="72.5" y2="-61.2"/>
			<line fill="none" stroke="#04A8BD" stroke-width="0.72" x1="0" y1="-10.8" x2="72.5" y2="-10.8"/>
			<line fill="none" stroke="#04A8BD" stroke-width="0.72" x1="0" y1="-25.2" x2="72.5" y2="-25.2"/>
			<line fill="none" stroke="#04A8BD" stroke-width="0.72" x1="0" y1="-39.6" x2="72.5" y2="-39.6"/>
			<line fill="none" stroke="#04A8BD" stroke-width="0.72" x1="0" y1="-54" x2="72.5" y2="-54"/>
			<line fill="none" stroke="#04A8BD" stroke-width="0.72" x1="0" y1="-68.399" x2="72.5" y2="-68.399"/>
		</g>
	</g>
</pattern>
<g id="Background">
</g>
<g id="Layer_1">
	<g>
		<path fill-rule="evenodd" clip-rule="evenodd" fill="#04A8BD" d="M220,193.17C220,207.926,207.927,220,193.171,220H26.829
			C12.073,220,0,207.926,0,193.17V26.829C0,12.073,12.073,0,26.829,0h166.342C207.927,0,220,12.073,220,26.829V193.17z"/>
	</g>
	<g>
		<path fill="#F2F2F2" d="M158.181,56.226c1.291-6.039,6.339-14.529,6.391-23.005c0.049-8.476-9.536-24.065-27.093-24.065
			c-17.049,0-20.734,5.752-27.865,8.02c-7.25-1.36-11.184-8.02-19.507-8.02c-9.385,0-12.779,3.946-18.299,3.195
			c-13.032-1.778-15.655,5.129-15.604,13.604c0.05,8.477,3.551,24.232,4.843,30.271c1.716,8.023,4.91,15.72,4.933,23.007
			c0.025,8.23-0.905,17.149-2.511,24.213c-3.026,13.321-3.026,60.542,4.841,74.465c7.872,13.925,13.926,14.532,12.109,0
			c-1.815-14.529-1.815-45.406,6.66-59.936c8.477-14.529,16.043-18.397,22.535-18.562c6.492,0.166,14.059,4.033,22.535,18.562
			c8.476,14.53,8.476,45.407,6.66,59.936c-1.816,14.532,4.237,13.925,12.107,0c7.871-13.923,9.082-61.144,6.055-74.465
			c-1.608-7.066-3.748-15.984-3.724-24.217C153.271,71.945,156.467,64.249,158.181,56.226z"/>
		<path fill="#FFFFFF" d="M136.707,9.155c-17.048,0-20.735,5.752-27.866,8.02c-7.247-1.36-11.184-8.02-19.508-8.02
			c-9.384,0-12.778,3.946-18.298,3.195c-13.031-1.778-15.656,5.129-15.604,13.604c0.05,8.477,3.552,24.232,4.844,30.271
			c1.715,8.023,4.909,15.72,4.932,23.007c0.008,1.807-0.042,3.649-0.126,5.497l0.005,0.001c1.545-14.279,0.94-28.506-1.481-36.375
			c-2.42-7.871-2.119-8.779,0-14.227c2.119-5.45,4.238-3.635,8.477-4.542c4.237-0.908,4.237-6.053,9.082-3.633
			c4.842,2.423,19.338,9.688,27.679,9.688s12.882-7.264,18.936-8.777c6.054-1.515,20.888-1.515,24.217,4.54
			c3.328,6.054,4.237,16.362,2.725,23.619c-1.513,7.256-4.433,15.129-3.331,20.273c0.156,0.718,0.578,1.379,1.175,1.983
			c0.5-6.704,3.284-13.743,4.849-21.054c1.289-6.039,6.338-14.529,6.388-23.005C163.85,24.745,154.262,9.155,136.707,9.155z"/>
		<path opacity="0.5" fill="#04A8BD" d="M150.916,127.361c-0.303-13.017-6.198-23.41-9.686-31.784
			c-2.151-5.167-3.69-12.104-4.238-18.464c-0.512-5.935-3.396-11.917-11.672-11.908c-4.22,0.006-9.215,0.708-15.707,1.011
			c-6.492-0.303-14.445-2.725-18.488-3.937c-4.046-1.209-9.494-4.539-9.19,1.514c0.301,6.056,0.813,7.385,0.301,13.32
			C81.688,83.473,80.152,90.41,78,95.577c-3.49,8.375-9.386,18.767-9.688,31.784c-0.304,13.016-0.229,35.871,3.015,46.116
			c1.772,5.606,4.329,11.06,6.466,15.079c0.33,0.041,0.637,0.013,0.916-0.087c-1.705-3.924-3.699-9.042-4.513-13.474
			c-1.54-8.393-3.664-32.295-0.638-46.524c3.028-14.225,14.732-36.223,23.208-38.643c8.474-2.423,7.533-3.029,12.847-3.029
			c5.315,0,4.374,0.606,12.851,3.029c8.475,2.42,20.181,24.418,23.206,38.643c3.027,14.229,0.902,38.131-0.637,46.524
			c-0.813,4.432-2.807,9.55-4.513,13.474c0.28,0.101,0.585,0.128,0.913,0.087c2.138-4.019,4.693-9.472,6.467-15.079
			C151.145,163.231,151.219,140.376,150.916,127.361z"/>
		<g>
			<pattern  id="SVGID_2_" xlink:href="#_x31_0_lpi_10_x25_" patternTransform="matrix(0.4199 0 0 0.4199 -3134.96 -4026.7214)">
			</pattern>
			<path fill="url(#SVGID_2_)" d="M154.451,38.331c-1.719-5.4-3.336-8.744-3.42-13.284c-0.044-2.497,0.12-7.656,0.476-12.042
				c-1.031-0.623-2.124-1.182-3.271-1.674c-0.262,4.553-1.25,9.774-3.945,13.716c-3.937,5.754-3.667-2.852-9.402,0.996
				c-5.735,3.849-11.183,5.362-8.762,10.506c2.423,5.148,1.21,7.872,4.844,12.411c3.633,4.543,8.78,6.963,12.715,4.543
				C147.62,51.08,156.168,43.731,154.451,38.331z"/>
			<path fill="#04A8BD" d="M154.451,38.331c-0.665-2.048-1.41-4.067-2.082-6.113c-0.171-0.511-0.334-1.024-0.474-1.544
				c-0.153-0.516-0.294-1.037-0.401-1.565c-0.128-0.524-0.231-1.053-0.298-1.589l-0.119-0.8l-0.054-0.808
				c-0.046-0.538-0.069-1.08-0.048-1.617l0.018-1.614c0.011-1.076-0.001-2.153,0.026-3.229l0.295-6.461l0.092,0.181l-1.604-0.867
				l-1.66-0.755l0.33-0.204c-0.188,3.699-0.771,7.431-2.231,10.903l-0.597,1.279c-0.207,0.422-0.471,0.817-0.704,1.227
				c-0.24,0.416-0.498,0.805-0.791,1.177c-0.296,0.391-0.622,0.751-1.029,1.078c-0.39,0.313-0.992,0.612-1.618,0.469
				c-0.601-0.134-1.005-0.484-1.37-0.771c-0.716-0.604-1.384-1.138-2.167-1.225c-1.613-0.203-3.069,1.204-4.664,2.126
				c-1.574,0.991-3.205,1.862-4.686,2.891c-0.727,0.522-1.424,1.083-1.938,1.756c-0.509,0.672-0.763,1.47-0.678,2.296
				c0.066,0.827,0.438,1.627,0.792,2.5c0.17,0.431,0.357,0.847,0.514,1.29l0.419,1.364c0.507,1.814,0.734,3.647,1.372,5.329
				c0.621,1.689,1.623,3.21,2.82,4.601c1.199,1.34,2.584,2.581,4.18,3.443c1.572,0.888,3.405,1.387,5.202,1.15
				c1.812-0.243,3.311-1.449,4.791-2.516c1.468-1.112,2.847-2.344,4.123-3.674c1.267-1.334,2.446-2.774,3.322-4.398
				C154.396,42.038,154.964,40.138,154.451,38.331z M154.451,38.331c0.53,1.802-0.02,3.718-0.871,5.333
				c-0.864,1.639-2.035,3.094-3.293,4.445c-1.264,1.35-2.646,2.586-4.096,3.735c-0.727,0.567-1.471,1.135-2.246,1.631
				c-0.787,0.506-1.667,0.889-2.601,1.05c-1.877,0.294-3.806-0.185-5.453-1.064c-1.679-0.859-3.12-2.085-4.409-3.458
				c-1.241-1.372-2.348-2.955-3.042-4.718c-0.706-1.765-1.006-3.621-1.502-5.355l-0.404-1.28c-0.154-0.426-0.35-0.852-0.522-1.277
				c-0.342-0.831-0.783-1.726-0.879-2.749c-0.121-1.015,0.217-2.101,0.823-2.899c0.604-0.806,1.362-1.415,2.124-1.975
				c1.544-1.093,3.164-1.988,4.729-2.937c0.79-0.465,1.528-0.975,2.356-1.478c0.837-0.471,1.836-0.873,2.917-0.728
				c1.092,0.14,1.92,0.866,2.593,1.437c0.344,0.288,0.687,0.544,0.998,0.608c0.298,0.076,0.619-0.058,0.941-0.303
				c0.623-0.498,1.195-1.265,1.645-2.025c0.231-0.387,0.493-0.755,0.702-1.156l0.603-1.217c1.491-3.317,2.163-6.978,2.436-10.632
				l0.025-0.352l0.305,0.147l1.668,0.807l1.608,0.919l0.102,0.058l-0.009,0.123l-0.447,6.433c-0.055,1.075-0.068,2.152-0.104,3.228
				l-0.036,1.614c-0.025,0.54-0.008,1.072,0.032,1.608l0.046,0.804l0.111,0.797c0.061,0.534,0.159,1.062,0.282,1.585
				c0.102,0.528,0.236,1.048,0.386,1.565c0.135,0.521,0.292,1.035,0.458,1.546C153.078,34.25,153.806,36.277,154.451,38.331z"/>
		</g>
	</g>
</g>
<g id="Guides" display="none">
</g>
</svg>
