<?xml version="1.0" encoding="utf-8"?>
<!-- Generator: Adobe Illustrator 16.0.0, SVG Export Plug-In . SVG Version: 6.00 Build 0)  -->
<!DOCTYPE svg PUBLIC "-//W3C//DTD SVG 1.1//EN" "http://www.w3.org/Graphics/SVG/1.1/DTD/svg11.dtd">
<svg version="1.1" xmlns="http://www.w3.org/2000/svg" xmlns:xlink="http://www.w3.org/1999/xlink" x="0px" y="0px" width="220px"
	 height="219.998px" viewBox="0 0 220 219.998" enable-background="new 0 0 220 219.998" xml:space="preserve">
<g id="Background">
</g>
<g id="Layer_1">
	<g>
		<path fill-rule="evenodd" clip-rule="evenodd" fill="#04A8BD" d="M220,193.169c0,14.756-12.073,26.829-26.829,26.829H26.829
			C12.073,219.998,0,207.925,0,193.169V26.829C0,12.073,12.073,0,26.829,0h166.342C207.927,0,220,12.073,220,26.829V193.169z"/>
	</g>
	<g>
		<g>
			<g>
				<path fill-rule="evenodd" clip-rule="evenodd" fill="#A19D9C" d="M101.055,30.595l0.002-0.004
					c-0.061,0.037-0.119,0.07-0.178,0.104L101.055,30.595z"/>
				<path fill-rule="evenodd" clip-rule="evenodd" fill="#A19D9C" d="M100.879,30.694l-1.396,0.797
					C99.898,31.261,100.373,30.987,100.879,30.694z"/>
				<path fill-rule="evenodd" clip-rule="evenodd" fill="#A19D9C" d="M196.391-9.989h-31.746
					c-25.156,16.422-52.713,34.229-63.299,40.414c2.982,0.008,28.977,16.121,32.607,14.016c2.485-1.443,40.455-25.667,67.656-43.038
					c0.173-0.11-4.445-1.51-8.438-1.402c-2.308,0.062,15.495-3.105,18.032-4.726C207.145-8.013,201.988-9.989,196.391-9.989z"/>
				<path fill-rule="evenodd" clip-rule="evenodd" fill="#A19D9C" d="M101.057,30.591c0.098-0.057,0.186-0.107,0.289-0.166
					C101.168,30.425,101.061,30.474,101.057,30.591z"/>
			</g>
		</g>
		<path fill-rule="evenodd" clip-rule="evenodd" fill="#CFCCC8" d="M192.229-9.989c-3.527,2.508-8.146,5.771-12.26,8.613
			c-8.012,5.539-52.699,23.311-68.943,29.988c0,0,20.129,16.172,22.346,14.426s1.184-1.486,4.582-5.178
			c3.402-3.693,21.131-18.465,28.174-25.389c5.023-4.939,19.064-16.332,26.705-22.461H192.229z"/>
		<path fill-rule="evenodd" clip-rule="evenodd" fill="#A19D9C" d="M220,54.815c-35.625-1.629-75.908-3.271-84.504-3.469
			l13.08,28.139L220,82.376V54.815z"/>
		<path fill="#474A49" d="M103.479,69.272l-7.293,0.488l0.088,2.242c0,0-12.199,3.145-16.555,12.926
			c-4.941,11.078-7.854,16.461-6.883,30.77c0.465,6.895,10.828,23.664,9.791,25.475c1.395-0.656,2.189-1.016,2.465-1.816
			c0.324-0.924,0.17-2.691-0.963-7.617c-1.131-4.922-2.834-13.152-2.67-21s1.059-16.662,2.832-20.389
			c3.076-6.461,8.5-9.387,16.031-10.232c5.93-0.666,11.252-1.461,12.709-2.23S103.479,69.272,103.479,69.272z"/>
		<path fill="#8D8B89" d="M96.016,33.735C85.232,42.366,76.602,50.499,71.42,62.194c-5.18,11.693-6.355,33.207-5.605,39.693
			c2.529,21.814,14.463,40.395,16.494,39.586c2.031-0.811-4.789-18.674-5.293-26.08c-0.973-14.311-2.238-19.387,2.703-30.465
			c4.355-9.781,16.555-12.926,16.555-12.926"/>
		<path fill="#8D8B89" d="M147.762,76.89c-1.74-4.449-12.281-20.902-12.291-23c0.014-0.309,0.025-0.615,0.025-0.928
			c0-13.447-10.957-24.35-24.471-24.35c-13.512,0-24.469,10.902-24.469,24.35c0,11.904,8.588,21.809,19.936,23.926l-0.004,0.002
			c18.686,3.461,22.814,10.006,27.824,21.361c2.104,4.77,2.279,7.189,2.912,27.697c0.064,2.123-0.625,11.945,0.811,12.191
			c3.562,0.617,5.506-5.885,7.771-13.27C147.869,118.153,152.535,89.122,147.762,76.89z"/>
		<g>
			<g>
				<path fill="#535150" d="M219.949,54.864l-84.465-3.181l0.316-0.477l13.204,28.271l-0.373-0.249l35.695,1.309
					c5.948,0.219,11.897,0.458,17.844,0.743l17.842,0.809l-0.338,0.325l0.093-13.799L219.949,54.864z M220.049,54.768l0.184,13.847
					l0.093,13.799l0.002,0.335l-0.34-0.011l-17.851-0.569c-5.951-0.175-11.9-0.395-17.849-0.635l-35.689-1.447l-0.264-0.011
					l-0.109-0.238l-13.034-28.35l-0.23-0.502l0.547,0.024L220.049,54.768z"/>
			</g>
		</g>
		<g>
			<g>
				<g>
					<path fill="#535150" d="M101.01,30.572l-0.005-0.007l0.082,0.076c0.015,0.156,0.009,0.289-0.011,0.401l-0.062,0.355
						l-0.332-1.051c-0.049-0.154-0.016-0.163,0.039-0.136c0.062,0.042,0.145,0.119,0.31,0.342L101.01,30.572z M101.079,30.638
						c0.106,0.256,0.13,0.366,0.134,0.441c-0.004,0.06-0.029,0.084-0.137-0.037l-0.395-0.697c0.099,0.044,0.212,0.108,0.344,0.195
						l0.115,0.075l-0.032,0l-0.009,0L101.079,30.638z"/>
				</g>
				<g>
					<path fill="#535150" d="M100.961,30.682l-0.057,0.056c-0.395,0.391-0.802,0.758-1.224,1.101l-0.392-0.697
						c0.154-0.271,0.389-0.395,0.646-0.483c0.265-0.074,0.549-0.112,0.919-0.007L100.961,30.682z M100.904,30.738
						c-0.096,0.371-0.276,0.598-0.477,0.79c-0.21,0.177-0.44,0.318-0.752,0.313l-2.177-0.037l1.785-0.661
						c0.51-0.188,1.033-0.353,1.569-0.493l0.078-0.02L100.904,30.738z"/>
				</g>
				<g>
					<path fill="#535150" d="M196.391-9.939l-31.746,0.057l0.059-0.017l-15.69,10.313l-15.731,10.251
						c-5.242,3.421-10.529,6.772-15.805,10.142l-3.958,2.525c-1.312,0.852-2.657,1.655-3.988,2.479l-8.005,4.921l-0.179-0.664
						c0.763,0.068,1.275,0.331,1.863,0.551c0.567,0.235,1.12,0.489,1.671,0.748c1.098,0.52,2.18,1.063,3.258,1.613l6.439,3.337
						c4.29,2.214,8.582,4.447,13.017,6.292c1.108,0.454,2.23,0.877,3.364,1.202c0.566,0.159,1.139,0.292,1.693,0.347
						c0.273,0.023,0.552,0.034,0.779-0.012c0.113-0.022,0.21-0.056,0.286-0.095l0.371-0.233l6.129-3.873l12.226-7.784l12.227-7.786
						l6.113-3.897l6.134-3.863l24.559-15.422l0.045,0.442c-1.104-0.391-2.265-0.698-3.429-0.926
						c-1.166-0.229-2.347-0.383-3.532-0.449l-1.796-0.052c-0.079-0.004-0.16-0.01-0.248-0.023c-0.062-0.019-0.072,0-0.188-0.062
						c-0.021-0.018-0.039-0.006-0.096-0.103c-0.043-0.094-0.025-0.167-0.005-0.2c0.061-0.112,0.094-0.111,0.117-0.132
						c0.199-0.114,0.323-0.134,0.479-0.185c0.297-0.086,0.59-0.156,0.883-0.225c1.175-0.269,2.352-0.5,3.527-0.737
						c2.352-0.47,4.703-0.93,7.044-1.438c1.17-0.255,2.338-0.521,3.495-0.82c0.577-0.151,1.154-0.307,1.721-0.487
						c0.562-0.182,1.139-0.372,1.624-0.659L211.102-4.6c-2.051-1.684-4.389-3.024-6.888-3.933
						C201.715-9.444,199.057-9.92,196.391-9.939z M196.391-10.039c2.678-0.018,5.36,0.423,7.895,1.307
						c2.534,0.882,4.918,2.203,7.02,3.881l0.182,0.145l-0.196,0.117c-0.549,0.327-1.122,0.512-1.696,0.703
						c-0.575,0.186-1.155,0.347-1.736,0.502c-1.162,0.307-2.332,0.579-3.503,0.841c-2.343,0.522-4.695,0.995-7.043,1.476
						c-1.174,0.242-2.349,0.48-3.511,0.753c-0.289,0.069-0.579,0.14-0.858,0.223c-0.129,0.038-0.3,0.094-0.36,0.132
						c-0.008-0.001-0.007,0.02,0.037-0.057c0.002-0.018,0.027-0.073-0.006-0.15c-0.053-0.076-0.052-0.058-0.057-0.068
						c-0.051-0.021,0.017,0,0.026,0c0.061,0.008,0.13,0.013,0.2,0.017l1.799,0.039c1.209,0.058,2.411,0.205,3.6,0.429
						c1.19,0.225,2.357,0.521,3.516,0.921l0.475,0.164l-0.429,0.278l-24.331,15.778l-6.092,3.931l-6.114,3.896l-12.236,7.786
						l-12.257,7.756l-6.152,3.836l-0.397,0.246c-0.192,0.101-0.385,0.16-0.568,0.193c-0.368,0.067-0.701,0.046-1.027,0.018
						c-0.648-0.068-1.256-0.217-1.852-0.388c-1.188-0.349-2.327-0.788-3.451-1.255c-4.483-1.896-8.761-4.164-13.049-6.398
						l-6.418-3.366c-1.071-0.553-2.146-1.099-3.23-1.619c-0.542-0.258-1.087-0.511-1.634-0.741
						c-0.531-0.216-1.143-0.467-1.589-0.504l-1.116-0.094l0.938-0.57l8.015-4.874c1.333-0.817,2.679-1.611,3.995-2.457l3.969-2.506
						c5.29-3.342,10.592-6.667,15.849-10.063l31.593-20.296l0.027-0.018l0.031,0L196.391-10.039z"/>
				</g>
				<g>
					<path fill="#535150" d="M101.022,30.601l0.009-0.053c0.03-0.172,0.068-0.328,0.123-0.456l0.191,0.717
						c-0.013,0.029-0.022,0.059-0.025,0.097c-0.02,0.033,0.037,0.055,0.04,0.016c-0.013-0.027,0.059-0.11,0.017-0.193
						c-0.027-0.075-0.114-0.15-0.271-0.136L101.022,30.601z M101.007,30.589c-0.133-0.041-0.222-0.188-0.205-0.305
						c0.005-0.122,0.114-0.26,0.165-0.296c0.063-0.055,0.177-0.064,0.22-0.029l0.159,0.082l1.762,0.913l-1.57-0.195
						c-0.139-0.017-0.293-0.062-0.455-0.124L101.007,30.589z"/>
				</g>
			</g>
		</g>
		<path fill="#8D8B89" stroke="#535150" stroke-width="0.7" stroke-miterlimit="10" d="M138.52,41.155l-2.857-0.584l-4.869,3.1
			v11.221h8.838c0,0,1.16-2.162,1.174-3.545c0.035-3.166-0.273-6.717-2.076-9.889"/>
		<g>
			<path fill="#CFCCC8" d="M92.906,36.601c0,0-2.235,2.127-6.206,5.786c-1.97,1.844-4.383,4.072-6.885,6.878
				c-2.512,2.791-5.028,6.247-7.109,10.379c-2.132,4.107-3.62,8.938-4.641,14.132c-1.054,5.193-1.731,10.753-2.101,16.52
				c-0.178,2.884-0.287,5.824-0.195,8.793c0.078,2.965,0.586,5.945,1.154,8.919c1.187,5.947,3.032,11.857,5.424,17.532
				c1.199,2.835,2.535,5.615,4.035,8.288c0.753,1.334,1.547,2.642,2.407,3.896c0.871,1.225,1.768,2.521,2.928,3.377
				c0.297,0.212,0.608,0.259,0.647,0.012c0.113-0.275,0.115-0.664,0.098-1.022c-0.041-0.733-0.173-1.474-0.317-2.207
				c-0.297-1.466-0.673-2.914-1.054-4.35c-0.79-2.87-1.57-5.706-2.339-8.494c-0.739-2.799-1.46-5.56-1.858-8.343
				c-0.286-2.802-0.43-5.497-0.66-8.146c-0.414-5.27-0.733-10.372,0.266-14.968c0.472-2.287,1.152-4.428,1.94-6.396
				c0.788-1.953,1.566-3.856,2.704-5.408c2.201-3.146,4.917-5.197,7.223-6.626c2.328-1.43,4.316-2.259,5.68-2.779
				c1.369-0.514,2.139-0.708,2.139-0.708l0.176,0.678c0,0-0.73,0.181-2.072,0.679c-1.335,0.504-3.289,1.311-5.571,2.702
				c-2.261,1.39-4.913,3.383-7.051,6.418c-1.103,1.491-1.859,3.323-2.654,5.271c-0.786,1.943-1.461,4.046-1.933,6.289
				c-0.995,4.497-0.703,9.535-0.307,14.809c0.22,2.634,0.359,5.382,0.629,8.119c0.381,2.734,1.089,5.494,1.817,8.287
				c0.758,2.792,1.528,5.629,2.309,8.502c0.378,1.442,0.749,2.896,1.045,4.382c0.144,0.744,0.275,1.494,0.317,2.271
				c0.01,0.39,0.033,0.784-0.139,1.217c-0.042,0.103-0.119,0.223-0.256,0.323l-0.062,0.035c-0.009,0.009-0.106,0.046-0.118,0.043
				c-0.076,0.022-0.144,0.021-0.21,0.016c-0.263-0.028-0.442-0.143-0.618-0.251c-1.289-0.964-2.14-2.25-3.032-3.501
				c-0.865-1.271-1.659-2.59-2.412-3.935c-1.499-2.693-2.831-5.489-4.024-8.34c-2.381-5.705-4.212-11.641-5.383-17.613
				c-0.56-2.988-1.059-5.976-1.127-8.968c-0.082-2.983,0.038-5.927,0.226-8.815c0.391-5.776,1.088-11.341,2.162-16.54
				c1.041-5.2,2.549-10.04,4.703-14.151c2.102-4.134,4.638-7.588,7.163-10.372c2.516-2.8,4.938-5.019,6.914-6.855
				C90.663,38.719,92.906,36.601,92.906,36.601z"/>
		</g>
		<g>
			<path fill="#8D8B89" d="M147.762,76.89c-1.74-4.449-11.963-23.617-11.963-23.928c0-13.449-11.26-24.35-24.773-24.35
				c-13.512,0-24.469,10.902-24.469,24.35c0,11.904,8.588,21.809,19.936,23.926l-0.004,0.002
				c18.686,3.461,22.814,10.006,27.824,21.361c2.104,4.77,2.279,7.189,2.912,27.697c0.064,2.123-0.625,11.945,0.811,12.191
				c3.562,0.617,5.506-5.885,7.771-13.27C147.869,118.153,152.535,89.122,147.762,76.89z"/>
			<g>
				<path fill="#535150" d="M147.729,76.902c-1.106-2.638-2.425-5.184-3.701-7.745l-3.92-7.642l-3.944-7.631
					c-0.145-0.334-0.355-0.608-0.432-1.005l-0.029-1.073c-0.047-0.712-0.1-1.422-0.207-2.129c-0.2-1.413-0.526-2.808-0.975-4.163
					c-1.803-5.424-5.615-10.122-10.483-13.083c-2.432-1.482-5.11-2.565-7.9-3.137c-2.781-0.565-5.682-0.687-8.487-0.274
					c-2.812,0.403-5.562,1.278-8.064,2.626c-2.504,1.343-4.77,3.125-6.666,5.239c-3.8,4.224-6.035,9.826-6.124,15.505
					c-0.155,5.678,1.813,11.369,5.423,15.744c3.58,4.398,8.747,7.469,14.324,8.482l0.812,0.147l-0.739,0.371l-0.004,0.002
					l-0.072-0.519c2.924,0.55,5.838,1.203,8.676,2.135c2.834,0.929,5.614,2.116,8.117,3.79c2.506,1.661,4.672,3.833,6.383,6.298
					c1.717,2.467,3.045,5.158,4.28,7.862c0.607,1.351,1.247,2.71,1.688,4.163c0.445,1.447,0.701,2.938,0.881,4.42
					c0.351,2.971,0.47,5.94,0.605,8.908l0.315,8.902c0.032,1.475,0.135,2.976,0.072,4.47c-0.039,1.486-0.085,2.965-0.092,4.443
					c0.004,1.475-0.001,2.961,0.183,4.396c0.05,0.354,0.112,0.71,0.22,1.021c0.051,0.149,0.125,0.302,0.188,0.361
					c0.037,0.032,0.027,0.026,0.048,0.031l0.276,0.033c0.617,0.04,1.277-0.223,1.79-0.676c1.046-0.92,1.733-2.266,2.34-3.586
					c0.599-1.34,1.098-2.732,1.571-4.133c0.916-2.821,1.876-5.623,2.456-8.523c0.622-2.895,1.123-5.818,1.558-8.75
					c0.857-5.866,1.449-11.778,1.606-17.706c0.081-2.963,0.029-5.932-0.219-8.886C149.216,82.643,148.762,79.685,147.729,76.902z
					 M147.794,76.877c1.062,2.784,1.542,5.748,1.835,8.699c0.273,2.959,0.352,5.934,0.297,8.904
					c-0.105,5.942-0.648,11.869-1.455,17.755c-0.408,2.943-0.883,5.878-1.481,8.792c-0.559,2.932-1.5,5.771-2.39,8.6
					c-0.464,1.414-0.954,2.824-1.554,4.2c-0.616,1.359-1.283,2.754-2.468,3.826c-0.594,0.525-1.395,0.899-2.271,0.843l-0.277-0.03
					c-0.165-0.012-0.344-0.115-0.437-0.215c-0.2-0.207-0.271-0.409-0.349-0.604c-0.137-0.391-0.203-0.769-0.261-1.148
					c-0.204-1.51-0.22-3.001-0.218-4.493c0.007-1.49,0.054-2.977,0.093-4.458c0.062-1.474-0.039-2.938-0.071-4.43l-0.313-8.895
					c-0.134-2.96-0.254-5.928-0.6-8.854c-0.177-1.461-0.427-2.908-0.854-4.299c-0.421-1.392-1.047-2.729-1.648-4.085
					c-1.218-2.694-2.521-5.355-4.191-7.772c-1.664-2.416-3.754-4.527-6.192-6.158c-2.433-1.642-5.159-2.82-7.954-3.749
					c-2.801-0.931-5.689-1.592-8.596-2.146l-0.805-0.154l0.732-0.365l0.004-0.002l0.072,0.519
					c-5.702-1.053-10.971-4.209-14.61-8.708c-1.826-2.243-3.254-4.809-4.187-7.545c-0.936-2.731-1.375-5.645-1.298-8.526
					c0.108-5.785,2.403-11.48,6.278-15.76c1.933-2.144,4.24-3.946,6.786-5.302c2.546-1.359,5.338-2.244,8.192-2.636
					c2.866-0.402,5.772-0.26,8.595,0.327c2.819,0.595,5.521,1.706,7.967,3.217c4.899,3.017,8.708,7.778,10.495,13.243
					c0.447,1.364,0.772,2.768,0.971,4.189c0.105,0.71,0.158,1.428,0.203,2.145l0.027,1.073c0.054,0.3,0.275,0.637,0.416,0.952
					l3.927,7.638l3.903,7.651C145.379,71.682,146.691,74.23,147.794,76.877z"/>
			</g>
		</g>
		<path fill="#CFCCC8" d="M136.094,55.649c1.73,7.926,4.969,28.328,5.9,36.447c2.184,19.041-4.643,45.625-3.959,46.043
			c1.133,0.693,4.695-10.193,6.15-17.424c1.459-7.23,2.506-15.494,2.756-24.811c0.219-8.318,0.096-19.527-0.064-20.914
			C146.717,73.606,136.094,55.649,136.094,55.649z"/>
		<ellipse fill="#575755" cx="111.027" cy="52.962" rx="9.973" ry="9.926"/>
		<path fill="#474A49" fill-opacity="0.5" d="M81.924,141.448l0.021,0.053c0.021-0.01,0.035-0.02,0.061-0.029
			C81.979,141.464,81.951,141.456,81.924,141.448z"/>
		<g>
			<path fill="#3C3A3A" d="M102.951,59.003c0,0,0.043-0.414,0.378-0.848c0.153-0.233,0.359-0.494,0.614-0.773
				c0.064-0.068,0.123-0.148,0.202-0.209c0.083-0.057,0.185-0.098,0.27-0.161c0.165-0.131,0.32-0.29,0.495-0.442
				c1.375-1.237,3.209-2.886,5.044-4.536c1.834-1.649,3.668-3.299,5.044-4.536c0.325-0.33,0.677-0.573,0.99-0.786
				c0.308-0.22,0.582-0.405,0.811-0.554c0.234-0.144,0.418-0.257,0.543-0.334c0.107-0.096,0.289-0.01,0.283-0.016
				s0.061,0.183-0.046,0.28c-0.09,0.116-0.222,0.287-0.39,0.504c-0.172,0.211-0.385,0.465-0.637,0.748
				c-0.245,0.29-0.523,0.613-0.887,0.902c-1.375,1.237-3.209,2.886-5.044,4.536c-1.834,1.649-3.668,3.299-5.044,4.536
				c-0.17,0.157-0.344,0.295-0.492,0.445c-0.071,0.078-0.123,0.174-0.188,0.251c-0.069,0.072-0.155,0.122-0.229,0.179
				c-0.305,0.224-0.586,0.401-0.834,0.529C103.367,59.004,102.951,59.003,102.951,59.003z"/>
		</g>
		<g>
			<g>
				<path fill="#3C3A3A" d="M121.05,52.963c0,0-0.013,0.245-0.035,0.702c-0.001,0.229-0.042,0.51-0.097,0.84
					c-0.037,0.333-0.126,0.707-0.24,1.121c-0.24,0.82-0.601,1.813-1.255,2.821c-0.648,1.005-1.562,2.042-2.786,2.89
					c-1.224,0.839-2.754,1.477-4.457,1.71c-0.43,0.045-0.853,0.082-1.311,0.084c-0.432-0.023-0.859-0.013-1.318-0.097
					c-0.916-0.101-1.798-0.378-2.672-0.732c-0.87-0.366-1.685-0.885-2.449-1.483c-0.75-0.62-1.415-1.355-1.989-2.167
					c-0.558-0.825-0.991-1.738-1.311-2.696c-0.3-0.966-0.443-1.977-0.476-2.992c0.009-0.987,0.133-2.037,0.414-3.011
					c0.301-0.97,0.718-1.902,1.266-2.749c0.563-0.833,1.221-1.597,1.977-2.238c0.768-0.622,1.59-1.166,2.475-1.553
					c1.76-0.758,3.701-1.019,5.399-0.781c1.785,0.247,3.325,0.896,4.562,1.788c1.233,0.887,2.14,1.961,2.772,2.993
					c0.639,1.035,0.982,2.043,1.208,2.871c0.107,0.419,0.189,0.794,0.22,1.129c0.049,0.331,0.084,0.613,0.08,0.844
					C121.042,52.717,121.05,52.963,121.05,52.963z M120.95,52.96c0,0-0.018-0.241-0.05-0.695c-0.005-0.228-0.051-0.505-0.111-0.829
					c-0.042-0.327-0.138-0.693-0.258-1.099c-0.244-0.805-0.629-1.775-1.33-2.716c-0.682-0.945-1.621-1.896-2.834-2.631
					c-1.206-0.719-2.693-1.263-4.246-1.411c-1.632-0.133-3.32,0.074-4.916,0.787c-0.801,0.338-1.549,0.818-2.253,1.37
					c-0.688,0.574-1.304,1.247-1.836,1.992c-0.516,0.758-0.917,1.598-1.214,2.478c-0.279,0.893-0.411,1.792-0.447,2.757
					c0.013,0.938,0.127,1.875,0.387,2.775c0.279,0.893,0.665,1.75,1.17,2.53c0.521,0.767,1.131,1.468,1.823,2.063
					c0.707,0.574,1.464,1.079,2.278,1.439c0.811,0.348,1.66,0.631,2.498,0.738c0.408,0.087,0.855,0.088,1.283,0.12
					c0.4,0.007,0.83-0.008,1.234-0.037c1.634-0.163,3.132-0.719,4.352-1.49c1.222-0.776,2.152-1.764,2.818-2.736
					c0.686-0.968,1.052-1.953,1.282-2.766c0.113-0.41,0.201-0.779,0.237-1.107c0.055-0.325,0.095-0.602,0.096-0.833
					C120.938,53.203,120.95,52.96,120.95,52.96z"/>
			</g>
		</g>
		<path fill-rule="evenodd" clip-rule="evenodd" fill="#CFCCC8" d="M220,61.79c-10.955-0.973-25.834-2.311-30.207-2.787
			c-7.178-0.783-27.471-3.988-35.309-5.064s-12.238-1.539-18.988-0.977l3.332,9.248c0,0,1.311,0.361,3.902,0.037
			c2.594-0.322,17.809-0.463,26.717-1.385c8.904-0.924,21.371,0.77,28.494,0.307c3.895-0.252,13.842,0.287,22.059,0.824V61.79z"/>
		<g>
			<path fill="#3C3A3A" d="M148.531,79.711c0,0-0.347-0.355-0.909-1.016c-0.554-0.664-1.319-1.632-2.169-2.839
				c-0.41-0.614-0.854-1.279-1.322-1.982c-0.435-0.724-0.912-1.478-1.365-2.28c-0.449-0.805-0.876-1.657-1.299-2.527
				c-0.408-0.878-0.779-1.792-1.168-2.695c-0.413-0.938-0.704-1.834-1.06-2.742c-0.31-0.927-0.642-1.836-0.907-2.715
				c-0.557-1.756-1.031-3.402-1.398-4.823c-0.375-1.415-0.688-2.594-0.906-3.42c-0.104-0.417-0.201-0.73-0.271-0.945
				c-0.067-0.216-0.104-0.332-0.104-0.332l0.182-0.084c0,0,0.052,0.112,0.149,0.321c0.1,0.21,0.244,0.521,0.4,0.918
				c0.332,0.792,0.757,1.937,1.295,3.298s1.152,2.949,1.849,4.629c0.341,0.846,0.734,1.682,1.109,2.548
				c0.411,0.852,0.851,1.766,1.288,2.583c0.911,1.71,1.858,3.395,2.646,5.03c0.418,0.805,0.782,1.605,1.146,2.355
				c0.356,0.755,0.694,1.469,1.006,2.127c0.622,1.32,1.112,2.442,1.455,3.23c0.331,0.797,0.52,1.253,0.52,1.253L148.531,79.711z"/>
		</g>
		<g>
			<path fill="#3C3A3A" d="M102.264,30.087c0,0,0.144-0.046,0.413-0.132c0.267-0.092,0.669-0.203,1.188-0.341
				c1.032-0.268,2.527-0.556,4.347-0.761c1.817-0.208,3.964-0.313,6.268-0.151c1.152,0.063,2.342,0.224,3.549,0.427
				c1.199,0.244,2.425,0.512,3.615,0.949c0.673,0.215,1.146,0.431,1.74,0.67c0.582,0.27,1.176,0.529,1.717,0.825
				c1.113,0.565,2.153,1.238,3.08,1.988c0.934,0.744,1.743,1.576,2.439,2.416c0.695,0.844,1.294,1.686,1.758,2.517
				c0.952,1.647,1.46,3.154,1.692,4.222c0.132,0.529,0.185,0.957,0.218,1.247c0.033,0.289,0.051,0.442,0.051,0.442l-0.238,0.072
				c0,0-0.079-0.131-0.227-0.378c-0.148-0.245-0.343-0.608-0.63-1.047c-0.269-0.445-0.624-0.966-1.033-1.548
				c-0.417-0.579-0.902-1.212-1.465-1.869c-0.276-0.332-0.572-0.668-0.899-0.999c-0.303-0.349-0.652-0.679-0.997-1.026
				c-0.724-0.663-1.472-1.37-2.31-2.029c-0.818-0.682-1.696-1.354-2.634-1.979c-0.469-0.326-0.945-0.6-1.431-0.878
				c-0.498-0.256-1.104-0.585-1.566-0.772c-1.039-0.483-2.155-0.817-3.257-1.135c-1.114-0.278-2.229-0.52-3.325-0.667
				c-1.093-0.173-2.164-0.246-3.182-0.326c-1.018-0.063-1.985-0.088-2.879-0.079c-3.587,0.031-5.939,0.584-5.939,0.583
				L102.264,30.087z"/>
		</g>
		<g>
			<path fill="#3C3A3A" d="M138.773,41.437c0,0,0.121,0.123,0.302,0.352c0.184,0.231,0.449,0.541,0.677,0.99
				c0.215,0.447,0.504,0.999,0.652,1.596c0.148,0.604,0.263,1.257,0.348,1.911c0.11,0.648,0.177,1.304,0.232,1.917
				c0.073,0.61,0.054,1.193,0.072,1.682c-0.043,0.5-0.02,0.903-0.102,1.196c-0.064,0.284-0.102,0.446-0.102,0.446l-0.094-0.033
				c0,0,0.01-0.159,0.028-0.436c0.035-0.267-0.05-0.68-0.081-1.151c-0.094-0.477-0.165-1.032-0.297-1.622
				c-0.123-0.59-0.26-1.216-0.441-1.833c-0.094-0.307-0.158-0.621-0.275-0.915c-0.111-0.295-0.2-0.59-0.29-0.874
				c-0.142-0.585-0.304-1.082-0.383-1.562c-0.088-0.472-0.23-0.871-0.264-1.163c-0.058-0.287-0.073-0.458-0.073-0.458
				L138.773,41.437z"/>
		</g>
	</g>
	<g>
		<path fill-rule="evenodd" clip-rule="evenodd" fill="#F2F2F2" d="M134.787,114.677c-1.828-2.656-5.635-4.127-8.211-3.613
			c-2.27,0.453-3.93,0.504-7.16-1.162c-4.689-2.418-10.232-1.336-13.559,0.324c-6.416,3.197-9.961,1.445-13.521,0.57
			c-2.953-0.725-5.211-0.783-8.373,1.66c-1.592,1.277-3.154,4.547-2.908,10.768c0.156,3.975,1.361,7.676,2.707,11.34
			c1.102,3.006,3.262,12.16,3.959,18.107c0.537,4.604,1.115,17.715,1.631,20.674c0.725,4.188,3.627,12.938,6.371,16.811
			c1.326,1.869,4.037,4.461,7.152,4.461c1.494,0,2.738-0.877,3.307-3.674c0.467-4.4-0.229-9.465-0.258-10.791
			c-0.088-4.088,0.701-12.117,1.379-14.791c0.51-2.014,1.645-7.428,2.139-7.344c0.727,0.125,1.428,9.717,1.5,10.43
			c0.365,3.676-0.002,9.439-0.08,10.295c-0.461,5.057-0.461,7.848-0.404,9.307c0.107,2.844,1.938,5.277,4.154,4.959
			c3.49-0.5,6.914-5.275,8.193-8.098c1.246-2.748,2.949-6.91,4.432-14.412c0.928-4.703,2.342-18.691,2.629-20.826
			c1.273-9.523,3.24-12.059,4.676-16.371C137.664,123.915,136.885,117.729,134.787,114.677z"/>
		<path fill-rule="evenodd" clip-rule="evenodd" fill="#FFFFFF" d="M102.072,115.917c4.209,0.438,7.82,2.623,15,2.486
			c7.178-0.141,11.139-4.143,13.117-4.145c7.455-0.006-0.469,16.844-1.797,22.99c-1.518,7.041-3.262,27.83-4.002,32.518
			c-1.744,11.029-4.76,22.822-9.779,23.24c-3.438,0.285,2.148-9.816,4.096-24.168c0.57-4.197,0.533-9.293-1.146-13.771
			c-0.686-1.824-6.84-2.285-8.732,4.209c-0.439,1.51-1.082,3.357-1.525,6.084c-0.703,4.322-1.496,13.074-1.379,14.791
			c0.18,2.617,0.559,8.068,0.258,10.791c-0.322,2.92-1.367,3.035-2.367,3.537c-1.932,0.969-7.316-7.869-8.559-13.529
			s-0.1-14.635,0.641-21.264c0.74-6.627,0.227-22.781,0-26.648c-0.227-3.865-1.982-12.564,0-14.498S99.18,115.616,102.072,115.917z"
			/>
		<path fill="#D1D2D3" fill-opacity="0.5" d="M88.406,114.259c0.941,1.26,4.523,0.898,6.447,0.414
			c1.922-0.482,5.926-1.381,8.135-1.449s8.41,1.508,10.494,1.678c3.02,0.246,4.695-1.164,2.762-2.127s-13.807,0.381-15.947,0.381
			c-2.143,0-4.678,0.072-7.371,0.332C90.977,113.677,87.631,113.224,88.406,114.259z"/>
		<g>
			<polygon fill-rule="evenodd" clip-rule="evenodd" fill="#D1D2D3" fill-opacity="0.5" points="108.686,159.755 108.686,159.755 
				108.686,159.755 			"/>
			<path fill-rule="evenodd" clip-rule="evenodd" fill="#D1D2D3" fill-opacity="0.5" d="M109.441,158.017
				c0.727,0.125,1.428,9.717,1.5,10.43c0.365,3.676-0.002,9.439-0.08,10.295c-0.461,5.057-0.461,7.848-0.404,9.307
				c0.031,0.848,0.217,1.656,0.52,2.371c2.596-1.156,4.121-4.969,4.715-6.984c0.689-2.346,2.76-11.734,3.174-14.223
				c0.416-2.484,0.416-10.355-0.828-13.252c-1.242-2.9-3.453-2.486-5.52-1.797c-1.639,0.547-2.412,1.955-3.191,3.918
				C109.365,158.036,109.404,158.009,109.441,158.017z"/>
		</g>
	</g>
</g>
<g id="Guides" display="none">
</g>
</svg>
