<?xml version="1.0" encoding="utf-8"?>
<!-- Generator: Adobe Illustrator 16.0.0, SVG Export Plug-In . SVG Version: 6.00 Build 0)  -->
<!DOCTYPE svg PUBLIC "-//W3C//DTD SVG 1.1//EN" "http://www.w3.org/Graphics/SVG/1.1/DTD/svg11.dtd">
<svg version="1.1" xmlns="http://www.w3.org/2000/svg" xmlns:xlink="http://www.w3.org/1999/xlink" x="0px" y="0px" width="220px"
	 height="219.998px" viewBox="0 0 220 219.998" enable-background="new 0 0 220 219.998" xml:space="preserve">
<g id="Background">
</g>
<g id="Layer_1">
	<g>
		<g>
			<path fill-rule="evenodd" clip-rule="evenodd" fill="#04A8BD" d="M220,193.169c0,14.756-12.073,26.829-26.829,26.829H26.829
				C12.073,219.998,0,207.925,0,193.169V26.829C0,12.073,12.073,0,26.829,0h166.342C207.927,0,220,12.073,220,26.829V193.169z"/>
		</g>
		<path fill-rule="evenodd" clip-rule="evenodd" fill="#C3848E" d="M22.353,104.073c0.656,4.262,20.632,30.451,25.386,34.848
			c4.754,4.395,31.55,30.734,74.659,27.102c43.109-3.631,53.979-26.609,58.282-33.207c4.308-6.594,10.751-27.564,13.125-31.037
			c2.37-3.473,3.974-7.895,3.974-7.895s-1.893-4.379-7.069-7.023s-21.519-7.326-31.793-7.984
			c-10.275-0.658-28.974,5.291-30.946,5.291c-1.972,0-20.003-5.996-31.606-6.758C79.449,76.3,55.115,80.896,25.456,95.87
			C21.717,97.759,22.147,102.743,22.353,104.073z"/>
		<path fill-rule="evenodd" clip-rule="evenodd" fill="#FFFFFF" d="M49.476,124.694c0.076-0.064,0.158-0.133,0.251-0.201
			c1.028-0.791,2.938-1.775,5.1-0.486c2.352,1.404,3.928,2.035,4.258,3.777c0.326,1.74,0.108,2.912,0.108,2.912
			s0.416-0.846,1.875-1.736c1.457-0.891,4.399-0.301,7.131,0.674c2.729,0.975,4.853,1.629,4.742,3.469
			c-0.108,1.838-0.246,3.033-0.246,3.033s0.313-1.572,1.309-2.441c0.995-0.867,3.652-2.248,7.999-1.146
			c4.317,1.096,5.143,2.248,5.458,3.766c0.316,1.518,0.21,1.803,0.21,1.803s1-2.02,2.86-2.861c1.857-0.842,5.656-1.146,8.772-0.531
			s5.699,1.605,6.344,2.418c0.643,0.812,0.654,1.139,0.654,1.139s0.454-0.914,1.569-2.1c1.116-1.188,4.67-1.811,7.647-1.559
			c2.979,0.254,5.433,0.6,6.106,1.85c0.676,1.252,0.676,1.252,0.676,1.252s0.38-0.6,0.855-1.348c0.473-0.748,3.15-1.369,6.278-2.062
			c3.127-0.693,7.121-0.91,7.771,0.461c0.648,1.369,0.911,1.77,0.911,1.77s-0.109-1.217,0.841-2.043
			c0.952-0.828,2.76-1.43,5.849-2.186c3.087-0.758,5.337-0.744,6.366-0.043c1.029,0.699,1.029,0.699,1.029,0.699
			s-0.123-0.398,0.16-1.33c0.289-0.93,2.126-2.578,4.197-3.352c2.069-0.775,4.29-1.186,4.842-0.701
			c0.552,0.48,0.825,0.662,0.825,0.662s0.036-0.385,0.093-1.34s1.05-2.467,3.064-3.482c2.015-1.014,3.609-1.443,4.292-0.648
			c0.68,0.797,1.424,1.965,1.424,1.965l0.791,5.281l-38.803,27.748l-49.152-7.504l-39.985-22.938"/>
		<path fill-rule="evenodd" clip-rule="evenodd" fill="#FFFFFF" d="M38.237,95.7c-1.389,2.73-3.93,9.434-2.553,12.32
			c1.375,2.885,4.065,4.438,5.681,4.057c1.614-0.379,3.862-1.391,4.192-1.332c0.329,0.055,0.495,1.934,0.859,3.164
			s1.787,4.762,4.566,5.082c2.779,0.318,8.08-1.756,8.575-3.705c0.494-1.949-0.126-0.42,0.265,1.273
			c0.39,1.693,1.986,6.789,4.239,7.582c2.252,0.795,8.416,0.328,10.335-1.078c1.919-1.404,3.438-4.041,3.438-4.041
			s0.316,1.873,1.603,3.465c1.287,1.59,6.182,4.826,10.895,5s6.43-1.875,7.105-3.096c0.674-1.223,0.942-2.553,0.942-2.553
			s0.22,1.553,1.007,3.027c0.785,1.475,4.443,5.084,7.399,5.711c2.952,0.627,11.785,1.32,14.532-0.189
			c2.746-1.51,3.545-2.363,4.044-3.865c0.5-1.502,0.661-2.389,0.661-2.389s0.054,1.658,0.477,2.752
			c0.42,1.094,2.152,4.111,10.933,3.051c8.78-1.059,10.425-2.213,11.289-4.121c0.866-1.908,0.758-2.238,0.758-2.238
			s0.375,1.141,1.515,2.27c0,0,1.23,2.328,6.76,0.566c5.531-1.764,5.396-2.555,5.966-4.828c0.57-2.275,0.57-2.275,0.57-2.275
			s0.81,0.773,2.361,1.418c0,0,2.779,1.035,4.598-0.588c1.815-1.623,1.896-2.896,2.099-3.98c0.203-1.082,0.136-1.562,0.136-1.562
			s0.687,0.895,1.883,0.426s3.554-2.307,3.719-5.035s0.269-4.695,0.269-4.695s0.851,0.238,2.038-1.117s1.86-2.684,1.576-4.928
			c-0.283-2.242-2.589-7.057-2.589-7.057"/>
		<path fill-rule="evenodd" clip-rule="evenodd" fill="#F6B8C0" fill-opacity="0.5" d="M47.021,94.866
			c1.056,0.803,1.284,1.781,1.607,2.707c0.324,0.926,0.604,1.611,0.604,1.611s0.911-1.281,1.771-2.207
			c0.857-0.926,1.172-1.443,2.759-1.605c1.586-0.166,4.426,0.707,5.446,3.355c1.021,2.645,1.831,6.986,1.831,6.986
			s1.059-3.109,2.018-4.852c0.961-1.744,3.685-4.355,5.785-3.5c2.101,0.857,6.278,4.725,7.544,8.104
			c1.269,3.379,2.124,6.047,2.124,6.047s0.787-2.85,1.816-5.166c1.028-2.312,3.195-7.633,6.738-7.775
			c3.542-0.141,7.425-0.002,9.13,6.562c1.706,6.564,2.356,11.773,2.356,11.773s1.235-5.91,3.597-10.158
			c2.36-4.248,8.055-6.871,11.709-6.723c3.653,0.148,8.486,1.943,10.247,6.861c1.758,4.916,2.241,10.273,2.241,10.273
			s1.084-7.949,3.499-11.568c2.415-3.621,15.187-7.883,17.021-3.797c1.832,4.088,2.898,10.293,2.898,10.293s1.471-4.709,3.11-7.73
			c1.638-3.021,7.189-9.023,9.066-5.334c1.875,3.688,2.08,6.557,2.08,6.557s1.531-3.543,3.175-5.953
			c1.641-2.414,2.861-4.217,4.895-3.66c2.033,0.559,1.565,1.979,1.565,1.979s1.583-3.295,2.507-4.789
			c0.921-1.492,4.525-0.256,4.678,0.156c0.155,0.414,0.31,0.648,0.31,0.648l2.429-4.523"/>
		<g>
			<path fill="#F2F2F2" d="M36.227,100.989c0,0,2.164,1.172,6.146,2.784c1.982,0.821,4.422,1.744,7.242,2.733
				c2.818,0.994,6.031,2.016,9.547,3.089c1.761,0.528,3.609,1.029,5.514,1.574c1.919,0.494,3.902,1.004,5.941,1.528
				c2.053,0.469,4.161,0.949,6.315,1.441c2.167,0.434,4.381,0.877,6.632,1.328c2.262,0.39,4.562,0.786,6.889,1.188
				c2.338,0.338,4.703,0.68,7.088,1.023c2.393,0.277,4.805,0.556,7.226,0.836c2.424,0.251,4.865,0.426,7.301,0.643l1.812,0.151
				l1.837,0.107c1.221,0.06,2.457,0.169,3.66,0.187c1.208,0.031,2.413,0.062,3.615,0.095c1.205-0.007,2.407-0.014,3.604-0.021
				c4.785-0.105,9.484-0.396,13.986-1.004c4.508-0.571,8.809-1.484,12.805-2.624c3.993-1.153,7.659-2.611,10.894-4.255
				c3.244-1.629,6.056-3.441,8.406-5.24c2.351-1.801,4.24-3.58,5.737-5.106c1.497-1.529,2.579-2.826,3.36-3.677
				c0.765-0.867,1.25-1.252,1.25-1.252s-0.443,0.428-1.118,1.361c-0.684,0.924-1.679,2.293-3.059,3.958
				c-1.375,1.666-3.16,3.614-5.463,5.583c-2.295,1.969-5.049,4.037-8.314,5.865c-3.265,1.822-6.985,3.473-11.053,4.821
				c-4.062,1.37-8.486,2.362-13.099,3.05c-4.619,0.657-9.432,0.99-14.313,0.979c-1.22-0.015-2.444-0.029-3.673-0.044
				c-1.23-0.054-2.465-0.108-3.702-0.162c-1.241-0.041-2.447-0.171-3.676-0.252l-1.835-0.14l-1.855-0.194
				c-2.45-0.281-4.903-0.52-7.338-0.834c-2.431-0.343-4.853-0.686-7.254-1.025c-2.391-0.406-4.763-0.811-7.106-1.209
				c-2.331-0.464-4.634-0.921-6.898-1.371c-2.251-0.51-4.465-1.012-6.632-1.503c-2.153-0.549-4.259-1.086-6.309-1.608
				c-2.035-0.578-4.014-1.141-5.928-1.686c-1.899-0.596-3.741-1.145-5.495-1.72c-3.506-1.153-6.689-2.301-9.479-3.398
				c-2.791-1.092-5.201-2.104-7.158-2.997C38.347,102.237,36.227,100.989,36.227,100.989z"/>
		</g>
		<path fill-rule="evenodd" clip-rule="evenodd" fill="#CF6267" d="M190.709,86.86c-5.177-2.645-21.519-7.326-31.793-7.984
			c-10.275-0.658-28.974,5.291-30.946,5.291c-1.972,0-20.003-5.996-31.606-6.758C79.449,76.3,55.115,80.896,25.456,95.87
			c-3.739,1.887-3.309,6.873-3.104,8.203c0.656,4.262,20.632,30.451,25.386,34.848c4.754,4.395,31.55,30.734,74.659,27.102
			s53.979-26.609,58.282-33.207c4.308-6.594,10.751-27.564,13.125-31.037c2.37-3.473,3.974-7.895,3.974-7.895
			S195.886,89.503,190.709,86.86z M188.906,95.685c-4.666,4.953-5.584,6.373-9.55,16.162c-3.965,9.789-11.478,15.43-16.801,19.309
			c-5.322,3.881-24.621,10.457-32.693,11.57c-8.07,1.111-33.481,0.242-50.667-5.35c-17.187-5.592-36.943-14.539-46.178-25.238
			c-9.231-10.701-10.473-10.713-7.915-12.666c2.565-1.957,11.158-4.385,19.185-4.02c8.026,0.367,18.732-0.861,27.582,0.689
			c8.852,1.549,40.984,8.055,48.318,7.91c7.334-0.146,36.32-4.721,46.464-7.154c9.816-2.355,25.512-5.016,28.946-2.809
			c0.113,0.072,0.216,0.152,0.302,0.238L188.906,95.685z"/>
		<g>
			<g>
				<path fill="#F6B8C0" d="M37.044,118.11c0,0,0.505,0.363,1.451,1.046c0.95,0.676,2.342,1.667,4.114,2.928
					c1.778,1.247,3.954,2.736,6.473,4.395c2.519,1.657,5.413,3.438,8.618,5.262c3.217,1.805,6.772,3.609,10.638,5.229
					c3.864,1.626,8.061,2.991,12.481,4.095c4.426,1.101,9.103,1.803,13.895,2.395c4.793,0.578,9.719,0.935,14.659,1.271
					c2.461,0.174,4.969,0.383,7.39,0.51c1.252,0.086,2.416,0.094,3.622,0.141c1.206,0,2.409,0.035,3.606-0.004
					c4.787-0.084,9.49-0.458,13.973-1.245c4.477-0.799,8.743-1.903,12.652-3.351c3.892-1.478,7.468-3.181,10.567-5.104
					c3.1-1.919,5.787-3.949,7.995-5.956c2.202-2.012,4.002-3.919,5.371-5.588c1.363-1.673,2.389-3.038,3.047-3.998
					c0.652-0.967,1-1.482,1-1.482s-0.28,0.556-0.807,1.599c-0.546,1.032-1.359,2.55-2.577,4.376
					c-1.21,1.829-2.815,3.978-4.917,6.228c-2.086,2.261-4.679,4.616-7.791,6.815c-3.091,2.229-6.71,4.282-10.733,6.004
					c-2.015,0.853-4.126,1.631-6.314,2.331c-2.193,0.683-4.47,1.265-6.806,1.742c-4.673,0.938-9.576,1.558-14.568,1.675
					c-1.248,0.052-2.5,0.029-3.757,0.041c-1.255-0.035-2.562-0.037-3.78-0.11c-2.522-0.108-4.969-0.288-7.466-0.439
					c-4.971-0.37-9.956-0.794-14.869-1.431c-4.915-0.607-9.739-1.582-14.328-2.838c-4.593-1.255-8.907-2.925-12.827-4.811
					c-3.939-1.853-7.468-3.956-10.612-6.031c-3.153-2.062-5.919-4.119-8.302-6.017c-2.4-1.874-4.406-3.61-6.05-5.044
					c-1.644-1.438-2.892-2.609-3.741-3.408C37.498,118.535,37.044,118.11,37.044,118.11z"/>
			</g>
			<g>
				<path fill="#F6B8C0" d="M180.184,115.65c0,0,0.292-1.031,0.73-2.578c0.218-0.775,0.447-1.67,0.76-2.631
					c0.149-0.481,0.305-0.979,0.462-1.484c0.142-0.503,0.361-1.029,0.551-1.552l0.287-0.791c0.153-0.338,0.256-0.499,0.381-0.757
					c0.246-0.472,0.457-0.926,0.778-1.353c0.622-0.842,1.282-1.574,1.894-2.108c0.603-0.552,1.15-0.978,1.578-1.237
					c0.414-0.267,0.673-0.39,0.673-0.39c0.054-0.026,0.117-0.003,0.144,0.051c0.012,0.025,0.013,0.053,0.006,0.077l-0.003,0.007
					c0,0-0.087,0.282-0.278,0.726c-0.19,0.44-0.48,1.051-0.863,1.759c-0.186,0.353-0.426,0.723-0.644,1.101
					c-0.217,0.386-0.477,0.766-0.759,1.15c-0.303,0.392-0.616,0.797-0.935,1.208c-0.147,0.19-0.368,0.453-0.451,0.591l-0.368,0.665
					c-0.238,0.454-0.5,0.882-0.714,1.368c-0.224,0.473-0.444,0.938-0.657,1.388c-0.432,0.906-0.834,1.753-1.18,2.478
					c-0.692,1.451-1.206,2.39-1.206,2.39c-0.027,0.049-0.088,0.066-0.137,0.04C180.19,115.743,180.171,115.694,180.184,115.65z"/>
			</g>
			<g>
				<path fill="#F6B8C0" d="M131.998,86.995c0,0,0.215-0.059,0.619-0.17c0.402-0.113,0.999-0.263,1.74-0.504
					c1.486-0.475,3.609-1.153,6.157-1.967c1.274-0.407,2.671-0.809,4.142-1.252c1.487-0.396,3.041-0.866,4.703-1.177
					c0.414-0.083,0.826-0.185,1.251-0.254c0.43-0.056,0.863-0.112,1.298-0.169c0.878-0.136,1.746-0.177,2.627-0.214
					c1.767-0.082,3.556-0.113,5.349-0.099c1.791,0.023,3.581,0.118,5.342,0.234c1.76,0.122,3.487,0.299,5.155,0.502
					c1.668,0.213,3.271,0.49,4.779,0.802c1.507,0.326,2.93,0.642,4.219,1.026c1.304,0.332,2.459,0.773,3.489,1.132
					c1.019,0.394,1.889,0.78,2.611,1.079c1.392,0.712,2.188,1.119,2.188,1.119s-0.823-0.342-2.264-0.94
					c-0.737-0.252-1.624-0.58-2.655-0.905c-1.046-0.287-2.21-0.649-3.511-0.939c-1.289-0.332-2.71-0.59-4.21-0.854
					c-1.505-0.25-3.1-0.451-4.75-0.657c-1.654-0.18-3.367-0.333-5.111-0.432c-1.745-0.094-3.52-0.162-5.295-0.167
					c-1.774-0.038-3.554-0.028-5.295,0.03c-0.874,0.025-1.748,0.057-2.574,0.177c-0.419,0.049-0.835,0.098-1.247,0.146
					c-0.413,0.062-0.822,0.158-1.229,0.233c-1.627,0.301-3.192,0.689-4.682,1.028c-1.48,0.386-2.885,0.731-4.173,1.09
					c-2.58,0.699-4.745,1.25-6.268,1.616c-0.757,0.201-1.365,0.285-1.774,0.368C132.218,86.954,131.998,86.995,131.998,86.995z"/>
			</g>
			<g>
				<path fill="#F6B8C0" d="M45.803,89.112c0,0,0.263-0.112,0.755-0.321c0.496-0.203,1.209-0.535,2.142-0.891
					c1.859-0.736,4.537-1.739,7.792-2.804c1.634-0.514,3.395-1.107,5.29-1.625c1.898-0.511,3.878-1.131,5.983-1.575
					c1.048-0.242,2.113-0.489,3.192-0.738c1.085-0.229,2.196-0.422,3.314-0.613c0.56-0.097,1.121-0.194,1.685-0.291
					c0.564-0.091,1.147-0.136,1.723-0.206c1.158-0.118,2.305-0.277,3.482-0.36c2.249-0.119,4.626-0.12,6.865-0.097
					c2.264,0.023,4.487,0.183,6.634,0.35c2.148,0.159,4.217,0.432,6.172,0.721c1.955,0.295,3.794,0.646,5.476,1.051
					c1.685,0.383,3.212,0.824,4.541,1.291c1.337,0.434,2.464,0.944,3.374,1.375c0.904,0.457,1.585,0.858,2.018,1.186
					c0.44,0.305,0.676,0.467,0.676,0.467s-0.263-0.113-0.755-0.324c-0.249-0.098-0.536-0.25-0.904-0.366
					c-0.365-0.118-0.784-0.255-1.254-0.406c-0.949-0.271-2.105-0.565-3.452-0.822c-0.667-0.149-1.393-0.251-2.151-0.367
					c-0.755-0.131-1.56-0.229-2.396-0.337c-1.673-0.21-3.497-0.359-5.422-0.521c-1.931-0.135-3.968-0.226-6.076-0.309
					c-2.108-0.089-4.29-0.068-6.502-0.091c-2.235,0.013-4.408,0.047-6.7,0.195c-1.091,0.061-2.2,0.199-3.297,0.293
					c-0.549,0.059-1.097,0.09-1.645,0.169c-0.549,0.087-1.096,0.173-1.641,0.259c-1.092,0.165-2.175,0.329-3.244,0.491
					c-1.07,0.196-2.127,0.39-3.166,0.579c-2.081,0.366-4.088,0.802-5.998,1.165c-1.908,0.395-3.712,0.769-5.377,1.113
					C50.256,88.168,45.803,89.112,45.803,89.112z"/>
			</g>
			<g>
				<path fill="#F6B8C0" d="M119.56,86.813c0,0,0.174-0.102,0.379-0.133c0.209-0.04,0.45-0.015,0.658,0.082
					c0.205,0.104,0.376,0.278,0.476,0.469c0.104,0.183,0.136,0.385,0.136,0.385s-0.175,0.102-0.38,0.135
					c-0.209,0.039-0.45,0.014-0.657-0.084c-0.204-0.104-0.375-0.279-0.476-0.47C119.592,87.015,119.56,86.813,119.56,86.813z"/>
			</g>
			<g>
				<path fill="#F6B8C0" d="M44.027,89.733c0,0-0.067,0.2-0.213,0.376c-0.143,0.183-0.362,0.348-0.608,0.437
					c-0.131,0.028-0.242,0.08-0.366,0.088c-0.12,0.017-0.241,0.012-0.354-0.008c-0.22-0.031-0.408-0.131-0.408-0.131
					s0.05-0.207,0.188-0.399c0.134-0.194,0.354-0.401,0.602-0.491c0.249-0.082,0.524-0.088,0.753-0.033
					C43.847,89.619,44.027,89.733,44.027,89.733z"/>
			</g>
		</g>
		<g>
			<path fill-rule="evenodd" clip-rule="evenodd" fill="#E5E4E6" d="M71.627,115.569c-0.241,1.073-1.317,1.753-2.391,1.512
				l-4.109-0.928c-1.073-0.241-1.753-1.317-1.512-2.391l0.978-4.332c0.241-1.073,1.317-1.753,2.391-1.511l4.108,0.926
				c1.073,0.242,1.753,1.318,1.512,2.392L71.627,115.569z"/>
			<path fill="#C8C8C9" d="M71.627,115.569c0,0-0.036,0.111-0.104,0.318c-0.081,0.2-0.238,0.492-0.548,0.763
				c-0.301,0.271-0.781,0.513-1.361,0.495c-0.575-0.047-1.187-0.238-1.875-0.371c-0.683-0.149-1.424-0.311-2.206-0.482
				c-0.393-0.082-0.803-0.172-1.169-0.427c-0.35-0.257-0.62-0.63-0.759-1.058c-0.154-0.426-0.109-0.918,0.005-1.346
				c0.096-0.439,0.193-0.885,0.291-1.333c0.196-0.897,0.396-1.809,0.595-2.72c0.217-0.967,1.181-1.676,2.143-1.613
				c0.935,0.142,1.785,0.395,2.646,0.577c0.426,0.1,0.845,0.196,1.255,0.292c0.407,0.103,0.828,0.157,1.175,0.394
				c0.707,0.432,1.051,1.261,0.947,1.961c-0.115,0.696-0.291,1.31-0.41,1.867c-0.129,0.554-0.241,1.036-0.334,1.434
				C71.732,115.115,71.627,115.569,71.627,115.569z M71.627,115.569c0,0,0.1-0.455,0.273-1.253c0.087-0.398,0.193-0.883,0.314-1.438
				c0.11-0.555,0.28-1.181,0.384-1.865c0.094-0.679-0.256-1.475-0.931-1.873c-0.325-0.22-0.75-0.273-1.153-0.368
				c-0.411-0.089-0.831-0.181-1.259-0.274c-0.851-0.17-1.745-0.416-2.626-0.538c-0.891-0.039-1.749,0.61-1.94,1.494
				c-0.211,0.908-0.423,1.817-0.631,2.711c-0.104,0.447-0.207,0.891-0.309,1.329c-0.12,0.437-0.163,0.867-0.024,1.276
				c0.124,0.403,0.374,0.76,0.702,1.008c0.328,0.237,0.735,0.341,1.124,0.425c0.781,0.182,1.52,0.354,2.2,0.512
				c0.683,0.142,1.303,0.343,1.863,0.395c0.568,0.025,1.046-0.207,1.349-0.471c0.31-0.265,0.471-0.552,0.555-0.751
				C71.589,115.68,71.627,115.569,71.627,115.569z"/>
		</g>
		<g>
			<path fill-rule="evenodd" clip-rule="evenodd" fill="#E5E4E6" d="M92.503,120.551c-0.143,1.091-1.151,1.867-2.242,1.725
				l-5.178-0.674c-1.091-0.143-1.867-1.151-1.726-2.242l0.729-5.592c0.142-1.091,1.15-1.867,2.241-1.725l5.18,0.678
				c1.091,0.143,1.867,1.151,1.725,2.242L92.503,120.551z"/>
			<path fill="#C8C8C9" d="M92.503,120.551c0,0-0.03,0.131-0.086,0.375c-0.094,0.228-0.233,0.59-0.604,0.892
				c-0.35,0.303-0.919,0.559-1.58,0.473c-0.647-0.08-1.378-0.171-2.175-0.27c-0.797-0.1-1.66-0.207-2.573-0.32
				c-0.45-0.039-0.949-0.129-1.353-0.435c-0.4-0.29-0.7-0.738-0.805-1.245c-0.11-0.518,0.023-1.032,0.072-1.54
				c0.063-0.513,0.128-1.031,0.193-1.554c0.13-1.046,0.262-2.108,0.395-3.171c0.123-1.152,1.316-1.988,2.409-1.786
				c1.044,0.143,2.072,0.283,3.066,0.42c0.497,0.067,0.986,0.135,1.465,0.2c0.477,0.067,0.962,0.105,1.375,0.364
				c0.829,0.5,1.112,1.513,0.923,2.293C92.792,118.429,92.503,120.551,92.503,120.551z M92.503,120.551c0,0,0.265-2.125,0.661-5.312
				c0.176-0.776-0.112-1.732-0.909-2.204c-0.381-0.237-0.867-0.276-1.342-0.336c-0.479-0.06-0.969-0.121-1.467-0.184
				c-0.996-0.124-2.025-0.252-3.071-0.383c-1.019-0.175-2.088,0.607-2.19,1.649c-0.145,1.062-0.289,2.122-0.432,3.166
				c-0.07,0.522-0.142,1.04-0.211,1.552c-0.057,0.513-0.19,1.021-0.091,1.496c0.092,0.477,0.37,0.904,0.746,1.183
				c0.371,0.29,0.84,0.386,1.299,0.431c0.912,0.124,1.773,0.241,2.569,0.35s1.525,0.208,2.172,0.296
				c0.649,0.092,1.213-0.153,1.564-0.45c0.371-0.294,0.515-0.653,0.611-0.879C92.472,120.681,92.503,120.551,92.503,120.551z"/>
		</g>
		<g>
			<path fill-rule="evenodd" clip-rule="evenodd" fill="#E5E4E6" d="M118.202,123.432c-0.062,1.099-1.012,1.946-2.11,1.884
				l-5.904-0.336c-1.099-0.062-1.946-1.012-1.884-2.11l0.362-6.387c0.062-1.099,1.012-1.946,2.11-1.884l5.906,0.336
				c1.099,0.062,1.946,1.012,1.884,2.11L118.202,123.432z"/>
			<path fill="#C8C8C9" d="M118.202,123.432c0,0-0.023,0.144-0.066,0.412c-0.087,0.253-0.229,0.647-0.618,0.989
				c-0.375,0.352-1.011,0.562-1.721,0.484c-0.707-0.037-1.504-0.078-2.374-0.123s-1.812-0.093-2.81-0.145
				c-0.487-0.005-1.043-0.065-1.487-0.391c-0.442-0.305-0.771-0.799-0.861-1.355c-0.04-1.114,0.087-2.219,0.124-3.366
				c0.06-1.146,0.119-2.309,0.179-3.472c0.03-0.572,0.367-1.196,0.851-1.536c0.479-0.379,1.134-0.46,1.694-0.394
				c1.141,0.071,2.264,0.141,3.351,0.209c0.543,0.033,1.078,0.066,1.601,0.1c0.518,0.031,1.057,0.038,1.507,0.312
				c0.444,0.252,0.771,0.665,0.926,1.117c0.169,0.461,0.084,0.934,0.068,1.361C118.347,121.113,118.202,123.432,118.202,123.432z
				 M118.202,123.432c0,0,0.12-2.319,0.3-5.8c0.011-0.434,0.088-0.895-0.079-1.332c-0.154-0.434-0.472-0.825-0.898-1.062
				c-0.419-0.252-0.948-0.26-1.467-0.283c-0.523-0.027-1.059-0.055-1.602-0.083c-1.088-0.056-2.211-0.113-3.354-0.172
				c-0.569-0.058-1.13,0.025-1.576,0.376c-0.445,0.347-0.726,0.829-0.762,1.422c-0.071,1.156-0.144,2.312-0.214,3.449
				c-0.05,1.135-0.188,2.278-0.161,3.338c0.079,0.522,0.384,0.993,0.8,1.286c0.413,0.31,0.928,0.376,1.43,0.388
				c0.996,0.062,1.938,0.12,2.808,0.175c0.869,0.054,1.666,0.104,2.372,0.147c0.706,0.084,1.329-0.115,1.708-0.461
				c0.389-0.335,0.535-0.725,0.625-0.977C118.178,123.574,118.202,123.432,118.202,123.432z"/>
		</g>
		<g>
			<path fill-rule="evenodd" clip-rule="evenodd" fill="#E5E4E6" d="M144.113,122.274c0.11,1.095-0.695,2.08-1.79,2.19l-4.991,0.502
				c-1.095,0.11-2.08-0.695-2.19-1.79l-0.506-5.051c-0.11-1.095,0.695-2.08,1.79-2.189l4.991-0.5c1.095-0.109,2.08,0.696,2.19,1.791
				L144.113,122.274z"/>
			<path fill="#C8C8C9" d="M144.123,122.274c0,0,0.001,0.128,0.004,0.367c-0.027,0.236-0.08,0.605-0.347,0.977
				c-0.247,0.372-0.704,0.756-1.337,0.865c-0.621,0.093-1.318,0.153-2.081,0.244c-0.763,0.085-1.588,0.178-2.461,0.275
				c-0.44,0.044-0.891,0.133-1.38-0.021c-0.462-0.147-0.88-0.46-1.147-0.884c-0.284-0.423-0.338-0.959-0.376-1.437
				c-0.048-0.491-0.096-0.987-0.146-1.489c-0.098-1.001-0.197-2.02-0.296-3.037c-0.127-1.077,0.722-2.137,1.775-2.25
				c1.003-0.1,1.989-0.198,2.944-0.293c0.477-0.046,0.946-0.092,1.405-0.136c0.456-0.036,0.912-0.13,1.357-0.021
				c0.903,0.183,1.505,0.979,1.588,1.749C143.925,120.237,144.123,122.274,144.123,122.274z M144.104,122.274
				c0,0-0.213-2.033-0.532-5.083c-0.09-0.747-0.69-1.506-1.548-1.666c-0.418-0.098-0.874-0.003-1.331,0.037
				c-0.459,0.048-0.928,0.096-1.404,0.146c-0.952,0.102-1.937,0.207-2.937,0.313c-0.982,0.114-1.76,1.104-1.636,2.099
				c0.104,1.018,0.209,2.034,0.312,3.036c0.051,0.5,0.103,0.997,0.152,1.487c0.043,0.498,0.094,0.968,0.354,1.353
				c0.245,0.385,0.627,0.667,1.046,0.799c0.406,0.131,0.875,0.056,1.303,0.022c0.876-0.078,1.703-0.151,2.468-0.22
				c0.762-0.072,1.468-0.119,2.08-0.197c0.608-0.092,1.061-0.452,1.31-0.81c0.269-0.359,0.328-0.717,0.359-0.949
				C144.102,122.402,144.104,122.274,144.104,122.274z"/>
		</g>
		<g>
			<path fill-rule="evenodd" clip-rule="evenodd" fill="#E5E4E6" d="M161.686,117.226c0.138,1.092-0.643,2.097-1.734,2.234
				l-3.356,0.424c-1.092,0.138-2.097-0.643-2.234-1.734l-0.55-4.355c-0.138-1.092,0.643-2.097,1.734-2.234l3.357-0.422
				c1.092-0.138,2.097,0.643,2.234,1.734L161.686,117.226z"/>
			<g>
				<path fill="#C8C8C9" d="M161.695,117.225c0,0,0.004,0.11,0.012,0.315c0.001,0.205-0.05,0.515-0.212,0.867
					c-0.177,0.344-0.505,0.723-1.007,0.943c-0.514,0.21-1.125,0.221-1.772,0.331c-0.651,0.091-1.358,0.189-2.105,0.294
					c-0.379,0.039-0.81-0.008-1.184-0.194c-0.369-0.192-0.689-0.488-0.907-0.861c-0.219-0.38-0.26-0.832-0.311-1.241
					c-0.052-0.42-0.104-0.846-0.157-1.274c-0.105-0.857-0.213-1.729-0.32-2.6c-0.104-0.903,0.438-1.864,1.291-2.171
					c0.424-0.162,0.859-0.175,1.276-0.232c0.42-0.051,0.835-0.102,1.243-0.151c0.409-0.05,0.811-0.099,1.203-0.146
					c0.395-0.05,0.804-0.04,1.162,0.128c0.735,0.275,1.168,0.985,1.258,1.636C161.483,115.481,161.695,117.225,161.695,117.225z
					 M161.676,117.227c0,0-0.227-1.74-0.567-4.352c-0.098-0.631-0.527-1.307-1.234-1.558c-0.685-0.306-1.513-0.011-2.317,0.048
					c-0.408,0.053-0.822,0.106-1.242,0.161c-0.418,0.062-0.856,0.082-1.24,0.234c-0.796,0.3-1.285,1.182-1.185,2.023
					c0.112,0.871,0.226,1.741,0.336,2.598c0.055,0.429,0.11,0.854,0.164,1.273c0.056,0.426,0.095,0.828,0.295,1.172
					c0.2,0.338,0.493,0.604,0.828,0.778c0.345,0.163,0.703,0.204,1.074,0.186c0.75-0.085,1.459-0.165,2.113-0.238
					c0.647-0.092,1.271-0.092,1.755-0.28c0.487-0.199,0.814-0.558,0.995-0.889C161.792,117.694,161.646,117.216,161.676,117.227z"/>
			</g>
		</g>
		<g>
			<path fill-rule="evenodd" clip-rule="evenodd" fill="#E5E4E6" d="M172.083,110.921c0.109,1.095-0.696,2.08-1.791,2.189
				l-1.061,0.107c-1.095,0.109-2.08-0.696-2.189-1.791l-0.241-2.404c-0.109-1.095,0.696-2.08,1.791-2.189l1.061-0.105
				c1.095-0.109,2.08,0.696,2.189,1.791L172.083,110.921z"/>
			<g>
				<path fill="#C8C8C9" d="M172.093,110.921c-0.021-0.001,0.066,0.307-0.082,0.835c-0.094,0.249-0.226,0.563-0.506,0.824
					c-0.265,0.263-0.645,0.515-1.117,0.577c-0.462,0.059-0.936,0.151-1.479,0.153c-0.556-0.018-1.122-0.294-1.502-0.759
					c-0.405-0.463-0.484-1.13-0.519-1.709c-0.056-0.598-0.111-1.204-0.167-1.812c-0.06-0.62,0.2-1.286,0.651-1.7
					c0.441-0.454,1.1-0.584,1.655-0.6c0.558-0.061,1.147-0.125,1.643,0.123c0.489,0.222,0.846,0.622,1.026,1.046
					c0.19,0.429,0.18,0.863,0.224,1.228c0.036,0.37,0.066,0.692,0.092,0.958C172.063,110.616,172.093,110.921,172.093,110.921z
					 M172.073,110.921c0,0-0.032-0.302-0.088-0.832c-0.027-0.266-0.062-0.588-0.101-0.957c-0.046-0.366-0.042-0.8-0.239-1.208
					c-0.185-0.408-0.539-0.785-1.012-0.985c-0.469-0.221-1.028-0.162-1.594-0.092c-0.574,0.026-1.155,0.154-1.572,0.584
					c-0.417,0.41-0.646,0.984-0.587,1.585c0.065,0.605,0.131,1.212,0.195,1.809c0.051,0.604,0.118,1.176,0.485,1.602
					c0.344,0.428,0.861,0.655,1.348,0.698c0.505,0.021,1.016-0.057,1.46-0.096c0.445-0.04,0.813-0.266,1.077-0.509
					c0.278-0.239,0.416-0.54,0.518-0.78C172.126,111.239,172.053,110.917,172.073,110.921z"/>
			</g>
		</g>
		<g>
			<path fill-rule="evenodd" clip-rule="evenodd" fill="#E5E4E6" d="M177.718,104.827c0.241,1.073-0.343,2.128-1.299,2.344
				c-0.957,0.216-1.937-0.485-2.179-1.559l-0.361-1.607c-0.242-1.073,0.343-2.127,1.299-2.343s1.937,0.486,2.178,1.56
				L177.718,104.827z"/>
			<g>
				<path fill="#C8C8C9" d="M177.728,104.825c-0.02,0.003,0.081,0.229,0.056,0.65c-0.006,0.209-0.049,0.468-0.172,0.735
					c-0.11,0.272-0.314,0.555-0.614,0.769c-0.294,0.229-0.706,0.343-1.13,0.302c-0.44-0.038-0.855-0.269-1.177-0.605
					c-0.332-0.331-0.505-0.815-0.593-1.27c-0.098-0.456-0.197-0.919-0.297-1.383c-0.098-0.468-0.047-0.999,0.166-1.427
					c0.207-0.434,0.581-0.783,1.018-0.929c0.435-0.151,0.903-0.102,1.282,0.082c0.379,0.185,0.647,0.49,0.838,0.791
					c0.184,0.312,0.264,0.638,0.323,0.917c0.062,0.282,0.115,0.528,0.16,0.73C177.677,104.594,177.728,104.825,177.728,104.825z
					 M177.708,104.829c0,0-0.054-0.23-0.147-0.635c-0.047-0.201-0.104-0.447-0.169-0.729c-0.062-0.281-0.145-0.598-0.335-0.895
					c-0.194-0.288-0.463-0.574-0.829-0.738c-0.357-0.162-0.802-0.203-1.205-0.056c-0.403,0.142-0.744,0.471-0.932,0.879
					c-0.19,0.413-0.234,0.873-0.134,1.332c0.108,0.462,0.218,0.923,0.324,1.377c0.104,0.45,0.249,0.867,0.555,1.175
					c0.575,0.628,1.519,0.74,2.089,0.332c0.286-0.184,0.493-0.44,0.61-0.696c0.13-0.25,0.184-0.502,0.198-0.702
					C177.778,105.066,177.688,104.828,177.708,104.829z"/>
			</g>
		</g>
		<g>
			<path fill-rule="evenodd" clip-rule="evenodd" fill="#E5E4E6" d="M182.537,98.552c0.241,1.073-0.343,2.128-1.3,2.344
				c-0.956,0.216-1.937-0.485-2.178-1.559l-0.291-1.287c-0.241-1.073,0.343-2.128,1.3-2.344s1.938,0.485,2.179,1.559L182.537,98.552
				z"/>
			<g>
				<path fill="#C8C8C9" d="M182.547,98.55c-0.018,0.002,0.073,0.221,0.053,0.622c-0.001,0.2-0.045,0.445-0.148,0.706
					c-0.085,0.271-0.286,0.532-0.545,0.77c-0.27,0.217-0.67,0.369-1.057,0.376c-0.436,0.009-0.845-0.188-1.182-0.476
					c-0.332-0.294-0.59-0.701-0.689-1.157c-0.096-0.439-0.192-0.885-0.289-1.331c-0.089-0.435-0.048-0.949,0.143-1.361
					c0.186-0.421,0.521-0.771,0.926-0.945c0.833-0.371,1.738,0.093,2.107,0.646c0.426,0.56,0.442,1.168,0.548,1.541
					C182.498,98.328,182.547,98.55,182.547,98.55z M182.527,98.554c0,0-0.051-0.221-0.141-0.607
					c-0.114-0.371-0.13-0.984-0.566-1.513c-0.198-0.271-0.505-0.493-0.861-0.616c-0.34-0.123-0.793-0.139-1.154,0.042
					c-0.374,0.169-0.68,0.498-0.847,0.894c-0.169,0.404-0.206,0.832-0.11,1.286c0.105,0.438,0.21,0.876,0.313,1.308
					c0.104,0.416,0.337,0.785,0.639,1.051c0.298,0.267,0.687,0.422,1.036,0.439c0.396,0.01,0.712-0.104,0.99-0.292
					c0.248-0.209,0.456-0.443,0.556-0.697c0.118-0.242,0.172-0.483,0.177-0.677C182.593,98.78,182.51,98.553,182.527,98.554z"/>
			</g>
		</g>
		<g>
			<path fill-rule="evenodd" clip-rule="evenodd" fill="#E5E4E6" d="M56.17,111.12c-0.365,1.038-1.513,1.588-2.551,1.223
				l-3.209-1.129c-1.038-0.365-1.588-1.513-1.223-2.551l1.474-4.188c0.365-1.038,1.513-1.588,2.551-1.223l3.21,1.129
				c1.038,0.365,1.588,1.513,1.223,2.551L56.17,111.12z"/>
			<path fill="#C8C8C9" d="M56.17,111.12c0,0-0.046,0.1-0.133,0.288c-0.093,0.183-0.276,0.435-0.581,0.673
				c-0.312,0.227-0.775,0.413-1.319,0.38c-0.545-0.048-1.101-0.316-1.73-0.512c-0.627-0.216-1.306-0.45-2.024-0.697
				c-0.348-0.135-0.697-0.371-0.949-0.693c-0.239-0.332-0.391-0.736-0.415-1.163c-0.033-0.434,0.144-0.849,0.273-1.244
				c0.139-0.402,0.278-0.81,0.42-1.221c0.284-0.824,0.572-1.661,0.86-2.498c0.308-0.85,1.249-1.478,2.156-1.359
				c0.457,0.053,0.851,0.237,1.252,0.373c0.4,0.144,0.796,0.286,1.185,0.426c0.39,0.141,0.771,0.277,1.146,0.412
				c0.374,0.138,0.739,0.332,0.982,0.646c0.525,0.584,0.598,1.418,0.371,2.04C56.768,109.46,56.17,111.12,56.17,111.12z
				 M56.17,111.12c0,0,0.574-1.668,1.436-4.17c0.211-0.608,0.127-1.408-0.383-1.959c-0.473-0.588-1.349-0.694-2.101-0.999
				c-0.391-0.135-0.789-0.271-1.191-0.409c-0.403-0.132-0.809-0.309-1.217-0.348c-0.847-0.083-1.67,0.467-1.962,1.282
				c-0.298,0.827-0.595,1.653-0.888,2.468c-0.147,0.408-0.293,0.813-0.438,1.214c-0.139,0.404-0.309,0.787-0.283,1.192
				c0.018,0.4,0.154,0.783,0.376,1.102c0.241,0.311,0.544,0.528,0.902,0.675c0.711,0.257,1.384,0.499,2.005,0.723
				c0.626,0.204,1.185,0.481,1.713,0.533c0.533,0.04,0.994-0.136,1.307-0.356C56.068,111.595,56.147,111.097,56.17,111.12z"/>
		</g>
		<g>
			<path fill-rule="evenodd" clip-rule="evenodd" fill="#E5E4E6" d="M44.223,105.956c-0.358,1.04-1.503,1.598-2.543,1.238
				l-1.688-0.582c-1.04-0.359-1.597-1.503-1.238-2.543l1.181-3.424c0.359-1.04,1.503-1.598,2.543-1.238l1.688,0.582
				c1.04,0.359,1.598,1.503,1.238,2.543L44.223,105.956z"/>
			<path fill="#C8C8C9" d="M44.223,105.956c0,0-0.038,0.083-0.108,0.239c-0.029,0.081-0.081,0.173-0.16,0.27
				c-0.068,0.104-0.155,0.218-0.281,0.32c-0.227,0.223-0.581,0.429-1.023,0.501c-0.444,0.095-0.958-0.039-1.466-0.229
				c-0.506-0.197-1.108-0.308-1.654-0.628c-0.535-0.353-0.95-0.988-0.938-1.704c-0.026-0.356,0.115-0.707,0.218-1.034
				c0.112-0.334,0.226-0.672,0.339-1.013c0.23-0.684,0.463-1.379,0.696-2.074c0.252-0.69,0.935-1.278,1.678-1.354
				c0.369-0.068,0.749,0.008,1.084,0.126c0.332,0.117,0.66,0.233,0.982,0.348c0.317,0.112,0.649,0.221,0.94,0.375
				c0.287,0.184,0.542,0.41,0.701,0.688c0.342,0.546,0.395,1.205,0.21,1.729C44.709,104.58,44.223,105.956,44.223,105.956z
				 M44.223,105.956c0,0,0.463-1.384,1.157-3.46c0.17-0.512,0.106-1.145-0.229-1.66c-0.158-0.266-0.403-0.472-0.669-0.64
				c-0.296-0.149-0.606-0.243-0.937-0.354c-0.653-0.175-1.311-0.574-2-0.433c-0.697,0.104-1.273,0.595-1.521,1.277
				c-0.243,0.685-0.485,1.369-0.725,2.044c-0.207,0.68-0.561,1.337-0.584,1.993c-0.027,0.67,0.365,1.285,0.857,1.623
				c0.531,0.325,1.123,0.442,1.63,0.649c0.51,0.201,0.999,0.337,1.439,0.253c0.436-0.064,0.789-0.261,1.019-0.478
				c0.126-0.1,0.214-0.21,0.284-0.312c0.08-0.096,0.134-0.186,0.164-0.267C44.184,106.038,44.223,105.956,44.223,105.956z"/>
		</g>
	</g>
</g>
<g id="Guides" display="none">
</g>
</svg>
