<?xml version="1.0" encoding="utf-8"?>
<!-- Generator: Adobe Illustrator 16.0.0, SVG Export Plug-In . SVG Version: 6.00 Build 0)  -->
<!DOCTYPE svg PUBLIC "-//W3C//DTD SVG 1.1//EN" "http://www.w3.org/Graphics/SVG/1.1/DTD/svg11.dtd">
<svg version="1.1" xmlns="http://www.w3.org/2000/svg" xmlns:xlink="http://www.w3.org/1999/xlink" x="0px" y="0px" width="220px"
	 height="220.001px" viewBox="0 0 220 220.001" enable-background="new 0 0 220 220.001" xml:space="preserve">
<g id="Background">
</g>
<g id="Layer_1">
	<g>
		<g>
			<path fill-rule="evenodd" clip-rule="evenodd" fill="#04A8BD" d="M220,193.17C220,207.926,207.927,220,193.171,220H26.829
				C12.073,220,0,207.926,0,193.17V26.829C0,12.073,12.073,0,26.829,0h166.342C207.927,0,220,12.073,220,26.829V193.17z"/>
		</g>
		<g>
			<path fill-rule="evenodd" clip-rule="evenodd" fill="#F2F2F2" d="M167.934,60.706c-3.883-5.642-11.969-8.764-17.439-7.674
				c-4.826,0.963-8.352,1.07-15.217-2.471c-9.956-5.136-21.735-2.84-28.805,0.688c-13.626,6.795-21.157,3.073-28.724,1.215
				c-6.273-1.539-11.065-1.662-17.785,3.524c-3.384,2.718-6.701,9.663-6.177,22.878c0.333,8.443,2.893,16.309,5.749,24.09
				c2.341,6.383,6.927,25.836,8.409,38.471c1.145,9.777,2.369,37.635,3.465,43.916c1.544,8.898,7.704,27.488,13.535,35.713
				c2.815,3.977,8.579,9.479,15.194,9.479c3.176,0,5.814-1.863,7.024-7.803c0.99-9.35-0.486-20.109-0.545-22.93
				c-0.188-8.682,1.488-25.738,2.927-31.418c1.083-4.279,3.495-15.783,4.541-15.604c1.547,0.266,3.037,20.646,3.188,22.156
				c0.778,7.811-0.002,20.053-0.167,21.871c-0.979,10.744-0.979,16.674-0.86,19.771c0.23,6.043,4.116,11.213,8.824,10.537
				c7.416-1.062,14.689-11.205,17.408-17.203c2.646-5.836,6.262-14.682,9.412-30.619c1.975-9.99,4.978-39.709,5.586-44.24
				c2.704-20.232,6.886-25.621,9.933-34.778C174.048,80.335,172.395,67.192,167.934,60.706z"/>
			<path fill-rule="evenodd" clip-rule="evenodd" fill="#FFFFFF" d="M98.435,63.343c8.942,0.93,16.613,5.574,31.867,5.279
				c15.252-0.293,23.667-8.796,27.866-8.8c15.84-0.015-0.997,35.78-3.813,48.841c-3.227,14.959-6.933,59.121-8.507,69.078
				c-3.705,23.43-10.105,48.488-20.775,49.375c-7.302,0.607,4.568-20.854,8.703-51.346c1.21-8.916,1.133-19.74-2.438-29.258
				c-1.454-3.873-14.529-4.85-18.549,8.945c-0.934,3.207-2.3,7.135-3.242,12.926c-1.493,9.182-3.178,27.777-2.927,31.418
				c0.384,5.562,1.186,17.146,0.545,22.93c-0.686,6.201-2.903,6.447-5.025,7.512c-4.104,2.059-15.545-16.715-18.185-28.74
				c-2.64-12.027-0.215-31.094,1.361-45.174c1.572-14.08,0.479-48.4,0-56.614c-0.481-8.213-4.216-26.693,0-30.799
				C89.528,64.81,92.29,62.704,98.435,63.343z"/>
			<path fill="#D1D2D3" fill-opacity="0.5" d="M69.401,59.822c2.003,2.675,9.613,1.907,13.696,0.88
				c4.084-1.027,12.59-2.934,17.284-3.08c4.692-0.146,17.863,3.202,22.292,3.563c6.416,0.524,9.975-2.47,5.868-4.517
				c-4.106-2.05-29.334,0.807-33.88,0.807c-4.548,0-9.938,0.154-15.66,0.706C74.86,58.581,67.755,57.623,69.401,59.822z"/>
		</g>
		<path fill="#D6727D" d="M190.334,119.792c-14.578,0.633-28.961-3.43-30.841,3.672c-8.076,30.537-58.568,23.229-79.069,21.646
			c-9.833-0.76-13.246-11.541-14.926-19.537c-1.456-6.932-43.154-6.32-65.498-5.734v76.551C0,209.375,10.624,220,23.608,220H196.39
			c12.985,0,23.61-10.625,23.61-23.609v-75.377C207.144,121.013,198.949,119.417,190.334,119.792z"/>
		<path fill="#F6B8C0" fill-opacity="0.5" d="M112.788,153.597c16.916-0.902,38.087-7.072,44.222-14.547
			c6.134-7.477,6.72-16.277,11.414-15.104c4.693,1.174,0.518,12.918-3.555,18.779c-4.071,5.861-16.394,12.902-28.125,15.834
			c-11.734,2.934-71.574,2.779-67.585-4.963C73.732,144.716,95.872,154.501,112.788,153.597z"/>
	</g>
</g>
<g id="Guides" display="none">
</g>
</svg>
