<?xml version="1.0" encoding="utf-8"?>
<!-- Generator: Adobe Illustrator 16.0.0, SVG Export Plug-In . SVG Version: 6.00 Build 0)  -->
<!DOCTYPE svg PUBLIC "-//W3C//DTD SVG 1.1//EN" "http://www.w3.org/Graphics/SVG/1.1/DTD/svg11.dtd">
<svg version="1.1" xmlns="http://www.w3.org/2000/svg" xmlns:xlink="http://www.w3.org/1999/xlink" x="0px" y="0px" width="220px"
	 height="220px" viewBox="0 0 220 220" enable-background="new 0 0 220 220" xml:space="preserve">
<g id="Background">
</g>
<g id="Layer_1">
	<g>
		<path fill-rule="evenodd" clip-rule="evenodd" fill="#04A8BD" d="M220,193.171C220,207.927,207.927,220,193.171,220H26.829
			C12.073,220,0,207.927,0,193.171V26.829C0,12.073,12.073,0,26.829,0h166.342C207.927,0,220,12.073,220,26.829V193.171z"/>
	</g>
	<g>
		<line fill-rule="evenodd" clip-rule="evenodd" fill="#F2F2F2" x1="162.231" y1="48.943" x2="162.231" y2="106.682"/>
		<g>
			<line fill="none" stroke="#FFFFFF" stroke-miterlimit="10" x1="162.231" y1="48.943" x2="162.231" y2="104.396"/>
			<g>
				<polygon fill="#FFFFFF" points="158.841,100.412 162.231,103.805 165.622,100.412 165.622,103.291 162.231,106.682 
					158.841,103.291 				"/>
			</g>
		</g>
	</g>
	<g>
		<line fill-rule="evenodd" clip-rule="evenodd" fill="#F2F2F2" x1="60.737" y1="48.943" x2="60.737" y2="106.682"/>
		<g>
			<line fill="none" stroke="#FFFFFF" stroke-miterlimit="10" x1="60.737" y1="48.943" x2="60.737" y2="104.396"/>
			<g>
				<polygon fill="#FFFFFF" points="57.347,100.412 60.737,103.805 64.128,100.412 64.128,103.291 60.737,106.682 57.347,103.291 
									"/>
			</g>
		</g>
	</g>
	<g>
		<line fill-rule="evenodd" clip-rule="evenodd" fill="#F2F2F2" x1="74.772" y1="41.051" x2="74.772" y2="98.789"/>
		<g>
			<line fill="none" stroke="#FFFFFF" stroke-miterlimit="10" x1="74.772" y1="41.051" x2="74.772" y2="96.503"/>
			<g>
				<polygon fill="#FFFFFF" points="71.382,92.52 74.772,95.912 78.163,92.52 78.163,95.398 74.772,98.789 71.382,95.398 				"/>
			</g>
		</g>
	</g>
	<g>
		<line fill-rule="evenodd" clip-rule="evenodd" fill="#F2F2F2" x1="109.776" y1="29.936" x2="109.776" y2="87.674"/>
		<g>
			<line fill="none" stroke="#FFFFFF" stroke-miterlimit="10" x1="109.776" y1="29.936" x2="109.776" y2="85.388"/>
			<g>
				<polygon fill="#FFFFFF" points="106.386,81.404 109.776,84.797 113.167,81.404 113.167,84.283 109.776,87.674 106.386,84.283 
									"/>
			</g>
		</g>
	</g>
	<g>
		<line fill-rule="evenodd" clip-rule="evenodd" fill="#F2F2F2" x1="148.151" y1="37.041" x2="148.151" y2="94.779"/>
		<g>
			<line fill="none" stroke="#FFFFFF" stroke-miterlimit="10" x1="148.151" y1="37.041" x2="148.151" y2="92.493"/>
			<g>
				<polygon fill="#FFFFFF" points="144.761,88.51 148.151,91.902 151.542,88.51 151.542,91.389 148.151,94.779 144.761,91.389 				
					"/>
			</g>
		</g>
	</g>
	<path fill="#D6727D" d="M194.205,110.449c-14.577,0.635-67.067,10.885-78.146,9.977C109,119.844,22.344,108.254,0,108.84v87.551
		C0,209.375,10.625,220,23.61,220H196.39c12.987,0,23.61-10.625,23.61-23.609v-86.377
		C207.144,110.014,202.819,110.074,194.205,110.449z"/>
	<g>
		<g>
			<g>
				<path fill-rule="evenodd" clip-rule="evenodd" fill="#F2F2F2" d="M70.96,47.279c1.173,3.062,3.063,9.967,4.655,17.145
					c0.147,0.201,0.252,0.406,0.302,0.627c1.415,6.287,4.23,14.754,11.993,15.24c16.188,1.018,56.094,6.211,62.119-17.965
					c0,0,0,0,0-0.002c1.854-8.898,4.199-12.75,5.983-18.375c5.009-15.805,3.556-26.15-0.036-31.217
					c-3.125-4.404-9.537-6.775-13.841-5.854c-3.797,0.812-6.573,0.938-12.028-1.779c-7.911-3.938-17.175-1.992-22.711,0.869
					C96.727,11.48,90.743,8.631,84.755,7.25c-4.966-1.143-8.745-1.186-13.987,2.98c-2.637,2.182-5.175,7.697-4.613,18.113
					C66.512,35,68.619,41.174,70.96,47.279z"/>
			</g>
		</g>
		<path fill="#D1D2D3" fill-opacity="0.5" d="M78.255,13.148c1.608,2.088,7.604,1.395,10.812,0.539s9.898-2.457,13.597-2.625
			c3.699-0.168,14.125,2.326,17.623,2.559c5.066,0.344,7.837-2.059,4.576-3.627c-3.262-1.57-23.125,0.967-26.712,1.018
			s-7.836,0.234-12.343,0.734C82.547,12.107,76.932,11.432,78.255,13.148z"/>
		<g>
			<path fill-rule="evenodd" clip-rule="evenodd" fill="#FFFFFF" d="M92.29,80.604c6.936,0.52,16.237,1.219,25.384,0.629
				c3.582-3.004,8.078-2.732,9.801-1.229c5.93-1.176,11.353-3.207,15.478-6.551c0.898-9.156,1.882-17.889,2.856-22.742
				c2.074-10.334,14.949-38.754,2.456-38.566c-3.311,0.053-9.852,6.854-21.878,7.258c-12.028,0.404-18.131-3.174-25.193-3.805
				c-4.854-0.436-7.008,1.256-10.285,4.543c-3.277,3.285-0.125,17.818,0.348,24.291C91.63,49.586,92.498,67.783,92.29,80.604z"/>
		</g>
	</g>
	<g>
		<g>
			<polygon fill-rule="evenodd" clip-rule="evenodd" fill="#D1D2D3" fill-opacity="0.5" points="109.776,134.699 109.776,134.701 
				109.776,134.697 			"/>
			<path fill-rule="evenodd" clip-rule="evenodd" fill="#D1D2D3" fill-opacity="0.5" d="M111.038,131.785
				c1.221,0.211,2.396,16.285,2.515,17.477c0.613,6.16-0.002,15.818-0.131,17.254c-0.773,8.473-0.773,13.15-0.681,15.594
				c0.057,1.42,0.368,2.777,0.875,3.973c4.351-1.936,6.904-8.322,7.897-11.701c1.157-3.934,4.627-19.666,5.321-23.834
				c0.694-4.162,0.694-17.352-1.389-22.211s-5.782-4.164-9.254-3.008c-2.743,0.914-4.039,3.275-5.347,6.566
				C110.914,131.816,110.979,131.775,111.038,131.785z"/>
		</g>
		<path fill-rule="evenodd" clip-rule="evenodd" fill="#F2F2F2" d="M144.895,123.037c0.229-2.059,0.596-6.154-0.739-8.863
			c-1.334-2.711-1.877-13.242-1.877-18.881s-4.369-8.242-10.617-8.242c-6.247,0-28.111-0.348-35.746,0
			c-7.637,0.346-12.843,3.123-12.843,7.635c0,4.514-2.43,18.283-4.754,21.014c-2.152,2.529-3.843,3.721-3.503,8.771
			c0.853,8.805,1.751,28.361,2.562,32.998c1.217,7.021,6.075,21.684,10.675,28.172c2.222,3.135,6.767,7.477,11.984,7.475
			c2.506,0,4.588-1.467,5.542-6.152c0.78-7.375-0.382-15.863-0.43-18.086c-0.148-6.85,1.174-20.305,2.308-24.783
			c0.854-3.375,2.757-12.449,3.582-12.309c1.221,0.211,2.396,16.285,2.515,17.477c0.613,6.16-0.002,15.818-0.131,17.254
			c-0.773,8.473-0.773,13.15-0.681,15.594c0.183,4.766,3.249,8.844,6.961,8.312c5.851-0.84,11.588-8.838,13.733-13.572
			c2.086-4.604,4.939-11.58,7.423-24.15C142.165,146.094,144.04,130.646,144.895,123.037L144.895,123.037z"/>
		<path fill-rule="evenodd" clip-rule="evenodd" fill="#FFFFFF" d="M134.207,115.02c-6.479,0.854-30.426-0.348-38.061,0
			c-2.868,0.131-2.146,1.188-6.247,1.652c0.403,9.436-0.454,8.049-1.556,17.912c-1.242,11.107-3.157,26.146-1.074,35.633
			s11.106,24.295,14.343,22.668c1.678-0.838,3.424-1.031,3.966-5.922c0.505-4.562-0.128-13.701-0.43-18.086
			c-0.198-2.875,1.131-17.541,2.308-24.783c0.743-4.568,1.82-7.668,2.558-10.197c3.171-10.881,13.483-10.109,14.63-7.055
			c2.817,7.506,2.879,16.045,1.925,23.078c-3.264,24.051-12.625,40.979-6.866,40.502c8.417-0.703,13.467-20.467,16.389-38.945
			c1.158-7.322,0.947-18.516,3.358-32.213C136.405,118.641,140.401,114.203,134.207,115.02z"/>
		<g>
			<path fill="#FFFFFF" d="M80.484,111.457c0.014-0.007-0.079,0.289-0.01,0.748c0.064,0.477,0.484,0.984,1.254,1.326
				c1.559,0.686,4.184,0.897,7.303,0.976c3.133,0.077,6.818,0.009,10.779-0.062c3.961-0.074,8.199-0.154,12.453-0.176
				c2.127-0.016,4.258,0.002,6.359,0.027c2.094,0.05,4.152,0.099,6.146,0.146c3.969,0.097,7.66,0.213,10.756,0.076
				c1.541-0.083,2.947-0.19,4.105-0.491c1.149-0.301,2.078-0.723,2.584-1.361c0.526-0.619,0.686-1.348,0.74-1.83
				c0.059-0.491,0.051-0.768,0.05-0.768c0,0,0.021,0.064,0.063,0.188c0.038,0.126,0.114,0.311,0.158,0.566
				c0.086,0.491,0.246,1.329-0.204,2.328c-0.427,1.005-1.462,1.945-2.728,2.571c-1.268,0.648-2.75,1.152-4.371,1.534
				c-3.246,0.771-7.029,1.198-11.055,1.492c-2.018,0.152-4.092,0.234-6.188,0.334c-2.099,0.075-4.234,0.147-6.375,0.169
				c-2.14,0.027-4.284,0.026-6.398-0.028c-2.113-0.044-4.197-0.145-6.216-0.28c-4.036-0.282-7.815-0.769-11.034-1.494
				c-1.609-0.365-3.076-0.796-4.353-1.3c-1.278-0.486-2.371-1.071-3.153-1.775c-0.389-0.348-0.697-0.738-0.853-1.138
				c-0.163-0.396-0.167-0.768-0.12-1.035C80.299,111.657,80.502,111.469,80.484,111.457z"/>
		</g>
		<g>
			<path fill="#FFFFFF" d="M89.481,101.975c0,0-0.313-1.092-0.426-2.769c-0.022-0.42-0.05-0.878-0.028-1.362
				c0.021-0.486,0.029-1.004,0.126-1.536c0.065-0.532,0.188-1.088,0.333-1.644c0.182-0.554,0.369-1.115,0.656-1.652
				c0.249-0.545,0.621-1.051,0.992-1.522c0.203-0.227,0.413-0.445,0.625-0.653c0.216-0.205,0.47-0.366,0.697-0.543
				c0.438-0.384,0.993-0.549,1.449-0.785c0.492-0.162,0.968-0.279,1.398-0.358c0.439-0.044,0.841-0.06,1.189-0.07
				c0.348-0.01,0.654,0.063,0.9,0.089c0.492,0.074,0.764,0.137,0.764,0.137s-0.272,0.107-0.73,0.26
				c-0.227,0.082-0.506,0.149-0.809,0.27c-0.3,0.134-0.63,0.281-0.988,0.416c-0.328,0.185-0.685,0.385-1.061,0.596
				c-0.322,0.281-0.711,0.484-1.012,0.821c-0.155,0.161-0.332,0.3-0.475,0.479c-0.136,0.188-0.277,0.369-0.427,0.546
				c-0.151,0.175-0.247,0.402-0.384,0.594c-0.139,0.193-0.25,0.408-0.35,0.632c-0.24,0.422-0.401,0.896-0.596,1.348
				c-0.144,0.476-0.346,0.929-0.455,1.404c-0.279,0.931-0.475,1.844-0.678,2.631c-0.18,0.792-0.355,1.462-0.486,1.934
				C89.576,101.705,89.481,101.975,89.481,101.975z"/>
		</g>
		<g>
			<path fill="#FFFFFF" d="M130.446,88.613c0,0,0.182-0.031,0.499-0.086c0.318-0.041,0.789-0.075,1.346-0.053
				c0.556,0.036,1.215,0.104,1.895,0.312c0.34,0.097,0.69,0.219,1.032,0.375c0.341,0.159,0.681,0.338,1.005,0.553
				c0.321,0.212,0.619,0.467,0.898,0.727c0.277,0.265,0.518,0.557,0.72,0.861c0.231,0.282,0.356,0.619,0.511,0.909
				c0.134,0.302,0.213,0.606,0.299,0.875c0.059,0.279,0.092,0.538,0.125,0.763c0.042,0.223,0.014,0.428,0.02,0.589
				c-0.006,0.325-0.02,0.507-0.02,0.507s-0.064-0.173-0.177-0.475c-0.06-0.147-0.1-0.333-0.195-0.53
				c-0.087-0.195-0.185-0.416-0.292-0.657c-0.129-0.223-0.27-0.465-0.418-0.721c-0.182-0.232-0.332-0.498-0.553-0.726
				c-0.193-0.25-0.439-0.461-0.678-0.688c-0.247-0.215-0.51-0.426-0.795-0.603c-1.115-0.761-2.445-1.212-3.467-1.507
				c-0.516-0.135-0.947-0.243-1.261-0.314C130.626,88.654,130.446,88.613,130.446,88.613z"/>
		</g>
	</g>
</g>
<g id="Guides" display="none">
</g>
</svg>
