<?xml version="1.0" encoding="utf-8"?>
<!-- Generator: Adobe Illustrator 16.0.0, SVG Export Plug-In . SVG Version: 6.00 Build 0)  -->
<!DOCTYPE svg PUBLIC "-//W3C//DTD SVG 1.1//EN" "http://www.w3.org/Graphics/SVG/1.1/DTD/svg11.dtd">
<svg version="1.1" id="Layer_1" xmlns="http://www.w3.org/2000/svg" xmlns:xlink="http://www.w3.org/1999/xlink" x="0px" y="0px"
	 width="60px" height="60px" viewBox="0 0 60 60" enable-background="new 0 0 60 60" xml:space="preserve">
<path fill="#254D46" stroke="#FFFFFF" stroke-miterlimit="10" d="M19.67,5.726c0.611,0.05,1.139,0.311,1.574,0.81
	c1.547,1.77,3.105,3.527,4.643,5.308c0.928,1.073,0.941,2.699,0.025,3.852c-0.602,0.756-1.254,1.46-1.885,2.187
	c-0.066,0.079-0.133,0.162-0.201,0.24c-0.352,0.4-0.348,0.396-0.104,0.896c0.492,1.005,1,2.002,1.562,2.958
	c0.871,1.481,1.889,2.825,3.02,4.058c1.459,1.589,3.117,2.855,4.869,3.973c0.226,0.144,0.455,0.281,0.675,0.436
	c0.116,0.083,0.185,0.07,0.282-0.045c0.75-0.866,1.498-1.735,2.267-2.58c0.819-0.902,1.867-1.076,2.881-0.499
	c0.404,0.229,0.693,0.628,1.007,0.985c1.383,1.579,2.76,3.163,4.146,4.742c0.346,0.396,0.582,0.855,0.694,1.4
	c0.01,0.047-0.006,0.115,0.06,0.134c0,0.353,0,0.704,0,1.054c-0.197,1.077-0.91,1.729-1.55,2.438
	c-0.438,0.491-0.938,0.894-1.479,1.231c-0.937,0.588-2.264,1.102-3.084,1.102c-1.176,0-2.09-0.102-2.67-0.229
	c-1.394-0.311-2.733-0.802-4.037-1.446c-1.53-0.758-2.974-1.695-4.347-2.777c-1.158-0.911-2.264-1.9-3.316-2.969
	c-1.424-1.44-2.74-3-4.014-4.608c-1.129-1.425-2.184-2.92-3.109-4.527c-0.891-1.55-1.652-3.178-2.16-4.944
	c-0.277-0.976-0.463-1.971-0.555-3c-0.092-1.036-0.033-3.237,0.125-4.235c0.18-1.159,0.631-2.2,1.197-3.183
	c0.467-0.811,1.104-1.437,1.701-2.105c0.41-0.462,0.932-0.68,1.516-0.673C19.49,5.714,19.582,5.682,19.67,5.726z"/>
</svg>
