<?xml version="1.0" encoding="utf-8"?>
<!-- Generator: Adobe Illustrator 16.0.0, SVG Export Plug-In . SVG Version: 6.00 Build 0)  -->
<!DOCTYPE svg PUBLIC "-//W3C//DTD SVG 1.1//EN" "http://www.w3.org/Graphics/SVG/1.1/DTD/svg11.dtd">
<svg version="1.1" id="Layer_1" xmlns="http://www.w3.org/2000/svg" xmlns:xlink="http://www.w3.org/1999/xlink" x="0px" y="0px"
	 width="75.705px" height="92.793px" viewBox="0 0 75.705 92.793" enable-background="new 0 0 75.705 92.793" xml:space="preserve">
<g>
	<path fill="#3C7B71" d="M0,55.055c0,0,0.039-0.907,0.111-2.609c0.029-0.425,0.015-0.902,0.086-1.421
		c0.076-0.519,0.158-1.084,0.246-1.695c0.1-0.609,0.162-1.274,0.309-1.967c0.172-0.688,0.354-1.418,0.546-2.19
		c0.845-3.053,2.173-6.741,4.591-10.484c2.379-3.746,5.773-7.571,10.266-10.768c4.506-3.15,10.158-5.562,16.475-6.47
		c0.785-0.143,1.59-0.144,2.395-0.222l1.213-0.09l0.609-0.045c0.285-0.004,0.424,0.008,0.643,0.012
		c1.609,0.062,3.202,0.006,4.909,0.294c3.407,0.332,6.705,1.316,9.978,2.604c0.801,0.363,1.605,0.728,2.413,1.093
		c0.804,0.377,1.55,0.866,2.333,1.299l1.166,0.673l1.104,0.776c0.727,0.532,1.491,1.025,2.195,1.6
		c2.833,2.288,5.312,5.053,7.474,8.083c2.11,3.075,3.731,6.503,4.899,10.096c1.111,3.619,1.633,7.402,1.746,11.195l-0.14,2.806
		c-0.009,0.886-0.167,1.854-0.316,2.813l-0.22,1.436l-0.111,0.716l-0.176,0.689l-0.709,2.746c-1.15,3.599-2.739,7.042-4.834,10.13
		c-2.141,3.046-4.608,5.821-7.422,8.134c-0.701,0.578-1.463,1.077-2.186,1.614l-1.1,0.782l-1.162,0.681
		c-0.781,0.437-1.525,0.932-2.326,1.312c-0.805,0.371-1.607,0.74-2.406,1.108c-3.254,1.307-6.584,2.317-9.938,2.662
		c-1.659,0.298-3.33,0.258-4.965,0.33c-0.223,0.004-0.367,0.02-0.653,0.013l-0.597-0.041l-1.188-0.081
		c-0.793-0.073-1.566-0.066-2.361-0.204c-6.391-0.875-12.01-3.249-16.551-6.373c-4.512-3.169-7.928-6.976-10.332-10.706
		c-2.439-3.729-3.789-7.409-4.654-10.457c-0.197-0.771-0.384-1.5-0.56-2.187c-0.151-0.691-0.218-1.355-0.32-1.964
		c-0.093-0.61-0.179-1.176-0.257-1.693c-0.074-0.519-0.062-0.997-0.095-1.422C0.045,55.962,0,55.055,0,55.055z M0,55.055
		c0,0,0.053,0.907,0.15,2.607c0.036,0.424,0.027,0.901,0.107,1.419c0.083,0.517,0.174,1.08,0.271,1.689
		c0.107,0.607,0.18,1.269,0.336,1.957c0.182,0.684,0.375,1.41,0.578,2.178c0.885,3.032,2.256,6.703,4.799,10.33
		c2.484,3.629,5.936,7.354,10.515,10.238c4.55,2.87,10.202,4.933,16.235,5.502c0.748,0.102,1.557,0.062,2.341,0.102l1.19,0.031
		l0.598,0.016l0.545-0.041c1.561-0.139,3.148-0.162,4.713-0.516c3.166-0.459,6.27-1.558,9.267-2.909
		c0.733-0.376,1.47-0.754,2.209-1.133c0.733-0.387,1.409-0.885,2.12-1.321l1.056-0.677l0.991-0.775
		c0.652-0.53,1.34-1.019,1.967-1.583c2.537-2.232,4.761-4.847,6.659-7.701c1.835-2.902,3.243-6.073,4.285-9.37l0.626-2.521
		l0.156-0.63l0.09-0.629l0.183-1.257c0.126-0.835,0.271-1.659,0.274-2.595l0.119-2.639c-0.082-3.472-0.522-6.937-1.51-10.26
		c-0.244-0.829-0.58-1.629-0.863-2.444c-0.154-0.402-0.28-0.817-0.455-1.211l-0.561-1.166c-0.389-0.767-0.679-1.588-1.146-2.311
		l-1.314-2.216c-1.916-2.845-4.161-5.439-6.707-7.664c-0.631-0.561-1.322-1.045-1.977-1.57l-0.997-0.77l-1.061-0.67
		c-0.714-0.433-1.392-0.926-2.128-1.309c-0.742-0.374-1.481-0.747-2.217-1.119c-2.996-1.331-6.145-2.414-9.262-2.847
		c-1.521-0.341-3.186-0.362-4.774-0.49l-0.556-0.034l-0.584,0.019l-1.164,0.038c-0.772,0.043-1.549,0.008-2.307,0.113
		c-6.098,0.614-11.688,2.709-16.236,5.609c-4.561,2.914-7.986,6.663-10.449,10.308c-2.519,3.643-3.865,7.322-4.732,10.36
		c-0.198,0.769-0.387,1.496-0.563,2.181c-0.152,0.69-0.221,1.352-0.324,1.959c-0.095,0.61-0.181,1.174-0.261,1.691
		c-0.076,0.518-0.064,0.996-0.098,1.42C0.047,54.147,0,55.055,0,55.055z"/>
</g>
<g>
	
		<rect x="41.933" y="52.261" transform="matrix(0.0031 1 -1 0.0031 113.5986 23.636)" fill="#1F3330" width="6.024" height="33.063"/>
</g>
<g>
	
		<rect x="43.549" y="42.61" transform="matrix(0.0031 1 -1 0.0031 107.201 14.0347)" fill="#254D46" width="6.024" height="36.347"/>
</g>
<g>
	
		<rect x="41.882" y="36.253" transform="matrix(0.0031 1 -1 0.0031 97.5407 7.7278)" fill="#3C7B71" width="6.024" height="33.064"/>
</g>
<rect x="28.339" y="44.264" transform="matrix(1 -0.0031 0.0031 1 -0.1405 0.134)" fill="#319E98" width="28.649" height="1.18"/>
<rect x="28.331" y="41.88" transform="matrix(1 -0.0031 0.0031 1 -0.133 0.134)" fill="#319E98" width="28.649" height="1.179"/>
<rect x="28.346" y="46.648" fill="#319E98" width="28.649" height="1.151"/>
<g>
</g>
<polygon fill="#121A18" points="27.62,41.928 20.384,41.95 20.332,43.129 27.568,43.106 "/>
<polygon fill="#121A18" points="27.516,44.312 20.279,44.334 20.228,45.514 27.464,45.491 "/>
<polygon fill="#121A18" points="27.411,46.696 20.175,46.719 20.124,47.898 27.36,47.876 "/>
<polygon fill="#121A18" points="29.437,0.315 22.215,0 20.436,40.745 27.673,40.722 "/>
<polygon fill="#121A18" points="26.225,73.88 18.988,73.903 18.937,75.083 26.173,75.06 "/>
<polygon fill="#121A18" points="18.528,84.438 25.75,84.753 25.912,81.035 18.676,81.058 "/>
<polygon fill="#121A18" points="18.78,78.673 18.729,79.853 25.965,79.83 26.017,78.65 "/>
<polygon fill="#121A18" points="26.12,76.265 18.884,76.288 18.833,77.468 26.069,77.445 "/>
<polygon fill="#121A18" points="27.308,49.081 20.071,49.104 19.041,72.697 26.277,72.675 "/>
<polygon fill="#121A18" points="28.448,79.822 56.262,79.734 56.262,79.773 57.097,79.771 57.093,78.552 28.444,78.643 "/>
<rect x="28.439" y="76.212" transform="matrix(1 -0.0032 0.0032 1 -0.2433 0.1359)" fill="#121A18" width="28.649" height="1.18"/>
<rect x="28.432" y="73.828" transform="matrix(1 -0.0032 0.0032 1 -0.2357 0.1359)" fill="#121A18" width="28.649" height="1.18"/>
<polygon fill="#FFFFFF" points="58.487,76.163 26.12,76.265 20.16,76.284 28.438,76.258 57.086,76.167 "/>
<polygon fill="#FFFFFF" points="22.307,75.072 16.987,75.089 18.937,75.083 "/>
<polygon fill="#FFFFFF" points="58.49,77.343 57.089,77.347 28.44,77.438 20.108,77.464 26.069,77.445 "/>
<polygon fill="#FFFFFF" points="16.999,78.679 23.65,78.657 18.78,78.673 "/>
<polygon fill="#FFFFFF" points="17.811,81.061 23.228,81.044 18.676,81.058 "/>
<polygon fill="#FFFFFF" points="56.262,79.734 28.448,79.822 19.322,79.851 25.965,79.83 "/>
</svg>
