<?xml version="1.0" encoding="utf-8"?>
<!-- Generator: Adobe Illustrator 16.0.0, SVG Export Plug-In . SVG Version: 6.00 Build 0)  -->
<!DOCTYPE svg PUBLIC "-//W3C//DTD SVG 1.1//EN" "http://www.w3.org/Graphics/SVG/1.1/DTD/svg11.dtd">
<svg version="1.1" id="Layer_1" xmlns="http://www.w3.org/2000/svg" xmlns:xlink="http://www.w3.org/1999/xlink" x="0px" y="0px"
	 width="60px" height="60px" viewBox="0 0 60 60" enable-background="new 0 0 60 60" xml:space="preserve">
<g>
	<path fill="#254D46" stroke="#FFFFFF" stroke-width="0.2" stroke-miterlimit="10" d="M28.371,21.836
		c-0.334,0.635-0.56,1.223-0.85,1.828c-2.218,4.826-4.434,9.652-4.434,9.652s2.602-4.63,5.203-9.265
		c0.33-0.566,0.641-1.197,0.958-1.693c0.16-0.248,0.332-0.438,0.484-0.512c0.146-0.078,0.33-0.092,0.576-0.057
		c0.114,0.006,0.252,0.051,0.374,0.076c0.133,0.043,0.234,0.062,0.385,0.121l0.211,0.074l0.054,0.018
		c0.003,0.002,0.032,0.012,0.012,0.006l0.023,0.01l0.092,0.041c0.121,0.057,0.24,0.109,0.358,0.162
		c0.242,0.092,0.445,0.244,0.658,0.359c0.215,0.133,0.405,0.273,0.617,0.414c0.217,0.148,0.414,0.291,0.653,0.418
		c0.114,0.063,0.223,0.131,0.336,0.186c0.119,0.047,0.235,0.094,0.347,0.139c0.113,0.043,0.223,0.088,0.328,0.125
		c0.113,0.025,0.223,0.051,0.326,0.074c0.206,0.045,0.408,0.092,0.572,0.119c0.578,0.055,9.576,0.074,9.576,0.074v0.172
		l14.053,0.908v-3.883L45.23,22.31v0.174l-8.789,0.01c-0.155,0-0.389-0.004-0.689-0.008c-0.111-0.016-0.236-0.035-0.373-0.055
		c-0.066-0.008-0.138-0.016-0.211-0.025c-0.072-0.023-0.146-0.045-0.225-0.068c-0.08-0.023-0.159-0.047-0.243-0.07
		c-0.083-0.033-0.166-0.078-0.255-0.117c-0.168-0.068-0.368-0.188-0.575-0.307c-0.212-0.117-0.453-0.264-0.706-0.395
		c-0.27-0.121-0.53-0.277-0.831-0.369c-0.146-0.051-0.295-0.104-0.446-0.156l-0.111-0.041l-0.027-0.01l-0.042-0.012l-0.056-0.014
		l-0.215-0.057c-0.134-0.039-0.328-0.076-0.492-0.111c-0.178-0.023-0.342-0.061-0.54-0.062c-0.367-0.025-0.848,0.025-1.247,0.293
		C28.761,21.172,28.542,21.528,28.371,21.836z"/>
	<path fill="#254D46" stroke="#FFFFFF" stroke-width="0.2" stroke-miterlimit="10" d="M31.083,26.311l-2.589,7.943
		c-0.1,0.305,0.027,0.635,0.283,0.807c-0.039,0.055-0.068,0.111-0.082,0.184c-0.06,0.309,0.183,0.664,0.54,0.791l0.321,0.111
		l-1.023,2.621c-0.176-0.014-0.344,0.072-0.415,0.232c-0.09,0.207,0.019,0.455,0.244,0.553c0.227,0.1,0.481,0.012,0.573-0.195
		c0.063-0.146,0.023-0.312-0.083-0.432l1.176-2.611l0.397,0.143c0.357,0.127,0.761-0.004,0.896-0.289
		c0.027-0.061,0.039-0.119,0.041-0.182c0.32,0.051,0.646-0.135,0.765-0.445l1.696-4.549l13.316,6.602h12.146V30.93H47.482
		l-12.728-2.444l0.312-0.836c0.134-0.355-0.053-0.746-0.412-0.865l-2.707-0.908C31.59,25.754,31.2,25.95,31.083,26.311z"/>
	<g>
		
			<rect x="31.033" y="11.903" fill="#254D46" stroke="#FFFFFF" stroke-width="0.2" stroke-miterlimit="10" width="12.924" height="1.723"/>
		<g>
			<path fill="#254D46" stroke="#FFFFFF" stroke-width="0.2" stroke-miterlimit="10" d="M31.895,12.762
				c0,4.848-4.714,8.791-10.513,8.791c-5.797,0-10.513-3.943-10.513-8.791c0-4.844,4.716-8.787,10.513-8.787
				C27.179,3.975,31.895,7.918,31.895,12.762z M12.593,12.762c0,4.053,3.943,7.35,8.789,7.35c4.846,0,8.789-3.297,8.789-7.35
				c0-4.051-3.943-7.348-8.789-7.348C16.536,5.414,12.593,8.711,12.593,12.762z"/>
		</g>
		<polygon fill="#254D46" stroke="#FFFFFF" stroke-width="0.2" stroke-miterlimit="10" points="59.285,10.696 59.285,14.833 
			39.82,13.797 39.82,11.729 		"/>
	</g>
</g>
</svg>
