<?xml version="1.0" encoding="utf-8"?>
<!-- Generator: Adobe Illustrator 16.0.0, SVG Export Plug-In . SVG Version: 6.00 Build 0)  -->
<!DOCTYPE svg PUBLIC "-//W3C//DTD SVG 1.1//EN" "http://www.w3.org/Graphics/SVG/1.1/DTD/svg11.dtd">
<svg version="1.1" id="Layer_1" xmlns="http://www.w3.org/2000/svg" xmlns:xlink="http://www.w3.org/1999/xlink" x="0px" y="0px"
	 width="60px" height="60px" viewBox="0 0 60 60" enable-background="new 0 0 60 60" xml:space="preserve">
<g>
	<path fill="#D4CACA" d="M60,55c0,2.75-2.25,5-5,5H5c-2.75,0-5-2.25-5-5V5c0-2.75,2.25-5,5-5h50c2.75,0,5,2.25,5,5V55z"/>
</g>
<g>
	<path fill="#1C0903" d="M29.172,21.992c-0.334,0.636-0.56,1.224-0.85,1.828c-2.218,4.826-4.434,9.652-4.434,9.652
		s2.602-4.631,5.203-9.263c0.33-0.567,0.641-1.197,0.958-1.693c0.16-0.248,0.332-0.438,0.484-0.512
		c0.146-0.078,0.33-0.092,0.576-0.058c0.114,0.007,0.252,0.051,0.374,0.076c0.132,0.043,0.234,0.063,0.385,0.121l0.211,0.074
		l0.052,0.019c0.003,0.001,0.033,0.011,0.012,0.006l0.023,0.01l0.092,0.041c0.121,0.056,0.24,0.108,0.359,0.162
		c0.242,0.091,0.446,0.244,0.659,0.358c0.214,0.134,0.405,0.273,0.617,0.415c0.216,0.147,0.414,0.29,0.653,0.418
		c0.115,0.063,0.223,0.131,0.336,0.185c0.119,0.048,0.235,0.094,0.347,0.139c0.113,0.044,0.222,0.089,0.328,0.126
		c0.113,0.025,0.222,0.051,0.326,0.074c0.206,0.045,0.408,0.091,0.572,0.118c0.579,0.055,9.576,0.074,9.576,0.074v0.173
		l14.053,0.907V21.56l-14.053,0.907v0.173l-8.788,0.011c-0.156-0.001-0.389-0.005-0.69-0.009c-0.112-0.016-0.237-0.034-0.373-0.054
		c-0.067-0.008-0.138-0.017-0.211-0.026c-0.073-0.022-0.147-0.044-0.225-0.068c-0.078-0.022-0.159-0.047-0.243-0.07
		c-0.083-0.032-0.166-0.077-0.254-0.116C35.08,22.238,34.88,22.119,34.673,22c-0.212-0.117-0.453-0.265-0.706-0.396
		c-0.269-0.12-0.53-0.276-0.831-0.368c-0.146-0.052-0.295-0.104-0.446-0.156l-0.112-0.041l-0.028-0.01l-0.042-0.012l-0.054-0.015
		l-0.216-0.057c-0.133-0.039-0.327-0.075-0.491-0.111c-0.179-0.023-0.343-0.061-0.54-0.062c-0.367-0.024-0.848,0.025-1.247,0.293
		C29.562,21.329,29.343,21.683,29.172,21.992z"/>
	<path fill="#1C0903" d="M31.884,26.466l-2.589,7.944c-0.1,0.305,0.027,0.635,0.283,0.807c-0.039,0.052-0.068,0.111-0.082,0.182
		c-0.06,0.309,0.183,0.664,0.54,0.791l0.321,0.113l-1.023,2.62c-0.176-0.014-0.344,0.073-0.415,0.233
		c-0.09,0.207,0.019,0.454,0.244,0.553c0.227,0.099,0.481,0.011,0.573-0.196c0.063-0.146,0.023-0.312-0.083-0.432l1.176-2.611
		l0.397,0.141c0.357,0.127,0.76-0.004,0.896-0.288c0.027-0.06,0.039-0.12,0.04-0.181c0.321,0.049,0.646-0.134,0.764-0.447
		l1.697-4.548l13.316,6.601h12.146v-6.663H48.284l-12.727-2.443l0.312-0.837c0.133-0.354-0.053-0.745-0.412-0.865l-2.708-0.908
		C32.391,25.91,32.001,26.106,31.884,26.466z"/>
	<g>
		<rect x="31.834" y="12.058" fill="#1C0903" width="12.924" height="1.723"/>
		<g>
			<path fill="#1C0903" d="M32.694,12.918c0,4.847-4.715,8.79-10.512,8.79s-10.513-3.943-10.513-8.79
				c0-4.845,4.716-8.788,10.513-8.788S32.694,8.074,32.694,12.918z M13.394,12.918c0,4.053,3.943,7.349,8.789,7.349
				s8.789-3.296,8.789-7.349c0-4.051-3.943-7.348-8.789-7.348S13.394,8.868,13.394,12.918z"/>
		</g>
		<polygon fill="#1C0903" points="60.086,10.851 60.086,14.988 40.622,13.954 40.622,11.885 		"/>
	</g>
</g>
</svg>
