<?xml version="1.0" encoding="utf-8"?>
<!-- Generator: Adobe Illustrator 16.0.0, SVG Export Plug-In . SVG Version: 6.00 Build 0)  -->
<!DOCTYPE svg PUBLIC "-//W3C//DTD SVG 1.1//EN" "http://www.w3.org/Graphics/SVG/1.1/DTD/svg11.dtd">
<svg version="1.1" id="Layer_1" xmlns="http://www.w3.org/2000/svg" xmlns:xlink="http://www.w3.org/1999/xlink" x="0px" y="0px"
	 width="60px" height="60px" viewBox="0 0 60 60" enable-background="new 0 0 60 60" xml:space="preserve">
<path fill="#F3F2F2" d="M18.532,11.889c0.704,0.058,1.312,0.357,1.815,0.933c1.783,2.04,3.578,4.065,5.351,6.118
	c1.068,1.237,1.086,3.111,0.029,4.439c-0.693,0.872-1.446,1.683-2.172,2.521c-0.078,0.091-0.153,0.187-0.232,0.276
	c-0.406,0.461-0.401,0.457-0.12,1.032c0.568,1.159,1.153,2.308,1.802,3.41c1.005,1.707,2.176,3.257,3.479,4.678
	c1.683,1.832,3.594,3.291,5.614,4.579c0.26,0.166,0.523,0.323,0.776,0.502c0.134,0.096,0.212,0.08,0.326-0.052
	c0.864-0.998,1.726-2,2.61-2.974c0.945-1.041,2.151-1.24,3.32-0.576c0.467,0.266,0.799,0.725,1.16,1.137
	c1.593,1.82,3.182,3.646,4.775,5.466c0.399,0.456,0.672,0.986,0.802,1.614c0.012,0.055-0.007,0.134,0.069,0.154
	c0,0.404,0,0.811,0,1.215c-0.229,1.24-1.051,1.99-1.785,2.811c-0.508,0.566-1.082,1.03-1.705,1.421
	c-1.079,0.677-2.608,1.27-3.555,1.27c-1.355,0-2.41-0.116-3.078-0.265c-1.605-0.357-3.152-0.925-4.652-1.668
	c-1.766-0.875-3.429-1.955-5.012-3.203c-1.336-1.051-2.609-2.189-3.823-3.42c-1.641-1.662-3.158-3.459-4.626-5.313
	c-1.302-1.644-2.518-3.366-3.584-5.22c-1.027-1.785-1.904-3.661-2.489-5.698c-0.321-1.124-0.534-2.271-0.64-3.458
	c-0.107-1.194-0.038-3.731,0.143-4.882c0.209-1.336,0.729-2.536,1.38-3.668c0.538-0.935,1.273-1.656,1.961-2.427
	c0.475-0.533,1.074-0.784,1.748-0.776C18.325,11.875,18.431,11.838,18.532,11.889z"/>
</svg>
