<?xml version="1.0" encoding="utf-8"?>
<!-- Generator: Adobe Illustrator 16.0.0, SVG Export Plug-In . SVG Version: 6.00 Build 0)  -->
<!DOCTYPE svg PUBLIC "-//W3C//DTD SVG 1.1//EN" "http://www.w3.org/Graphics/SVG/1.1/DTD/svg11.dtd">
<svg version="1.1" id="Layer_1" xmlns="http://www.w3.org/2000/svg" xmlns:xlink="http://www.w3.org/1999/xlink" x="0px" y="0px"
	 width="60px" height="60px" viewBox="0 0 60 60" enable-background="new 0 0 60 60" xml:space="preserve">
<path fill="#254D46" stroke="#FFFFFF" stroke-miterlimit="10" d="M18.093,10.027c0.704,0.058,1.312,0.357,1.815,0.933
	c1.783,2.04,3.578,4.066,5.351,6.118c1.068,1.237,1.086,3.111,0.029,4.439c-0.693,0.872-1.446,1.683-2.172,2.521
	c-0.078,0.091-0.153,0.187-0.232,0.276c-0.406,0.461-0.401,0.457-0.12,1.032c0.568,1.159,1.153,2.308,1.802,3.41
	c1.005,1.707,2.176,3.258,3.479,4.678c1.683,1.832,3.594,3.291,5.614,4.58c0.259,0.166,0.522,0.322,0.776,0.502
	c0.133,0.094,0.211,0.079,0.326-0.053c0.863-0.998,1.725-2,2.609-2.974c0.945-1.04,2.152-1.24,3.32-0.575
	c0.468,0.266,0.8,0.725,1.16,1.136c1.594,1.82,3.183,3.646,4.776,5.466c0.399,0.457,0.671,0.986,0.802,1.614
	c0.012,0.056-0.007,0.134,0.068,0.154c0,0.405,0,0.811,0,1.215c-0.229,1.241-1.051,1.991-1.785,2.812
	c-0.507,0.565-1.081,1.029-1.705,1.42C42.932,49.408,41.4,50,40.455,50c-1.355,0-2.41-0.116-3.077-0.266
	c-1.606-0.356-3.153-0.924-4.653-1.666c-1.766-0.875-3.429-1.957-5.012-3.203c-1.336-1.051-2.609-2.19-3.823-3.422
	c-1.641-1.66-3.158-3.459-4.626-5.312c-1.302-1.643-2.518-3.365-3.584-5.219c-1.027-1.786-1.904-3.662-2.489-5.699
	c-0.321-1.124-0.534-2.271-0.64-3.458c-0.107-1.194-0.038-3.731,0.143-4.882c0.209-1.336,0.729-2.536,1.38-3.668
	c0.538-0.935,1.273-1.656,1.961-2.427c0.475-0.533,1.074-0.784,1.748-0.776C17.886,10.014,17.992,9.977,18.093,10.027z"/>
</svg>
