<?xml version="1.0" encoding="utf-8"?>
<!-- Generator: Adobe Illustrator 16.0.0, SVG Export Plug-In . SVG Version: 6.00 Build 0)  -->
<!DOCTYPE svg PUBLIC "-//W3C//DTD SVG 1.1//EN" "http://www.w3.org/Graphics/SVG/1.1/DTD/svg11.dtd">
<svg version="1.1" id="Layer_1" xmlns="http://www.w3.org/2000/svg" xmlns:xlink="http://www.w3.org/1999/xlink" x="0px" y="0px"
	 width="60px" height="60px" viewBox="0 0 60 60" enable-background="new 0 0 60 60" xml:space="preserve">
<path fill="#254D46" stroke="#FFFFFF" stroke-width="0.2" stroke-miterlimit="10" d="M29.948,29.403
	c-0.636-0.334-1.224-0.56-1.828-0.85c-4.826-2.218-9.652-4.434-9.652-4.434s4.631,2.602,9.263,5.203
	c0.567,0.33,1.197,0.641,1.693,0.958c0.248,0.16,0.438,0.331,0.512,0.483c0.078,0.146,0.092,0.33,0.058,0.576
	c-0.007,0.114-0.051,0.252-0.076,0.374c-0.043,0.132-0.063,0.234-0.121,0.386l-0.074,0.211l-0.019,0.051
	c-0.001,0.004-0.011,0.033-0.006,0.013l-0.01,0.022l-0.041,0.093c-0.056,0.12-0.108,0.239-0.161,0.358
	c-0.092,0.242-0.245,0.446-0.359,0.659c-0.134,0.214-0.273,0.405-0.415,0.617c-0.147,0.216-0.29,0.414-0.418,0.653
	c-0.063,0.115-0.131,0.223-0.185,0.336c-0.048,0.119-0.094,0.234-0.139,0.347c-0.044,0.113-0.089,0.222-0.126,0.328
	c-0.025,0.112-0.051,0.222-0.074,0.326c-0.045,0.206-0.091,0.407-0.118,0.571c-0.055,0.58-0.074,9.576-0.074,9.576h-0.173
	l-0.907,14.053h3.883l-0.907-14.053H29.3l-0.011-8.787c0.001-0.156,0.005-0.39,0.009-0.69c0.016-0.112,0.034-0.237,0.054-0.373
	c0.009-0.067,0.017-0.138,0.026-0.211c0.022-0.073,0.044-0.147,0.068-0.226c0.022-0.078,0.047-0.158,0.07-0.242
	c0.032-0.084,0.077-0.166,0.116-0.254c0.069-0.17,0.188-0.369,0.307-0.576c0.117-0.213,0.265-0.453,0.396-0.707
	c0.12-0.269,0.276-0.529,0.368-0.83c0.052-0.146,0.104-0.295,0.156-0.446l0.041-0.112l0.01-0.027l0.012-0.043l0.016-0.053
	l0.057-0.217c0.039-0.133,0.074-0.326,0.111-0.49c0.022-0.18,0.061-0.344,0.062-0.541c0.024-0.367-0.024-0.848-0.293-1.247
	C30.611,29.793,30.257,29.574,29.948,29.403z"/>
<path fill="#254D46" stroke="#FFFFFF" stroke-width="0.2" stroke-miterlimit="10" d="M25.474,32.115l-7.944-2.589
	c-0.305-0.1-0.635,0.027-0.807,0.283c-0.052-0.039-0.111-0.068-0.182-0.082c-0.309-0.06-0.664,0.183-0.791,0.54l-0.113,0.321
	l-2.62-1.023c0.014-0.176-0.073-0.344-0.233-0.415c-0.207-0.09-0.454,0.019-0.553,0.244c-0.099,0.227-0.011,0.481,0.196,0.573
	c0.146,0.063,0.312,0.023,0.432-0.083l2.611,1.177l-0.141,0.396c-0.127,0.357,0.004,0.76,0.288,0.896
	c0.06,0.026,0.12,0.039,0.181,0.039c-0.049,0.321,0.134,0.646,0.447,0.765l4.548,1.696L14.192,48.17v12.146h6.663V48.516
	l2.443-12.727l0.837,0.312c0.354,0.133,0.745-0.054,0.865-0.412l0.908-2.709C26.03,32.622,25.834,32.232,25.474,32.115z"/>
<g>
	
		<rect x="38.159" y="32.064" fill="#254D46" stroke="#FFFFFF" stroke-width="0.2" stroke-miterlimit="10" width="1.723" height="12.925"/>
	<g>
		<path fill="#254D46" stroke="#FFFFFF" stroke-width="0.2" stroke-miterlimit="10" d="M39.021,32.926
			c-4.848,0-8.791-4.715-8.791-10.512s3.943-10.513,8.791-10.513c4.845,0,8.787,4.716,8.787,10.513S43.866,32.926,39.021,32.926z
			 M39.021,13.625c-4.054,0-7.35,3.943-7.35,8.789c0,4.846,3.296,8.789,7.35,8.789c4.051,0,7.348-3.943,7.348-8.789
			C46.369,17.568,43.072,13.625,39.021,13.625z"/>
	</g>
	<polygon fill="#254D46" stroke="#FFFFFF" stroke-width="0.2" stroke-miterlimit="10" points="41.089,60.316 36.952,60.316 
		37.986,40.854 40.055,40.854 	"/>
</g>
</svg>
