<?xml version="1.0" encoding="utf-8"?>
<!-- Generator: Adobe Illustrator 16.0.0, SVG Export Plug-In . SVG Version: 6.00 Build 0)  -->
<!DOCTYPE svg PUBLIC "-//W3C//DTD SVG 1.1//EN" "http://www.w3.org/Graphics/SVG/1.1/DTD/svg11.dtd">
<svg version="1.1" id="Layer_1" xmlns="http://www.w3.org/2000/svg" xmlns:xlink="http://www.w3.org/1999/xlink" x="0px" y="0px"
	 width="60px" height="60px" viewBox="0 0 60 60" enable-background="new 0 0 60 60" xml:space="preserve">
<path fill="#F3F2F2" d="M21.526,29.083c-0.636-0.334-1.224-0.56-1.828-0.85c-4.826-2.218-9.652-4.434-9.652-4.434
	s4.631,2.602,9.263,5.203c0.567,0.33,1.197,0.641,1.693,0.958c0.248,0.16,0.438,0.332,0.512,0.484
	c0.078,0.146,0.092,0.33,0.058,0.576c-0.007,0.114-0.051,0.252-0.076,0.375c-0.043,0.131-0.063,0.233-0.121,0.385l-0.074,0.211
	l-0.019,0.052c-0.001,0.003-0.011,0.033-0.006,0.012l-0.01,0.023l-0.041,0.092c-0.056,0.121-0.108,0.24-0.161,0.358
	c-0.092,0.242-0.245,0.447-0.359,0.66c-0.134,0.213-0.273,0.404-0.415,0.616c-0.147,0.216-0.29,0.414-0.418,0.653
	c-0.063,0.115-0.131,0.223-0.185,0.336c-0.048,0.119-0.094,0.234-0.139,0.348c-0.044,0.112-0.089,0.222-0.126,0.327
	c-0.025,0.113-0.051,0.222-0.074,0.326c-0.045,0.206-0.091,0.408-0.118,0.572c-0.055,0.579-0.074,9.575-0.074,9.575h-0.173
	l-0.907,14.054h3.883L21.05,45.943h-0.173l-0.011-8.787c0.001-0.156,0.005-0.389,0.009-0.69c0.016-0.112,0.034-0.237,0.054-0.373
	c0.009-0.067,0.017-0.138,0.026-0.211c0.022-0.073,0.044-0.147,0.068-0.225c0.022-0.078,0.047-0.159,0.07-0.243
	c0.032-0.083,0.077-0.166,0.116-0.254c0.069-0.169,0.188-0.369,0.307-0.576c0.117-0.212,0.265-0.453,0.396-0.706
	c0.12-0.269,0.276-0.53,0.368-0.831c0.052-0.146,0.104-0.295,0.157-0.445l0.04-0.112l0.01-0.028l0.012-0.042l0.015-0.054
	l0.057-0.217c0.039-0.133,0.075-0.326,0.111-0.49c0.023-0.18,0.061-0.344,0.062-0.54c0.024-0.367-0.025-0.848-0.293-1.247
	C22.189,29.473,21.834,29.254,21.526,29.083z"/>
<path fill="#F3F2F2" d="M17.051,31.795l-7.944-2.589c-0.305-0.1-0.635,0.027-0.807,0.283c-0.052-0.039-0.111-0.068-0.182-0.082
	c-0.309-0.06-0.664,0.183-0.791,0.54l-0.113,0.321l-2.62-1.023c0.014-0.176-0.073-0.344-0.233-0.415
	c-0.207-0.09-0.454,0.019-0.553,0.244c-0.099,0.227-0.011,0.481,0.196,0.573c0.146,0.063,0.312,0.023,0.432-0.083l2.611,1.176
	l-0.141,0.396c-0.127,0.357,0.004,0.76,0.288,0.896c0.06,0.027,0.12,0.039,0.181,0.04c-0.049,0.321,0.134,0.646,0.447,0.764
	l4.548,1.697l-6.6,13.317v12.146h6.663V48.195l2.443-12.728l0.837,0.312c0.354,0.133,0.745-0.054,0.865-0.412l0.908-2.708
	C17.608,32.302,17.412,31.912,17.051,31.795z"/>
<g>
	<rect x="29.737" y="31.748" fill="#F3F2F2" width="1.723" height="12.924"/>
	<g>
		<path fill="#F3F2F2" d="M30.6,32.607c-4.848,0-8.791-4.714-8.791-10.512c0-5.797,3.943-10.513,8.791-10.513
			c4.844,0,8.787,4.716,8.787,10.513C39.387,27.893,35.443,32.607,30.6,32.607z M30.6,13.308c-4.054,0-7.35,3.943-7.35,8.789
			c0,4.846,3.296,8.789,7.35,8.789c4.051,0,7.348-3.943,7.348-8.789C37.947,17.251,34.65,13.308,30.6,13.308z"/>
	</g>
	<polygon fill="#F3F2F2" points="32.667,60 28.53,60 29.564,40.536 31.632,40.536 	"/>
</g>
</svg>
