<?xml version="1.0" encoding="utf-8"?>
<!-- Generator: Adobe Illustrator 16.0.0, SVG Export Plug-In . SVG Version: 6.00 Build 0)  -->
<!DOCTYPE svg PUBLIC "-//W3C//DTD SVG 1.1//EN" "http://www.w3.org/Graphics/SVG/1.1/DTD/svg11.dtd">
<svg version="1.1" id="Layer_1" xmlns="http://www.w3.org/2000/svg" xmlns:xlink="http://www.w3.org/1999/xlink" x="0px" y="0px"
	 width="544.872px" height="175.491px" viewBox="0 0 544.872 175.491" enable-background="new 0 0 544.872 175.491"
	 xml:space="preserve">
<text transform="matrix(1 0 0 1 29.167 41.4639)" fill="#46454A" font-family="'AvenirNext-Regular'" font-size="30">Colors</text>
<text transform="matrix(1 0 0 1 38.5635 153.3428)" fill="#46454A" font-family="'AvenirNext-Regular'" font-size="14">#1D1D1F</text>
<text transform="matrix(1 0 0 1 140.0757 153.3428)" fill="#46454A" font-family="'AvenirNext-Regular'" font-size="14">#46454A</text>
<text transform="matrix(1 0 0 1 238.3955 153.3428)" fill="#46454A" font-family="'AvenirNext-Regular'" font-size="14">#A2A2A4</text>
<text transform="matrix(1 0 0 1 340.8735 153.3428)" fill="#46454A" font-family="'AvenirNext-Regular'" font-size="14">#F0E7E2</text>
<text transform="matrix(1 0 0 1 438.8364 153.3428)" fill="#46454A" font-family="'AvenirNext-Regular'" font-size="14">#D6562A</text>
<rect x="229.167" y="53.202" fill="#A2A2A4" stroke="#1D1D1F" stroke-miterlimit="10" width="80" height="80"/>
<rect x="29.167" y="53.202" fill="#1D1D1F" stroke="#1D1D1F" stroke-miterlimit="10" width="80" height="80"/>
<rect x="129.167" y="53.202" fill="#46454A" stroke="#1D1D1F" stroke-miterlimit="10" width="80" height="80"/>
<rect x="329.167" y="53.202" fill="#F0E7E2" stroke="#1D1D1F" stroke-miterlimit="10" width="80" height="80"/>
<rect x="429.167" y="53.202" fill="#D6562A" stroke="#1D1D1F" stroke-miterlimit="10" width="80" height="80"/>
</svg>
